<svg id="Layer_1" data-name="Layer 1" xmlns="http://www.w3.org/2000/svg" viewBox="0 0 45.8 45.37"><defs><style>.cls-1,.cls-4{fill:#19030e;}.cls-1,.cls-3{opacity:0.18;}.cls-2{fill:#ffd639;stroke:#19030e;stroke-miterlimit:10;}.cls-5{fill:#fff;}.cls-6{fill:#368181;}.cls-7{fill:#edabc8;}</style></defs><path class="cls-1" d="M42.08,20.26c-1.13-5-2-8.63-5.17-11.55C32.89,5.05,27.79,4.92,23,4.8c-5.28-.14-11.39-.29-15.84,4C3.27,12.46,2.48,17.7,2,21a29.61,29.61,0,0,0,0,8.26c.46,3.39,1.09,8,3.93,11.46C12.06,48.22,24.77,46.29,26.5,46c3.26-.54,11.59-1.93,15.39-8.72C44.77,32.15,43.53,26.65,42.08,20.26Z" transform="translate(-1.23 -1.06)"/><path class="cls-2" d="M44.45,17.08c-1.13-5-2-8.63-5.17-11.56-4-3.66-9.12-3.78-13.93-3.91C20.06,1.48,14,1.32,9.5,5.58c-3.86,3.69-4.64,8.93-5.13,12.2a29.6,29.6,0,0,0,0,8.26c.47,3.39,1.09,8,3.93,11.46,6.11,7.53,18.82,5.61,20.56,5.32,3.25-.53,11.58-1.92,15.39-8.71C47.15,29,45.9,23.47,44.45,17.08Z" transform="translate(-1.23 -1.06)"/><g class="cls-3"><path class="cls-4" d="M33.82,5.42a4.17,4.17,0,0,0-2.32,0c-1.68.65-2.17,2.83-2.31,3.47a4.55,4.55,0,0,0,0,2.65c.66,1.9,2.67,2.62,3.44,2.89a6.12,6.12,0,0,0,3.51.25,4.26,4.26,0,0,0,2.32-1.15c1.52-1.73.85-5.39-1.16-6.95A7.1,7.1,0,0,0,33.82,5.42Z" transform="translate(-1.23 -1.06)"/></g><path class="cls-5" d="M35.6,2.89a4.13,4.13,0,0,0-2.31,0c-1.68.66-2.17,2.83-2.32,3.47A4.56,4.56,0,0,0,31,9c.65,1.9,2.66,2.62,3.43,2.89a6.05,6.05,0,0,0,3.51.25A4.19,4.19,0,0,0,40.23,11c1.52-1.72.85-5.38-1.15-6.95A7.24,7.24,0,0,0,35.6,2.89Z" transform="translate(-1.23 -1.06)"/><path class="cls-4" d="M35.8,2.17a4.4,4.4,0,0,0-3.55.44A5.3,5.3,0,0,0,30.48,5.3a7.16,7.16,0,0,0-.41,3.14,4.67,4.67,0,0,0,2.06,3.18,7.76,7.76,0,0,0,6.18,1.21,4.32,4.32,0,0,0,2.95-2,5.38,5.38,0,0,0,.48-3.33A6.71,6.71,0,0,0,40.15,4,7,7,0,0,0,35.8,2.17a.77.77,0,0,0-.92.52.75.75,0,0,0,.53.92,6.46,6.46,0,0,1,3.31,1.12A4.55,4.55,0,0,1,40.09,7c.47,1.61.28,3.6-1.52,4.23a6.3,6.3,0,0,1-4.88-.39,4.06,4.06,0,0,1-1.87-1.7,3.83,3.83,0,0,1-.08-2.75,5.13,5.13,0,0,1,1-2.15,2,2,0,0,1,1.08-.69,4.66,4.66,0,0,1,1.62.09.77.77,0,0,0,.92-.52A.75.75,0,0,0,35.8,2.17Z" transform="translate(-1.23 -1.06)"/><path class="cls-4" d="M36.18,9.55a2,2,0,1,0-2-2,2,2,0,0,0,2,2Z" transform="translate(-1.23 -1.06)"/><g class="cls-3"><path class="cls-4" d="M8.67,33.85a4.15,4.15,0,0,1,2.31,0c1.68.66,2.18,2.84,2.32,3.48a4.55,4.55,0,0,1,0,2.65c-.66,1.9-2.67,2.61-3.44,2.89a6.12,6.12,0,0,1-3.51.25A4.22,4.22,0,0,1,4,42C2.52,40.23,3.19,36.57,5.19,35A7.18,7.18,0,0,1,8.67,33.85Z" transform="translate(-1.23 -1.06)"/></g><g class="cls-3"><path class="cls-4" d="M16.32,9.06c.51,0,.2,2.59,2.32,5.79s3.79,2.74,5.8,5.78A11.26,11.26,0,0,1,26.34,28c-.12,1-.57,4.7-3.05,5.41-1.9.54-4.39-.84-4.64-2.32-.22-1.31,1.45-2,1.41-3.58S18.41,25,17.49,24.11C12.93,19.94,15.3,9.13,16.32,9.06Z" transform="translate(-1.23 -1.06)"/></g><path class="cls-6" d="M18.43,5.29c.51,0,.2,2.59,2.32,5.79s3.79,2.74,5.79,5.78a11.19,11.19,0,0,1,1.91,7.33c-.12,1-.58,4.7-3.06,5.41-1.89.54-4.38-.84-4.63-2.31-.22-1.32,1.45-2,1.41-3.59s-1.65-2.52-2.57-3.36C15,16.17,17.41,5.36,18.43,5.29Z" transform="translate(-1.23 -1.06)"/><path class="cls-4" d="M18.43,6A.89.89,0,0,1,18,5.82s0-.21,0,0a2.79,2.79,0,0,0,.1.39c.09.39.16.79.26,1.18a13.28,13.28,0,0,0,1.42,3.47,11,11,0,0,0,2.55,3c.8.63,1.67,1.17,2.4,1.87a10.76,10.76,0,0,1,2.76,4.85,9.94,9.94,0,0,1-.16,5.62A4.6,4.6,0,0,1,26,28.4a2.72,2.72,0,0,1-2.83.32c-.67-.25-1.93-1-1.68-1.88a3.69,3.69,0,0,1,.64-1,4,4,0,0,0,.68-1.42c.51-2.39-1.74-3.48-3.09-4.95a8.89,8.89,0,0,1-2-4.84A19.32,19.32,0,0,1,18,8.72a14.11,14.11,0,0,1,.53-2.13A2.9,2.9,0,0,1,18.73,6c.1-.18.07-.08.05-.08.18,0-.29.1-.15.08.95-.13.55-1.57-.4-1.44s-1.35,2-1.53,2.78a21.37,21.37,0,0,0-.53,5.75,13.18,13.18,0,0,0,1.52,6,8.61,8.61,0,0,0,2,2.3c.8.65,1.95,1.53,1.64,2.71-.27,1-1.28,1.63-1.37,2.74a3.24,3.24,0,0,0,1.71,2.76,5,5,0,0,0,3.72.72,4.08,4.08,0,0,0,2.48-1.88,10.49,10.49,0,0,0,1.36-5.57,12.24,12.24,0,0,0-2-6.33,11.5,11.5,0,0,0-2.9-3,11.61,11.61,0,0,1-3.09-3.08,12.66,12.66,0,0,1-1.66-4.17c-.15-.71-.25-1.75-1.18-1.79S17.47,6,18.43,6Z" transform="translate(-1.23 -1.06)"/><path class="cls-5" d="M9.91,30.46a4.28,4.28,0,0,1,2.32,0c1.68.66,2.17,2.84,2.32,3.48a4.56,4.56,0,0,1,0,2.65c-.66,1.9-2.66,2.61-3.43,2.89a6.17,6.17,0,0,1-3.52.25,4.22,4.22,0,0,1-2.31-1.16c-1.52-1.72-.86-5.38,1.15-6.94A7.14,7.14,0,0,1,9.91,30.46Z" transform="translate(-1.23 -1.06)"/><path class="cls-4" d="M10.11,31.18a2.71,2.71,0,0,1,2.46.36,4.15,4.15,0,0,1,1.1,2A5.07,5.07,0,0,1,13.93,36a3.33,3.33,0,0,1-1.57,2A6.27,6.27,0,0,1,7.61,39,2.85,2.85,0,0,1,5.49,37.5a4,4,0,0,1-.23-2.27,5.12,5.12,0,0,1,1.29-2.71,6,6,0,0,1,3.56-1.34.75.75,0,0,0,.53-.92.78.78,0,0,0-.93-.53,7.42,7.42,0,0,0-4,1.54,6.12,6.12,0,0,0-1.75,3,6,6,0,0,0,0,3.39,4,4,0,0,0,2.5,2.53,7.7,7.7,0,0,0,6.32-.59,5.14,5.14,0,0,0,2.38-2.47,5.62,5.62,0,0,0,0-3.71,5.91,5.91,0,0,0-1.52-2.89A3.49,3.49,0,0,0,12,29.6a7.17,7.17,0,0,0-2.26.13.76.76,0,0,0-.52.93A.77.77,0,0,0,10.11,31.18Z" transform="translate(-1.23 -1.06)"/><g class="cls-3"><path class="cls-4" d="M26.93,33.42a6.08,6.08,0,0,0-2.1,4.17,2.56,2.56,0,0,0,.25,1.81,2.49,2.49,0,0,0,1.3.89A12.37,12.37,0,0,0,31,40.7c2.53-.11,5.06-.31,7.58-.62a7,7,0,0,0,3.17-.93,5.63,5.63,0,0,0,2-3.25c.38-1.35.41-3-.73-3.85a3.57,3.57,0,0,0-2.18-.5c-3.13-.08-5.51.11-5.64.12a33,33,0,0,0-5.43.68A6.71,6.71,0,0,0,26.93,33.42Z" transform="translate(-1.23 -1.06)"/></g><path class="cls-4" d="M9.34,37.12a2,2,0,1,0-2-2,2,2,0,0,0,2,2Z" transform="translate(-1.23 -1.06)"/><path class="cls-7" d="M29.22,30.69a6.08,6.08,0,0,0-2.1,4.17,2.61,2.61,0,0,0,.24,1.81,2.55,2.55,0,0,0,1.31.89,12.57,12.57,0,0,0,4.62.42c2.53-.12,5.06-.32,7.58-.63A6.88,6.88,0,0,0,44,36.42a5.61,5.61,0,0,0,2-3.25c.38-1.35.41-3.05-.73-3.85a3.57,3.57,0,0,0-2.18-.5c-3.13-.08-5.52.11-5.64.12a32.66,32.66,0,0,0-5.43.68A6.93,6.93,0,0,0,29.22,30.69Z" transform="translate(-1.23 -1.06)"/><path class="cls-4" d="M28.69,30.16a6.45,6.45,0,0,0-2.23,4,5.12,5.12,0,0,0,0,2.17,2.78,2.78,0,0,0,1.8,1.81c2.05.82,4.39.6,6.54.47,2.31-.13,4.64-.31,6.93-.65a5.54,5.54,0,0,0,4.54-3.16c.7-1.53,1.19-3.53.39-5.11-.89-1.77-3-1.67-4.69-1.68-1.44,0-2.89,0-4.33.13s-3.09.23-4.61.49A9.58,9.58,0,0,0,28.84,30c-.77.57,0,1.87.75,1.3a8.13,8.13,0,0,1,3.26-1.13,26.56,26.56,0,0,1,2.94-.38,46.14,46.14,0,0,1,8-.23,1.77,1.77,0,0,1,1.45.68,2.87,2.87,0,0,1,.26,2c-.25,1.55-1,3.26-2.55,3.87a10.38,10.38,0,0,1-2.54.49c-1,.11-2,.21-2.93.3a59.12,59.12,0,0,1-6,.3,7.27,7.27,0,0,1-2.95-.56c-.78-.39-.79-1.09-.68-1.87a5.36,5.36,0,0,1,1.88-3.61C30.5,30.62,29.43,29.56,28.69,30.16Z" transform="translate(-1.23 -1.06)"/><path class="cls-4" d="M30.54,32.41c-.09.08-1.5,1.31-1.15,2.32.26.76,1.41,1,2.31,1.15a11.5,11.5,0,0,0,3.32,0c1.91-.13,2.63-.17,4.07-.33a6.59,6.59,0,0,0,3-.8,3.05,3.05,0,0,0,1.16-1.16,2.32,2.32,0,0,0,0-2.32c-.44-.52-1.18-.44-3-.31-3.86.28-2.79,0-5.13.31C31.74,31.64,31.1,31.94,30.54,32.41Z" transform="translate(-1.23 -1.06)"/><path class="cls-4" d="M4.47,32.7h0s.11,0,0,0H4.07l-.13,0-.25-.07-.11,0,0,0-.05,0a.94.94,0,0,1-.22-.12l-.11-.07,0,0,0,0A1.62,1.62,0,0,1,3,32.17a.5.5,0,0,0-.71,0,.52.52,0,0,0,0,.71,2.64,2.64,0,0,0,2.41.78A.51.51,0,0,0,5.09,33a.52.52,0,0,0-.62-.34Z" transform="translate(-1.23 -1.06)"/><path class="cls-4" d="M1.73,35.12a16,16,0,0,0,2.4,0,.5.5,0,0,0,.5-.5.51.51,0,0,0-.5-.5,16,16,0,0,1-2.4,0,.5.5,0,0,0-.5.5.52.52,0,0,0,.5.5Z" transform="translate(-1.23 -1.06)"/><path class="cls-4" d="M39.35,3.31a2.12,2.12,0,0,0-.22-1.85.52.52,0,0,0-.3-.23.49.49,0,0,0-.39.05.51.51,0,0,0-.18.68,1.43,1.43,0,0,1,.15.27l0-.12a1.85,1.85,0,0,1,.11.42V2.4a2.17,2.17,0,0,1,0,.44l0-.13a1.32,1.32,0,0,1-.08.33.49.49,0,0,0,0,.39.53.53,0,0,0,.3.23.51.51,0,0,0,.38-.05.57.57,0,0,0,.23-.3Z" transform="translate(-1.23 -1.06)"/><path class="cls-4" d="M40.44,4.34a4.24,4.24,0,0,0,.69-1.92.5.5,0,0,0-.86-.35.57.57,0,0,0-.14.35.28.28,0,0,0,0,.09V2.38a3.84,3.84,0,0,1-.25.94l0-.12a3.88,3.88,0,0,1-.35.63.51.51,0,0,0,.18.69.51.51,0,0,0,.68-.18Z" transform="translate(-1.23 -1.06)"/></svg>