<svg id="Layer_1" data-name="Layer 1" xmlns="http://www.w3.org/2000/svg" viewBox="0 0 15.63 14.65"><defs><style>.cls-1{fill:#fff;}.cls-1,.cls-2,.cls-3{stroke:#000;stroke-miterlimit:10;stroke-width:0.25px;}.cls-3{fill:none;}.cls-4{fill:#7e7e7e;opacity:0.2;}</style></defs><path id="Path_15" data-name="Path 15" class="cls-1" d="M14,5.72c.54,1.54,1.13,4,.31,6-1.91,4.62-10.9,4.76-12.57,0a9,9,0,0,1,.31-6c.21-.36,2.3-3.79,6-3.79A7.33,7.33,0,0,1,14,5.72Z" transform="translate(-0.18 -0.68)"/><path id="Path_95" data-name="Path 95" class="cls-2" d="M.31,2.62A1.88,1.88,0,0,1,2.23.8,1.88,1.88,0,0,1,4.15,2.62,1.88,1.88,0,0,1,2.23,4.45,1.88,1.88,0,0,1,.31,2.62Z" transform="translate(-0.18 -0.68)"/><path id="Path_96" data-name="Path 96" class="cls-2" d="M11.85,2.62a1.92,1.92,0,0,1,3.84,0,1.92,1.92,0,0,1-3.84,0Z" transform="translate(-0.18 -0.68)"/><path id="Path_97" data-name="Path 97" class="cls-2" d="M.65,2.62A1.54,1.54,0,0,1,2.23,1.13,1.54,1.54,0,0,1,3.81,2.62a1.54,1.54,0,0,1-1.58,1.5A1.54,1.54,0,0,1,.65,2.62Z" transform="translate(-0.18 -0.68)"/><path id="Path_98" data-name="Path 98" class="cls-2" d="M12.19,2.62a1.58,1.58,0,0,1,3.16,0,1.58,1.58,0,0,1-3.16,0Z" transform="translate(-0.18 -0.68)"/><path id="Path_99" data-name="Path 99" class="cls-2" d="M1,2.62a1.24,1.24,0,0,1,1.27-1.2A1.24,1.24,0,0,1,3.5,2.62,1.24,1.24,0,0,1,2.23,3.83,1.24,1.24,0,0,1,1,2.62Z" transform="translate(-0.18 -0.68)"/><path id="Path_100" data-name="Path 100" class="cls-2" d="M12.5,2.62a1.27,1.27,0,0,1,2.54,0,1.27,1.27,0,0,1-2.54,0Z" transform="translate(-0.18 -0.68)"/><path id="Path_101" data-name="Path 101" class="cls-2" d="M1.23,2.62A1.07,1.07,0,0,1,2.1,1.41a1,1,0,0,1,1.13.94,1.07,1.07,0,0,1-.87,1.21H2.23A1,1,0,0,1,1.23,2.62Z" transform="translate(-0.18 -0.68)"/><path id="Path_102" data-name="Path 102" class="cls-2" d="M12.77,2.62a1.07,1.07,0,0,1,.87-1.21,1,1,0,0,1,1.13.94,1.07,1.07,0,0,1-.87,1.21h-.13A1,1,0,0,1,12.77,2.62Z" transform="translate(-0.18 -0.68)"/><path id="Path_103" data-name="Path 103" class="cls-2" d="M1.48,2.62a.79.79,0,0,1,.65-.91A.78.78,0,0,1,3,2.42a.8.8,0,0,1-.66.91h-.1A.72.72,0,0,1,1.48,2.62Z" transform="translate(-0.18 -0.68)"/><path id="Path_104" data-name="Path 104" class="cls-2" d="M13,2.62a.8.8,0,0,1,.66-.91.77.77,0,0,1,.85.71.79.79,0,0,1-.65.91h-.1A.74.74,0,0,1,13,2.62Z" transform="translate(-0.18 -0.68)"/><path id="Path_105" data-name="Path 105" class="cls-2" d="M1.68,2.62A.59.59,0,0,1,2.16,2a.57.57,0,0,1,.62.51.59.59,0,0,1-.48.67H2.23A.53.53,0,0,1,1.68,2.62Z" transform="translate(-0.18 -0.68)"/><path id="Path_106" data-name="Path 106" class="cls-2" d="M13.22,2.62A.59.59,0,0,1,13.7,2a.57.57,0,0,1,.62.51.59.59,0,0,1-.48.67h-.07A.53.53,0,0,1,13.22,2.62Z" transform="translate(-0.18 -0.68)"/><path id="Path_107" data-name="Path 107" class="cls-2" d="M1.86,2.62a.4.4,0,0,1,.32-.45.38.38,0,0,1,.42.35A.39.39,0,0,1,2.28,3h0A.37.37,0,0,1,1.86,2.62Z" transform="translate(-0.18 -0.68)"/><path id="Path_108" data-name="Path 108" class="cls-2" d="M13.4,2.62a.4.4,0,0,1,.32-.45.38.38,0,0,1,.42.35.39.39,0,0,1-.32.45h-.05A.37.37,0,0,1,13.4,2.62Z" transform="translate(-0.18 -0.68)"/><path id="Path_109" data-name="Path 109" class="cls-2" d="M2,2.62a.25.25,0,0,1,.2-.28.23.23,0,0,1,.26.22.24.24,0,0,1-.2.28h0A.22.22,0,0,1,2,2.62Z" transform="translate(-0.18 -0.68)"/><path id="Path_110" data-name="Path 110" class="cls-2" d="M13.54,2.62a.25.25,0,0,1,.2-.28.24.24,0,0,1,.26.22.24.24,0,0,1-.2.28h0A.22.22,0,0,1,13.54,2.62Z" transform="translate(-0.18 -0.68)"/><path id="Path_111" data-name="Path 111" class="cls-2" d="M2.11,2.62a.13.13,0,0,1,.11-.15.15.15,0,0,1,.14.12.14.14,0,0,1-.11.15h0A.12.12,0,0,1,2.11,2.62Z" transform="translate(-0.18 -0.68)"/><path id="Path_112" data-name="Path 112" class="cls-2" d="M13.64,2.62a.15.15,0,0,1,.11-.15.14.14,0,0,1,.14.12.13.13,0,0,1-.11.15h0A.12.12,0,0,1,13.64,2.62Z" transform="translate(-0.18 -0.68)"/><path id="Path_113" data-name="Path 113" class="cls-2" d="M2.18,2.62a.06.06,0,0,1,0-.06.05.05,0,0,1,0,0s0,.06,0,.06h0A.05.05,0,0,1,2.18,2.62Z" transform="translate(-0.18 -0.68)"/><path id="Path_114" data-name="Path 114" class="cls-2" d="M13.72,2.62a.07.07,0,0,1,0-.06.06.06,0,1,1,0,.11h0A0,0,0,0,1,13.72,2.62Z" transform="translate(-0.18 -0.68)"/><path id="Path_115" data-name="Path 115" class="cls-2" d="M2.22,2.62h0Z" transform="translate(-0.18 -0.68)"/><path id="Path_116" data-name="Path 116" class="cls-2" d="M13.76,2.62a0,0,0,0,1,0,0h0Z" transform="translate(-0.18 -0.68)"/><path id="Path_117" data-name="Path 117" class="cls-2" d="M.31,2.62A1.88,1.88,0,0,1,2.23.8,1.88,1.88,0,0,1,4.15,2.62,1.88,1.88,0,0,1,2.23,4.45,1.88,1.88,0,0,1,.31,2.62Z" transform="translate(-0.18 -0.68)"/><path id="Path_118" data-name="Path 118" class="cls-2" d="M11.85,2.62a1.92,1.92,0,0,1,3.84,0,1.92,1.92,0,0,1-3.84,0Z" transform="translate(-0.18 -0.68)"/><path id="Path_119" data-name="Path 119" class="cls-2" d="M.65,2.62A1.54,1.54,0,0,1,2.23,1.13,1.54,1.54,0,0,1,3.81,2.62a1.54,1.54,0,0,1-1.58,1.5A1.54,1.54,0,0,1,.65,2.62Z" transform="translate(-0.18 -0.68)"/><path id="Path_120" data-name="Path 120" class="cls-2" d="M12.19,2.62a1.58,1.58,0,0,1,3.16,0,1.58,1.58,0,0,1-3.16,0Z" transform="translate(-0.18 -0.68)"/><path id="Path_121" data-name="Path 121" class="cls-2" d="M1,2.62a1.24,1.24,0,0,1,1.27-1.2A1.24,1.24,0,0,1,3.5,2.62,1.24,1.24,0,0,1,2.23,3.83,1.24,1.24,0,0,1,1,2.62Z" transform="translate(-0.18 -0.68)"/><path id="Path_122" data-name="Path 122" class="cls-2" d="M12.5,2.62a1.27,1.27,0,0,1,2.54,0,1.27,1.27,0,0,1-2.54,0Z" transform="translate(-0.18 -0.68)"/><path id="Path_123" data-name="Path 123" class="cls-2" d="M1.23,2.62A1.07,1.07,0,0,1,2.1,1.41a1,1,0,0,1,1.13.94,1.07,1.07,0,0,1-.87,1.21H2.23A1,1,0,0,1,1.23,2.62Z" transform="translate(-0.18 -0.68)"/><path id="Path_124" data-name="Path 124" class="cls-2" d="M12.77,2.62a1.07,1.07,0,0,1,.87-1.21,1,1,0,0,1,1.13.94,1.07,1.07,0,0,1-.87,1.21h-.13A1,1,0,0,1,12.77,2.62Z" transform="translate(-0.18 -0.68)"/><path id="Path_125" data-name="Path 125" class="cls-2" d="M1.48,2.62a.79.79,0,0,1,.65-.91A.78.78,0,0,1,3,2.42a.8.8,0,0,1-.66.91h-.1A.72.72,0,0,1,1.48,2.62Z" transform="translate(-0.18 -0.68)"/><path id="Path_126" data-name="Path 126" class="cls-2" d="M13,2.62a.8.8,0,0,1,.66-.91.77.77,0,0,1,.85.71.79.79,0,0,1-.65.91h-.1A.74.74,0,0,1,13,2.62Z" transform="translate(-0.18 -0.68)"/><path id="Path_127" data-name="Path 127" class="cls-2" d="M1.68,2.62A.59.59,0,0,1,2.16,2a.57.57,0,0,1,.62.51.59.59,0,0,1-.48.67H2.23A.53.53,0,0,1,1.68,2.62Z" transform="translate(-0.18 -0.68)"/><path id="Path_128" data-name="Path 128" class="cls-2" d="M13.22,2.62A.59.59,0,0,1,13.7,2a.57.57,0,0,1,.62.51.59.59,0,0,1-.48.67h-.07A.53.53,0,0,1,13.22,2.62Z" transform="translate(-0.18 -0.68)"/><path id="Path_129" data-name="Path 129" class="cls-2" d="M1.86,2.62a.4.4,0,0,1,.32-.45.38.38,0,0,1,.42.35A.39.39,0,0,1,2.28,3h0A.37.37,0,0,1,1.86,2.62Z" transform="translate(-0.18 -0.68)"/><path id="Path_130" data-name="Path 130" class="cls-2" d="M13.4,2.62a.4.4,0,0,1,.32-.45.38.38,0,0,1,.42.35.39.39,0,0,1-.32.45h-.05A.37.37,0,0,1,13.4,2.62Z" transform="translate(-0.18 -0.68)"/><path id="Path_131" data-name="Path 131" class="cls-2" d="M2,2.62a.25.25,0,0,1,.2-.28.23.23,0,0,1,.26.22.24.24,0,0,1-.2.28h0A.22.22,0,0,1,2,2.62Z" transform="translate(-0.18 -0.68)"/><path id="Path_132" data-name="Path 132" class="cls-2" d="M13.54,2.62a.25.25,0,0,1,.2-.28.24.24,0,0,1,.26.22.24.24,0,0,1-.2.28h0A.22.22,0,0,1,13.54,2.62Z" transform="translate(-0.18 -0.68)"/><path id="Path_133" data-name="Path 133" class="cls-2" d="M2.11,2.62a.13.13,0,0,1,.11-.15.15.15,0,0,1,.14.12.14.14,0,0,1-.11.15h0A.12.12,0,0,1,2.11,2.62Z" transform="translate(-0.18 -0.68)"/><path id="Path_134" data-name="Path 134" class="cls-2" d="M13.64,2.62a.15.15,0,0,1,.11-.15.14.14,0,0,1,.14.12.13.13,0,0,1-.11.15h0A.12.12,0,0,1,13.64,2.62Z" transform="translate(-0.18 -0.68)"/><path id="Path_135" data-name="Path 135" class="cls-2" d="M2.18,2.62a.06.06,0,0,1,0-.06.05.05,0,0,1,0,0s0,.06,0,.06h0A.05.05,0,0,1,2.18,2.62Z" transform="translate(-0.18 -0.68)"/><path id="Path_136" data-name="Path 136" class="cls-2" d="M13.72,2.62a.07.07,0,0,1,0-.06.06.06,0,1,1,0,.11h0A0,0,0,0,1,13.72,2.62Z" transform="translate(-0.18 -0.68)"/><path id="Path_137" data-name="Path 137" class="cls-2" d="M2.22,2.62h0Z" transform="translate(-0.18 -0.68)"/><path id="Path_138" data-name="Path 138" class="cls-2" d="M13.76,2.62a0,0,0,0,1,0,0h0Z" transform="translate(-0.18 -0.68)"/><path id="Path_139" data-name="Path 139" class="cls-2" d="M2.23,4.45C2.23-1.56,8,2,8,2" transform="translate(-0.18 -0.68)"/><path id="Path_140" data-name="Path 140" class="cls-2" d="M13.77,4.45C13.77-1.56,8,2,8,2" transform="translate(-0.18 -0.68)"/><path id="Path_141" data-name="Path 141" class="cls-2" d="M2.23,4.52C2.23-1.53,8,2,8,2" transform="translate(-0.18 -0.68)"/><path id="Path_142" data-name="Path 142" class="cls-2" d="M13.77,4.52C13.77-1.53,8,2,8,2" transform="translate(-0.18 -0.68)"/><path id="Path_143" data-name="Path 143" class="cls-2" d="M2.23,4.58C2.23-1.43,8,2,8,2" transform="translate(-0.18 -0.68)"/><path id="Path_144" data-name="Path 144" class="cls-2" d="M13.77,4.58C13.77-1.43,8,2.05,8,2" transform="translate(-0.18 -0.68)"/><path id="Path_145" data-name="Path 145" class="cls-2" d="M2.23,4.65C2.23-1.27,8,2,8,2" transform="translate(-0.18 -0.68)"/><path id="Path_146" data-name="Path 146" class="cls-2" d="M13.77,4.65C13.77-1.27,8,2,8,2" transform="translate(-0.18 -0.68)"/><path id="Path_147" data-name="Path 147" class="cls-2" d="M2.23,4.72C2.23-1,8,2,8,2" transform="translate(-0.18 -0.68)"/><path id="Path_148" data-name="Path 148" class="cls-2" d="M13.77,4.72C13.77-1,8,2,8,2" transform="translate(-0.18 -0.68)"/><path id="Path_149" data-name="Path 149" class="cls-2" d="M2.23,4.79C2.23-.77,8,2,8,2" transform="translate(-0.18 -0.68)"/><path id="Path_150" data-name="Path 150" class="cls-2" d="M13.77,4.79C13.77-.77,8,2,8,2" transform="translate(-0.18 -0.68)"/><path id="Path_151" data-name="Path 151" class="cls-2" d="M2.23,4.86C2.23-.42,8,2,8,2" transform="translate(-0.18 -0.68)"/><path id="Path_152" data-name="Path 152" class="cls-2" d="M13.77,4.86C13.77-.42,8,2,8,2" transform="translate(-0.18 -0.68)"/><path id="Path_153" data-name="Path 153" class="cls-2" d="M2.23,4.92C2.23,0,8,2,8,2" transform="translate(-0.18 -0.68)"/><path id="Path_154" data-name="Path 154" class="cls-2" d="M13.77,4.92C13.77,0,8,2,8,2" transform="translate(-0.18 -0.68)"/><path id="Path_155" data-name="Path 155" class="cls-2" d="M2.23,5C2.23.47,8,2,8,2" transform="translate(-0.18 -0.68)"/><path id="Path_156" data-name="Path 156" class="cls-2" d="M13.77,5C13.77.47,8,2,8,2" transform="translate(-0.18 -0.68)"/><path id="Path_157" data-name="Path 157" class="cls-2" d="M2.23,5.06C2.23,1,8,2,8,2" transform="translate(-0.18 -0.68)"/><path id="Path_158" data-name="Path 158" class="cls-2" d="M13.77,5.06C13.77,1,8,2,8,2" transform="translate(-0.18 -0.68)"/><path id="Path_159" data-name="Path 159" class="cls-2" d="M2.23,5.13C2.23,1.61,8,2,8,2" transform="translate(-0.18 -0.68)"/><path id="Path_160" data-name="Path 160" class="cls-2" d="M13.77,5.13C13.77,1.61,8,2,8,2" transform="translate(-0.18 -0.68)"/><path id="Path_161" data-name="Path 161" class="cls-2" d="M2.23,5.2C2.23,2.28,8,2,8,2" transform="translate(-0.18 -0.68)"/><path id="Path_162" data-name="Path 162" class="cls-2" d="M13.77,5.2C13.77,2.28,8,2,8,2" transform="translate(-0.18 -0.68)"/><path id="Path_163" data-name="Path 163" class="cls-2" d="M2.23,5.26C2.23,3,8,2,8,2" transform="translate(-0.18 -0.68)"/><path id="Path_164" data-name="Path 164" class="cls-2" d="M13.77,5.26C13.77,3,8,2,8,2" transform="translate(-0.18 -0.68)"/><path id="Path_165" data-name="Path 165" class="cls-2" d="M2.23,5.33C2.23,3.8,8,2.05,8,2" transform="translate(-0.18 -0.68)"/><path id="Path_166" data-name="Path 166" class="cls-2" d="M13.77,5.33C13.77,3.8,8,2.05,8,2" transform="translate(-0.18 -0.68)"/><path id="Path_167" data-name="Path 167" class="cls-2" d="M2.23,5.4C2.23,4.66,8,2,8,2" transform="translate(-0.18 -0.68)"/><path id="Path_168" data-name="Path 168" class="cls-2" d="M13.77,5.4C13.77,4.66,8,2,8,2" transform="translate(-0.18 -0.68)"/><path id="Path_169" data-name="Path 169" class="cls-2" d="M2.23,5.47C2.23,5.57,8,2,8,2" transform="translate(-0.18 -0.68)"/><path id="Path_170" data-name="Path 170" class="cls-2" d="M13.77,5.47C13.77,5.57,8,2,8,2" transform="translate(-0.18 -0.68)"/><path id="Path_171" data-name="Path 171" class="cls-2" d="M2.23,5.54C2.23,6.56,8,2,8,2" transform="translate(-0.18 -0.68)"/><path id="Path_172" data-name="Path 172" class="cls-2" d="M13.77,5.54C13.77,6.56,8,2,8,2" transform="translate(-0.18 -0.68)"/><path id="Path_16-2" data-name="Path 16-2" class="cls-3" d="M6.63,10.63c-.77.91,3.51.91,2.74,0" transform="translate(-0.18 -0.68)"/><path id="Path_20" data-name="Path 20" class="cls-1" d="M3.55,7.57c0-.34.54-.61,1.22-.61S6,7.23,6,7.57s-.54.61-1.21.61S3.55,7.91,3.55,7.57Z" transform="translate(-0.18 -0.68)"/><path id="Path_21" data-name="Path 21" class="cls-1" d="M10,7.57c0-.34.54-.61,1.21-.61s1.22.27,1.22.61-.54.61-1.22.61S10,7.91,10,7.57Z" transform="translate(-0.18 -0.68)"/><path id="Path_22" data-name="Path 22" class="cls-2" d="M4.31,7.57a.47.47,0,0,1,.46-.46.46.46,0,0,1,.46.46A.45.45,0,0,1,4.78,8h0a.46.46,0,0,1-.46-.46Z" transform="translate(-0.18 -0.68)"/><path id="Path_23" data-name="Path 23" class="cls-2" d="M10.78,7.57a.46.46,0,0,1,.92,0,.46.46,0,0,1-.46.46h0a.46.46,0,0,1-.46-.46Z" transform="translate(-0.18 -0.68)"/><circle class="cls-4" cx="3.44" cy="9.95" r="1.63"/><circle class="cls-4" cx="12.19" cy="9.95" r="1.63"/><path id="Path_25" data-name="Path 25" class="cls-3" d="M7.31,8.87C7.14,8,8.86,8,8.69,8.87" transform="translate(-0.18 -0.68)"/><circle class="cls-3" cx="4.45" cy="6.82" r="2"/><circle class="cls-3" cx="11.19" cy="6.82" r="2"/><path class="cls-3" d="M9.5,7.57c0-.55-.68-1-1.5-1s-1.5.45-1.5,1" transform="translate(-0.18 -0.68)"/></svg>