<?xml version="1.0" encoding="utf-8"?>
<!-- Generator: Adobe Illustrator 25.4.1, SVG Export Plug-In . SVG Version: 6.00 Build 0)  -->
<svg version="1.1" id="Layer_1" xmlns="http://www.w3.org/2000/svg" xmlns:xlink="http://www.w3.org/1999/xlink" x="0px" y="0px"
	 viewBox="0 0 96 101.9" style="enable-background:new 0 0 96 101.9;" xml:space="preserve">
<path d="M47.9,34.8l-0.3,0.1L47,35.1l0,0.1l0.1,0.4c0,0,0.1,0,0.2,0l0,0l0.1,0l0.4-0.1c0,0,0.1,0,0.1,0c0,0,0.1,0,0.1,0l-0.1-0.3
	L47.9,34.8z"/>
<path d="M57,41.8c-0.2,0-0.4,0.1-0.6,0.1c-0.2,0-0.4,0.1-0.5,0.1c0,0,0,0,0,0c-0.4,0.1-0.8,0.2-1.2,0.3c-0.6,0.2-1.1,0.3-1.7,0.5
	c-0.2,0.1-0.3,0.1-0.5,0.2c-0.3,0.1-0.6,0.2-0.9,0.3c-0.1,0-0.2,0.1-0.4,0.1c-0.4,0.1-0.9,0.3-1.2,0.4c0,0-0.1,0-0.1,0
	c0,0-0.1,0-0.1,0c-0.4,0.1-0.8,0.3-1.2,0.6c-0.4,0.3-0.8,0.7-1.2,1.1c-0.1,0.1-0.2,0.2-0.3,0.3c0,0.1-0.1,0.1-0.1,0.2
	c-0.1,0.2-0.3,0.3-0.4,0.5c0,0,0,0,0,0c-0.1,0.2-0.2,0.3-0.3,0.5c-0.1,0.2-0.2,0.3-0.4,0.5c-0.1,0.1-0.1,0.2-0.2,0.3
	c-0.2,0.3-0.4,0.6-0.6,1c-0.1,0.2-0.2,0.3-0.3,0.5c-0.1,0.2-0.2,0.3-0.3,0.5c0,0.1-0.1,0.2-0.1,0.3c-0.1,0.1-0.1,0.2-0.2,0.3
	c-0.1,0.1-0.1,0.3-0.2,0.4c0,0,0,0.1-0.1,0.1c-0.1,0.2-0.2,0.4-0.3,0.6c-0.6,1.2-1,2.3-1.3,3c-0.2,0.6-0.3,0.9-0.3,0.9
	c-0.1,0.2-0.2,0.3-0.4,0.4l-4,0.9l4.1,19l1.8-0.2l3.5-0.4c0.2,0,0.3,0,0.4,0.1c4.3,3.4,12.8-0.2,18.5-2.6c1.5-0.6,2.7-1.1,3.7-1.4
	c0.9-0.3,1.4-0.7,1.5-1.3c0.3-1.1-1-2.8-1.8-3.6c-0.1-0.1-0.2-0.2-0.3-0.3l0.4-0.4l0,0l-1.7,0.7l0,0l-0.1-0.5c0.1,0,0.1,0,0.2-0.1
	c1.1-0.3,1.9-0.8,2.3-1.5c0.4-0.6,0.5-1.5,0.3-2.3c-0.2-1.2-1.3-2.1-1.8-2.5c0,0-0.1-0.1-0.1-0.1l0,0.2c-0.4,0.3-0.9,0.7-1.4,1
	l-0.3-0.5l-0.3-0.5c0.1-0.1,0.2-0.1,0.3-0.2c1.3-0.8,2-1.6,2.1-2.6c0.1-1.4-1-2.8-1.7-3.4c0,0,0,0-0.1-0.1l0,0.1
	c-0.6,0.6-1.2,1.1-1.6,1.3l-0.4-0.5L65,53.7c1.9-1.5,3.8-3.5,3.6-4.3c-0.5-2.2-1.3-2.6-1.7-2.6L60,48.3l-0.2,0
	c-1.5,1.2-2.8,2.1-2.9,2.1L56.6,50l-0.3-0.5c0,0,1.2-0.8,2.7-1.9c0.4-0.3,0.7-0.6,1.1-0.9c0,0,0,0,0,0c0.2-0.1,0.3-0.3,0.5-0.4
	c1.4-1.3,2.7-2.9,3.1-4.3c0.1-0.4,0-0.5-0.1-0.6c-0.6-0.5-2.3-0.4-4.4,0.1c-0.1,0-0.1,0-0.2,0c-0.1,0-0.3,0.1-0.4,0.1
	c-0.1,0-0.1,0-0.2,0c-0.1,0-0.3,0.1-0.4,0.1c-0.1,0-0.1,0-0.2,0C57.5,41.7,57.3,41.8,57,41.8C57,41.8,57,41.8,57,41.8z"/>
<rect x="35.3" y="52.5" transform="matrix(0.9775 -0.2108 0.2108 0.9775 -13.1859 9.2899)" width="3.3" height="28.1"/>
<path d="M43.7,49.2l-0.2-0.7l-0.5-1L28,32l0.4-0.4c0.7-0.7,0.7-1.7,0-2.4l-0.4-0.4l3.5-3.4l-0.5-1L25,30.4l18.5,19.1
	C43.5,49.4,43.6,49.3,43.7,49.2z"/>
<path d="M49.1,33.3l0.4-0.1l-0.1-0.3c0-0.1,0-0.1,0-0.1c0,0,0,0,0,0c0,0,0,0,0,0c-0.1,0-0.2,0-0.3,0l-0.1,0l-0.1,0
	c-0.1,0-0.1,0-0.1,0c0,0-0.1,0-0.1,0c0,0.1,0,0.1,0,0.2l0.1,0.3l0.2,0L49.1,33.3z"/>
<path d="M46.1,45.4C46.1,45.4,46.1,45.4,46.1,45.4c0.2-0.2,0.3-0.3,0.4-0.5c0.1-0.1,0.3-0.3,0.4-0.4c0.1-0.1,0.3-0.3,0.4-0.4
	c0.7-0.6,1.5-1.1,2.3-1.3c0.4-0.1,0.9-0.3,1.4-0.4c0.1,0,0.2-0.1,0.3-0.1c0.1,0,0.2-0.1,0.3-0.1c0.2-0.1,0.4-0.1,0.6-0.2
	c0.1,0,0.3-0.1,0.4-0.1c0.3-0.1,0.6-0.2,0.8-0.3c0.2-0.1,0.4-0.1,0.6-0.2c0.5-0.2,1-0.3,1.5-0.4l-0.1-0.3l-0.3-1.2L55,39.3l-0.3-1
	l-0.2-0.6l-1.5-5.1l-0.8-2.9l-0.8-2.9l-1.1-4c-0.3,0-0.7,0-1-0.1c-0.3-0.1-0.6-0.2-0.9-0.4c-0.4-0.3-0.7-0.6-0.9-1l-0.2,0.1l-1,0.3
	l-0.6,0.2L45.2,22L42,22.9c0,0.6-0.1,1.2-0.5,1.8c-0.1,0.2-0.2,0.3-0.4,0.5c-0.1,0.1-0.3,0.3-0.5,0.4c-0.1,0.1-0.2,0.1-0.2,0.2
	l0.4,1.6l0.3,1.2l0.1,0.4l0.2,0.6l0,0.2l0.2,0.6l0.4,1.3l0,0.1l0,0.1l0.2,0.7l0,0.1l0,0l0.2,0.5l0.1,0.4l0.1,0.2l0.1,0.5l0.1,0.2
	l0.1,0.3l0,0.1l0.1,0.3l0.1,0.4l0.1,0.3l0.2,0.7l0.1,0.4l0.3,0.9l0.2,0.8l1.4,4.9l0.2,0.6l0.2,0.6L46.1,45.4z M44.8,37
	c-0.1-0.2-0.2-0.3-0.4-0.5c0-0.1-0.1-0.1-0.1-0.2c-0.1-0.1-0.1-0.3-0.2-0.4c-0.1-0.2-0.1-0.3-0.2-0.5c0,0,0-0.1,0-0.1
	c0-0.2-0.1-0.3-0.1-0.5c0-0.2,0-0.4,0-0.6c0-0.1,0-0.3,0-0.4c0-0.1,0-0.1,0-0.2c0-0.2,0.1-0.4,0.1-0.6c0,0,0,0,0,0
	c0.1-0.2,0.1-0.4,0.2-0.6c0,0,0-0.1,0-0.1s0-0.1,0-0.1c0-0.1,0.1-0.1,0.1-0.2c0-0.1,0.1-0.2,0.1-0.2c0,0,0,0,0,0
	c0.1-0.2,0.2-0.3,0.3-0.5c0,0,0,0,0,0c0,0,0,0,0,0c0.2-0.2,0.4-0.4,0.6-0.6c0,0,0,0,0.1-0.1c0.1-0.1,0.3-0.2,0.4-0.3
	c0,0,0.1,0,0.1-0.1c0.1-0.1,0.3-0.1,0.4-0.2c0,0,0.1,0,0.1,0c0.1,0,0.2-0.1,0.4-0.1c0,0,0,0,0,0c0.2-0.1,0.4-0.1,0.6-0.1
	c0.2,0,0.4,0,0.6,0c0,0,0.1,0,0.1,0c0.3,0,0.5,0,0.8,0.1c0.3,0.1,0.5,0.1,0.8,0.2c0.3,0.1,0.6,0.3,0.9,0.5c0.8,0.6,1.4,1.4,1.7,2.4
	c0.1,0.4,0.1,0.8,0.2,1.2c0,0.4,0,0.7-0.1,1.1c-0.1,0.2-0.1,0.5-0.2,0.7c0,0,0,0,0,0c-0.1,0.1-0.1,0.3-0.2,0.4c0,0,0,0.1-0.1,0.1
	c-0.1,0.2-0.2,0.3-0.3,0.5c-0.2,0.3-0.5,0.5-0.7,0.8c-0.2,0.1-0.3,0.2-0.5,0.3c-0.2,0.1-0.4,0.2-0.6,0.3c-0.2,0.1-0.3,0.1-0.5,0.2
	c-0.4,0.1-0.8,0.2-1.2,0.2C46.9,38.6,45.6,38,44.8,37z"/>
<path d="M38.1,38.2l-1-1.9C37.3,37,37.6,37.6,38.1,38.2C38.1,38.1,38.1,38.1,38.1,38.2z"/>
<path d="M49.1,37.3C49.1,37.3,49.1,37.3,49.1,37.3c0.3-0.1,0.4-0.1,0.6-0.2c0.2-0.1,0.4-0.2,0.5-0.3c0.3-0.2,0.5-0.5,0.7-0.8
	c0.1-0.1,0.2-0.2,0.2-0.3c0-0.1,0.1-0.1,0.1-0.2c0.1-0.2,0.2-0.4,0.2-0.6c0-0.2,0.1-0.4,0.1-0.6c0-0.4,0-0.7-0.1-1.1
	c-0.2-0.8-0.8-1.5-1.4-1.9c-0.3-0.2-0.7-0.4-1.1-0.4c-0.2,0-0.4-0.1-0.6-0.1c0,0,0,0,0,0c-0.2,0-0.4,0-0.6,0.1c0,0-0.1,0-0.1,0
	c-0.1,0-0.2,0-0.2,0c0,0,0,0,0,0c-0.1,0-0.2,0.1-0.3,0.1c0,0-0.1,0-0.1,0c-0.1,0.1-0.3,0.1-0.4,0.2c0,0-0.1,0.1-0.1,0.1
	c-0.1,0.1-0.2,0.2-0.4,0.3c-0.2,0.1-0.3,0.3-0.4,0.4c0,0,0,0,0,0c0,0-0.1,0.1-0.1,0.1c0,0.1-0.1,0.1-0.1,0.2c0,0.1-0.1,0.1-0.1,0.2
	c-0.1,0.2-0.1,0.3-0.2,0.5c0,0,0,0.1,0,0.1c0,0.1,0,0.2-0.1,0.3c-0.1,0.3-0.1,0.5-0.1,0.8c0,0.2,0,0.5,0.1,0.8
	c0,0.1,0.1,0.1,0.1,0.2c0.1,0.2,0.2,0.4,0.3,0.5c0.1,0.2,0.2,0.4,0.4,0.5c0.6,0.7,1.5,1.1,2.5,1.1C48.5,37.4,48.8,37.4,49.1,37.3z
	 M48.1,36.4l-0.6,0.2c-0.1,0-0.3,0.1-0.5,0.1c-0.2,0-0.4,0-0.6-0.1c-0.2-0.1-0.3-0.2-0.4-0.4C46,36.1,46,36,46,35.8l-0.1-0.2
	l-0.1-0.2l-0.3,0.1l-0.1-0.3l-0.1-0.2l-0.2-0.6l0.3-0.1l-0.1-0.4l-0.2-0.5l0,0l0.5-0.1l0.1,0l0.1,0l0.5-0.1l0.1,0.4l0.1,0.5l0.6-0.2
	l0,0l0,0l0.2-0.1l-0.1-0.2l0-0.1c-0.1-0.2-0.1-0.5-0.1-0.7c0-0.1,0-0.2,0.1-0.3c0-0.1,0.1-0.1,0.1-0.2c0,0,0,0,0,0c0,0,0,0,0,0
	c0.1-0.1,0.1-0.1,0.2-0.2c0,0,0,0,0,0c0.1,0,0.1-0.1,0.2-0.1c0.1-0.1,0.2-0.1,0.4-0.2c0,0,0,0,0.1,0c0,0,0,0,0,0l0.3-0.1
	c0.1,0,0.2,0,0.3,0c0.1,0,0.2,0,0.3,0c0.2,0,0.3,0,0.5,0.1c0.2,0.1,0.3,0.2,0.5,0.4c0.1,0.2,0.2,0.3,0.3,0.6l0.1,0.3l0.1,0l0.2,0
	l0.2,0.6l0.1,0.3l0.1,0.3L51,34l0.2,0.6l0.1,0.4l-0.4,0.1l-0.2,0l-0.5,0.1l-0.1,0l0-0.1L50,34.9l-0.2-0.6l-0.5,0.1L49,34.5l-0.1,0
	l0.1,0.4c0.1,0.3,0.1,0.5,0,0.7c-0.1,0.2-0.2,0.3-0.3,0.5C48.6,36.3,48.4,36.4,48.1,36.4C48.2,36.4,48.2,36.4,48.1,36.4z"/>
<path d="M36.6,24.4l-0.2-0.6l-0.1-0.4c0,0.2-0.1,0.3-0.1,0.5c0,0,0,0.1,0,0.1c-0.1,0.3-0.2,0.5-0.4,0.7c-0.1,0.2-0.3,0.4-0.5,0.5
	l0,0.1l3.3,6.4l0.1,0.2l-0.1-0.2L36.8,25L36.6,24.4z"/>
<path d="M44.7,19.9l-2.1,0.6l-4.1,1.2l-0.6,0.2L37.3,22l-0.2,0l0.5,1.8L38,25l0.3,1.2l1.5,5.1l0.2,0.6l0.1,0.4l0.1,0.2l0.1,0.5
	l0.2,0.6l0.1,0.5l0,0.1l0.2,0.5l0.2,0.6l0,0.1l0.1,0.3l0.1,0.2l0.3,1.2l0.2,0.5l0.3,1l0.2,0.6l0.2,0.6l0,0.1l0.8,2.9l1,3.7l0.2,0.6
	l0.2,0.6c0.2-0.3,0.4-0.6,0.5-0.8c0.1-0.1,0.1-0.2,0.2-0.3l-0.1-0.3l-0.5-1.6l-0.2-0.6l-0.6-2.2l-0.7-2.6L43,38.7l-0.2-0.6l-0.7-2.3
	l0-0.1L42,35.2l0-0.1l-0.1-0.4l-0.1-0.3l-0.1-0.5l-0.1-0.2L41.4,33l-0.1-0.4L41.1,32l-0.2-0.6L40.8,31L40.5,30l-0.6-2.2l-0.3-1.2
	l-0.3-1.2l-0.1-0.5l0.6-0.2c0.1,0,0.2-0.1,0.3-0.1c0.2-0.1,0.3-0.2,0.5-0.4c0.1-0.1,0.3-0.3,0.3-0.5c0.2-0.3,0.2-0.7,0.1-1.1
	l-0.2-0.6l4-1.1l0.6-0.2l0.6-0.2l1-0.3l0.6-0.2L48,20l0.4-0.1l0.2,0.6c0.3,0.9,1.2,1.4,2.1,1.2l0.6-0.2l3,10.7L55,35l0.8,2.9
	l0.6,2.2l0.2,0.6c0.1,0,0.2-0.1,0.3-0.1c0.1,0,0.2,0,0.3-0.1c0.1,0,0.3-0.1,0.4-0.1l-0.2-0.7l-0.8-2.9L51.3,18l-3.8,1.1l-0.6,0.2
	l-0.6,0.2l-1,0.3L44.7,19.9z"/>
<path d="M41,43.8l-1.9-3.7c-0.7-0.2-1.4-0.6-1.9-1.2c-0.8-0.9-1.3-2-1.3-3.2c0-0.5,0.1-0.9,0.2-1.3l-4.1-7.9l-2.4,2.4
	c0.6,1,0.6,2.2-0.1,3.1L41,43.8z"/>
<polygon points="41.4,19.6 41.4,19.6 41.4,19.6 "/>
<path d="M31.7,23.1l0.3,0.5l0.5,1l0.3,0.5l0.3,0.5l3.9,7.5l0.3,0.6l0.3,0.6l0.7,1.4l0.2,0.3l0.3,0.6l0.3,0.5l0,0.1l0.2,0.5l0.5,0.9
	l0.2,0.4l0.3,0.6l0.3,0.6l1.3,2.4l-0.7-2.5l-0.2-0.6l-0.2-0.6l-0.1-0.5L40.5,38l-0.1-0.4l-0.1-0.2L40,37l-0.3-0.5l-0.3-0.5l0,0
	l-1.3-2.5l-0.3-0.5l-0.3-0.5l-3.8-7.4l-0.1-0.1l0.5-0.3c0,0,0.1-0.1,0.1-0.1c0.2-0.1,0.3-0.3,0.5-0.4c0.1-0.1,0.2-0.3,0.3-0.5
	c0.1-0.4,0.1-0.9-0.1-1.3l-0.3-0.5l1.5-0.8l0.5-0.3l0.5-0.3l4.5-2.3l0.3,0.5c0.1,0.3,0.4,0.5,0.6,0.7l3-0.9l-1.4-2.8l-7.7,4L36,19.8
	L33.8,21L32,21.9l-0.7,0.4l0.1,0.2L31.7,23.1z"/>
<circle cx="28.2" cy="88.5" r="2.4"/>
<polygon points="6.4,34.1 8.5,33 10.7,34.1 10.2,31.7 12,30.1 9.6,29.7 8.5,27.5 7.4,29.7 5,30.1 6.8,31.7 "/>
<polygon points="26.8,11.3 28.3,10.5 29.8,11.3 29.5,9.6 30.8,8.3 29.1,8.1 28.3,6.5 27.5,8.1 25.8,8.3 27,9.6 "/>
<polygon points="84.6,68 85.8,69.2 85.6,70.9 87.1,70.1 88.6,70.9 88.3,69.2 89.6,68 87.9,67.7 87.1,66.2 86.3,67.7 "/>
<polygon points="87.1,13.7 86.1,16.8 82.9,16.8 85.5,18.7 84.5,21.7 87.1,19.8 89.7,21.7 88.7,18.7 91.3,16.8 88.1,16.8 "/>
<circle cx="79.1" cy="7.5" r="2.4"/>
<circle cx="88.6" cy="49" r="1.9"/>
<circle cx="15" cy="17.2" r="2.5"/>
<path d="M23.1,88.1c-0.3-0.1-0.6-0.1-1-0.2L22,88.6c0.3,0.1,0.7,0.2,1,0.2L23.1,88.1z"/>
<path d="M6.5,68.9c0,0.3,0,0.7,0,1l0.7,0c0-0.3,0-0.6,0-0.9c0-0.3,0-0.7,0-1l-0.7,0C6.5,68.2,6.5,68.5,6.5,68.9z"/>
<path d="M7.9,73.6c-0.2-0.6-0.3-1.3-0.4-1.9l-0.7,0.1c0.1,0.7,0.2,1.3,0.4,2L7.9,73.6z"/>
<path d="M9.4,79.3c0.3,0.6,0.7,1.1,1.1,1.7l0.6-0.4c-0.4-0.5-0.7-1.1-1.1-1.6L9.4,79.3z"/>
<path d="M20.3,87.3c-0.6-0.2-1.2-0.5-1.8-0.7l-0.3,0.7c0.6,0.3,1.2,0.5,1.9,0.8L20.3,87.3z"/>
<path d="M9.2,77.2c-0.3-0.6-0.5-1.2-0.7-1.8l-0.7,0.3c0.2,0.6,0.5,1.2,0.8,1.8L9.2,77.2z"/>
<path d="M16.8,85.7c-0.5-0.3-1.1-0.7-1.6-1.1l-0.4,0.6c0.5,0.4,1.1,0.8,1.7,1.1L16.8,85.7z"/>
<path d="M13.2,83.9l0.5-0.6c-0.5-0.4-0.9-0.9-1.4-1.4l-0.6,0.5C12.2,83,12.7,83.5,13.2,83.9z"/>
<path d="M7.7,65l-0.7-0.1c-0.1,0.3-0.1,0.7-0.2,1l0.7,0.1C7.5,65.6,7.6,65.3,7.7,65z"/>
<path d="M89.9,76l-0.8,0c0,0.3,0,0.7-0.1,1l0.7,0.1C89.8,76.7,89.9,76.4,89.9,76z"/>
<path d="M80.5,88.3c-0.7,0.3-1.3,0.5-2,0.6l0.2,0.7c0.7-0.2,1.5-0.4,2.2-0.6L80.5,88.3z"/>
<path d="M82.4,87.3l0.4,0.6c0.6-0.4,1.3-0.8,1.8-1.3l-0.5-0.6C83.6,86.6,83.1,87,82.4,87.3z"/>
<path d="M85.7,84.6l0.6,0.5c0.5-0.6,1-1.2,1.4-1.8L87,83C86.6,83.5,86.2,84.1,85.7,84.6z"/>
<path d="M88,81.1l0.7,0.3c0.3-0.7,0.5-1.4,0.7-2.1l-0.7-0.2C88.5,79.8,88.3,80.4,88,81.1z"/>
<path d="M76.4,89.9l0-0.7c-0.3,0-0.6,0-1,0l0,0.8c0.1,0,0.2,0,0.3,0C75.9,89.9,76.2,89.9,76.4,89.9z"/>
<rect x="88.2" y="40.4" width="0.8" height="2"/>
<rect x="88.2" y="36.4" width="0.8" height="2"/>
<rect x="88.2" y="28.4" width="0.8" height="2"/>
<rect x="88.2" y="32.4" width="0.8" height="2"/>
</svg>
