<svg id="Layer_1" data-name="Layer 1" xmlns="http://www.w3.org/2000/svg" xmlns:xlink="http://www.w3.org/1999/xlink" viewBox="0 0 1985.25 1427.13"><defs><style>.cls-1,.cls-131,.cls-134,.cls-49{fill:none;}.cls-2{fill:#fefefe;}.cls-3{fill:#aaa;}.cls-4{fill:#8888e5;}.cls-5{fill:#4845ce;}.cls-6{fill:#bfbfbf;}.cls-7{fill:#999;}.cls-8{fill:#2727a8;}.cls-9{fill:#19199e;}.cls-10{fill:#121212;}.cls-11{fill:#e8e8e8;}.cls-12{fill:#686868;}.cls-13{fill:#ede7d1;}.cls-14{fill:#08087c;}.cls-15{fill:#a8a8a8;}.cls-16{fill:#da5b40;}.cls-17{fill:#c13e29;}.cls-18{fill:#a52517;}.cls-19{fill:#aa2618;}.cls-20{fill:#f2f1df;}.cls-21{fill:#d1cfc3;}.cls-22,.cls-52{fill:#141414;}.cls-23{fill:#dadddd;}.cls-24{fill:#d1ae19;}.cls-25{fill:#b29518;}.cls-26{fill:#f4cf13;}.cls-27{fill:#216869;}.cls-28{fill:#c6c6c6;}.cls-29{fill:#645e9d;}.cls-30{fill:#232323;}.cls-31{fill:#070707;}.cls-32{fill:#e2bb17;}.cls-33{fill:#b34b36;}.cls-34{fill:#f7f7f7;}.cls-35{fill:#50723c;}.cls-36{fill:#cbd6d5;}.cls-37{fill:#f79e9a;opacity:0.5;}.cls-38{fill:#efefef;}.cls-39{fill:#4bc65e;}.cls-120,.cls-140,.cls-40{fill:#fff;}.cls-41{fill:#f1f2f2;}.cls-42{fill:#e8b577;}.cls-43{fill:#d67944;}.cls-44{fill:#fc9a5b;}.cls-45{fill:#bf6735;}.cls-46{fill:#161c14;}.cls-47{fill:#1e1e1e;}.cls-48{fill:#f2bb0a;}.cls-120,.cls-121,.cls-134,.cls-49,.cls-52{stroke:#141414;}.cls-120,.cls-121,.cls-131,.cls-134,.cls-140,.cls-49{stroke-miterlimit:10;}.cls-49{stroke-width:4px;}.cls-50{fill:#ffc900;}.cls-51{fill:#383838;}.cls-52{stroke-linecap:round;stroke-linejoin:round;}.cls-53{fill:#f7c887;}.cls-54{fill:#e0ad70;}.cls-54,.cls-57{opacity:0.6;}.cls-119,.cls-55{fill:#f4f4f4;}.cls-134,.cls-135,.cls-55{opacity:0.75;}.cls-56{opacity:0.7;fill:url(#linear-gradient);}.cls-57{fill:#bc8451;}.cls-58{opacity:0.55;}.cls-59{clip-path:url(#clip-path);}.cls-60{fill:#d8d8d8;}.cls-61{clip-path:url(#clip-path-3);}.cls-62{clip-path:url(#clip-path-5);}.cls-63{clip-path:url(#clip-path-6);}.cls-64{clip-path:url(#clip-path-7);}.cls-65{clip-path:url(#clip-path-8);}.cls-66{clip-path:url(#clip-path-9);}.cls-67{clip-path:url(#clip-path-10);}.cls-68{clip-path:url(#clip-path-11);}.cls-69{clip-path:url(#clip-path-12);}.cls-70{clip-path:url(#clip-path-13);}.cls-71{clip-path:url(#clip-path-14);}.cls-72{clip-path:url(#clip-path-15);}.cls-73{clip-path:url(#clip-path-16);}.cls-74{clip-path:url(#clip-path-17);}.cls-75{clip-path:url(#clip-path-18);}.cls-76{clip-path:url(#clip-path-19);}.cls-77{clip-path:url(#clip-path-20);}.cls-78{clip-path:url(#clip-path-21);}.cls-79{clip-path:url(#clip-path-22);}.cls-80{clip-path:url(#clip-path-23);}.cls-81{clip-path:url(#clip-path-24);}.cls-82{clip-path:url(#clip-path-25);}.cls-83{clip-path:url(#clip-path-26);}.cls-84{clip-path:url(#clip-path-28);}.cls-85{clip-path:url(#clip-path-29);}.cls-86{clip-path:url(#clip-path-30);}.cls-87{clip-path:url(#clip-path-31);}.cls-88{clip-path:url(#clip-path-32);}.cls-89{clip-path:url(#clip-path-34);}.cls-90{clip-path:url(#clip-path-35);}.cls-91{clip-path:url(#clip-path-36);}.cls-92{clip-path:url(#clip-path-37);}.cls-93{clip-path:url(#clip-path-38);}.cls-94{clip-path:url(#clip-path-39);}.cls-95{clip-path:url(#clip-path-40);}.cls-96{clip-path:url(#clip-path-41);}.cls-97{clip-path:url(#clip-path-42);}.cls-98{clip-path:url(#clip-path-43);}.cls-99{clip-path:url(#clip-path-44);}.cls-100{clip-path:url(#clip-path-45);}.cls-101{clip-path:url(#clip-path-46);}.cls-102{clip-path:url(#clip-path-47);}.cls-103{clip-path:url(#clip-path-48);}.cls-104{clip-path:url(#clip-path-49);}.cls-105{clip-path:url(#clip-path-50);}.cls-106{clip-path:url(#clip-path-51);}.cls-107{clip-path:url(#clip-path-52);}.cls-108{fill:#ea6d59;}.cls-109{fill:#ffd522;}.cls-110{clip-path:url(#clip-path-53);}.cls-111{fill:#939393;}.cls-112,.cls-121{fill:#4f4f4f;}.cls-113{fill:#d3b122;}.cls-114{fill:#353535;}.cls-115{fill:#6d6d6d;}.cls-116{fill:#606060;}.cls-117{fill:#333;}.cls-118{clip-path:url(#clip-path-54);}.cls-120,.cls-121,.cls-131{stroke-width:5px;}.cls-122{fill:#c4412c;}.cls-123{fill:#e25f59;}.cls-124{fill:#fcfcfc;opacity:0.25;}.cls-125{fill:#dbd0bd;}.cls-126{fill:#ece5d5;}.cls-127{fill:#f9f6ed;}.cls-128{fill:#151515;}.cls-129{fill:#e2e217;}.cls-130{fill:#393939;}.cls-131{stroke:#393939;}.cls-132{fill:#ededed;}.cls-133{fill:#dbdbdb;}.cls-134{stroke-width:10px;isolation:isolate;}.cls-136{clip-path:url(#clip-path-55);}.cls-137{clip-path:url(#clip-path-56);}.cls-138{clip-path:url(#clip-path-58);}.cls-139{fill:#f3cf17;}.cls-140{stroke:#1792e6;stroke-width:15px;}</style><linearGradient id="linear-gradient" x1="871.51" y1="376.8" x2="871.51" y2="363.7" gradientUnits="userSpaceOnUse"><stop offset="0" stop-color="#e0ad70"/><stop offset="0.6" stop-color="#edbd7d"/><stop offset="0.95" stop-color="#f7c887"/></linearGradient><clipPath id="clip-path" transform="translate(-91.62 -76.27)"><rect class="cls-1" x="1999.4" y="324.2" width="15.5" height="30.99"/></clipPath><clipPath id="clip-path-3" transform="translate(-91.62 -76.27)"><rect class="cls-1" x="1977.7" y="324.2" width="15.5" height="30.99"/></clipPath><clipPath id="clip-path-5" transform="translate(-91.62 -76.27)"><rect class="cls-2" x="1965.3" y="166.15" width="83.68" height="375"/></clipPath><clipPath id="clip-path-6" transform="translate(-91.62 -76.27)"><rect class="cls-2" x="1903.32" y="252.92" width="96.07" height="288.22"/></clipPath><clipPath id="clip-path-7" transform="translate(-91.62 -76.27)"><rect class="cls-2" x="1828.94" y="352.1" width="96.07" height="189.05"/></clipPath><clipPath id="clip-path-8" transform="translate(-91.62 -76.27)"><rect class="cls-2" x="1745.27" y="91.77" width="83.68" height="449.37"/></clipPath><clipPath id="clip-path-9" transform="translate(-91.62 -76.27)"><rect class="cls-2" x="1667.79" y="166.15" width="83.68" height="375"/></clipPath><clipPath id="clip-path-10" transform="translate(-91.62 -76.27)"><rect class="cls-1" x="1912.62" y="296.31" width="46.49" height="15.5"/></clipPath><clipPath id="clip-path-11" transform="translate(-91.62 -76.27)"><rect class="cls-2" x="1556.22" y="252.92" width="114.67" height="288.22"/></clipPath><clipPath id="clip-path-12" transform="translate(-91.62 -76.27)"><rect class="cls-1" x="1531.43" y="510.15" width="529.95" height="30.99"/></clipPath><clipPath id="clip-path-13" transform="translate(-91.62 -76.27)"><rect class="cls-1" x="1801.05" y="110.36" width="15.5" height="350.2"/></clipPath><clipPath id="clip-path-14" transform="translate(-91.62 -76.27)"><rect class="cls-1" x="1779.36" y="110.36" width="15.5" height="350.2"/></clipPath><clipPath id="clip-path-15" transform="translate(-91.62 -76.27)"><rect class="cls-1" x="1757.66" y="110.36" width="15.5" height="350.2"/></clipPath><clipPath id="clip-path-16" transform="translate(-91.62 -76.27)"><rect class="cls-1" x="1999.4" y="175.45" width="15.5" height="30.99"/></clipPath><clipPath id="clip-path-17" transform="translate(-91.62 -76.27)"><rect class="cls-1" x="1977.7" y="175.45" width="15.5" height="30.99"/></clipPath><clipPath id="clip-path-18" transform="translate(-91.62 -76.27)"><rect class="cls-1" x="1612" y="265.32" width="15.5" height="30.99"/></clipPath><clipPath id="clip-path-19" transform="translate(-91.62 -76.27)"><rect class="cls-1" x="1590.31" y="265.32" width="15.5" height="30.99"/></clipPath><clipPath id="clip-path-20" transform="translate(-91.62 -76.27)"><rect class="cls-1" x="1568.62" y="265.32" width="15.5" height="30.99"/></clipPath><clipPath id="clip-path-21" transform="translate(-91.62 -76.27)"><rect class="cls-1" x="1999.4" y="212.63" width="15.5" height="30.99"/></clipPath><clipPath id="clip-path-22" transform="translate(-91.62 -76.27)"><rect class="cls-1" x="1977.7" y="212.63" width="15.5" height="30.99"/></clipPath><clipPath id="clip-path-23" transform="translate(-91.62 -76.27)"><rect class="cls-1" x="1999.4" y="249.82" width="15.5" height="30.99"/></clipPath><clipPath id="clip-path-24" transform="translate(-91.62 -76.27)"><rect class="cls-1" x="1977.7" y="249.82" width="15.5" height="30.99"/></clipPath><clipPath id="clip-path-25" transform="translate(-91.62 -76.27)"><rect class="cls-1" x="1999.4" y="287.01" width="15.5" height="30.99"/></clipPath><clipPath id="clip-path-26" transform="translate(-91.62 -76.27)"><rect class="cls-1" x="1977.7" y="287.01" width="15.5" height="30.99"/></clipPath><clipPath id="clip-path-28" transform="translate(-91.62 -76.27)"><rect class="cls-1" x="1912.62" y="265.32" width="46.49" height="15.5"/></clipPath><clipPath id="clip-path-29" transform="translate(-91.62 -76.27)"><rect class="cls-1" x="1686.38" y="181.64" width="46.49" height="15.5"/></clipPath><clipPath id="clip-path-30" transform="translate(-91.62 -76.27)"><rect class="cls-1" x="1686.38" y="212.63" width="46.49" height="15.5"/></clipPath><clipPath id="clip-path-31" transform="translate(-91.62 -76.27)"><rect class="cls-1" x="1686.38" y="243.63" width="46.49" height="15.5"/></clipPath><clipPath id="clip-path-32" transform="translate(-91.62 -76.27)"><rect class="cls-1" x="1912.62" y="327.3" width="46.49" height="15.5"/></clipPath><clipPath id="clip-path-34" transform="translate(-91.62 -76.27)"><rect class="cls-1" x="1999.4" y="361.39" width="15.5" height="30.99"/></clipPath><clipPath id="clip-path-35" transform="translate(-91.62 -76.27)"><rect class="cls-1" x="1977.7" y="361.39" width="15.5" height="30.99"/></clipPath><clipPath id="clip-path-36" transform="translate(-91.62 -76.27)"><rect class="cls-1" x="1612" y="305.61" width="15.5" height="30.99"/></clipPath><clipPath id="clip-path-37" transform="translate(-91.62 -76.27)"><rect class="cls-1" x="1590.31" y="305.61" width="15.5" height="30.99"/></clipPath><clipPath id="clip-path-38" transform="translate(-91.62 -76.27)"><rect class="cls-1" x="1568.62" y="305.61" width="15.5" height="30.99"/></clipPath><clipPath id="clip-path-39" transform="translate(-91.62 -76.27)"><rect class="cls-1" x="1612" y="345.9" width="15.5" height="30.99"/></clipPath><clipPath id="clip-path-40" transform="translate(-91.62 -76.27)"><rect class="cls-1" x="1590.31" y="345.9" width="15.5" height="30.99"/></clipPath><clipPath id="clip-path-41" transform="translate(-91.62 -76.27)"><rect class="cls-1" x="1568.62" y="345.9" width="15.5" height="30.99"/></clipPath><clipPath id="clip-path-42" transform="translate(-91.62 -76.27)"><rect class="cls-1" x="1612" y="386.19" width="15.5" height="30.99"/></clipPath><clipPath id="clip-path-43" transform="translate(-91.62 -76.27)"><rect class="cls-1" x="1590.31" y="386.19" width="15.5" height="30.99"/></clipPath><clipPath id="clip-path-44" transform="translate(-91.62 -76.27)"><rect class="cls-1" x="1568.62" y="386.19" width="15.5" height="30.99"/></clipPath><clipPath id="clip-path-45" transform="translate(-91.62 -76.27)"><rect class="cls-1" x="1635.09" y="264.54" width="15.5" height="30.99"/></clipPath><clipPath id="clip-path-46" transform="translate(-91.62 -76.27)"><rect class="cls-1" x="1635.09" y="304.83" width="15.5" height="30.99"/></clipPath><clipPath id="clip-path-47" transform="translate(-91.62 -76.27)"><rect class="cls-1" x="2021.57" y="175.47" width="15.5" height="30.99"/></clipPath><clipPath id="clip-path-48" transform="translate(-91.62 -76.27)"><rect class="cls-1" x="2021.57" y="212.66" width="15.5" height="30.99"/></clipPath><clipPath id="clip-path-49" transform="translate(-91.62 -76.27)"><rect class="cls-1" x="2021.57" y="249.85" width="15.5" height="30.99"/></clipPath><clipPath id="clip-path-50" transform="translate(-91.62 -76.27)"><rect class="cls-1" x="2021.57" y="287.04" width="15.5" height="30.99"/></clipPath><clipPath id="clip-path-51" transform="translate(-91.62 -76.27)"><rect class="cls-1" x="2021.57" y="324.23" width="15.5" height="30.99"/></clipPath><clipPath id="clip-path-52" transform="translate(-91.62 -76.27)"><rect class="cls-1" x="2021.57" y="361.42" width="15.5" height="30.99"/></clipPath><clipPath id="clip-path-53" transform="translate(-91.62 -76.27)"><rect class="cls-1" x="1635.09" y="343.32" width="15.5" height="30.99"/></clipPath><clipPath id="clip-path-54" transform="translate(-91.62 -76.27)"><rect class="cls-1" x="1685.36" y="273.09" width="46.49" height="15.5"/></clipPath><clipPath id="clip-path-55" transform="translate(-91.62 -76.27)"><rect class="cls-1" x="1056.37" y="1175.15" width="20.06" height="33.44"/></clipPath><clipPath id="clip-path-56" transform="translate(-91.62 -76.27)"><path class="cls-1" d="M1066.05,1189.92c-4-1-5.29-2.11-5.29-3.79,0-1.92,1.78-3.27,4.76-3.27,3.14,0,4.34,1.51,4.41,3.71h3.9a7,7,0,0,0-5.66-6.72V1176h-5.3v3.82c-3.42.72-6.17,3-6.17,6.37,0,4.07,3.37,6.1,8.29,7.28,4.41,1.06,5.29,2.62,5.29,4.26,0,1.21-.86,3.16-4.76,3.16-3.61,0-5.06-1.63-5.26-3.71h-3.88c.21,3.87,3.1,6,6.5,6.76v3.83h5.29V1204c3.44-.65,6.18-2.64,6.18-6.26C1074.35,1192.68,1070.05,1191,1066.05,1189.92Z"/></clipPath><clipPath id="clip-path-58" transform="translate(-91.62 -76.27)"><rect class="cls-1" x="1045.22" y="1168.46" width="44.57" height="44.57"/></clipPath></defs><rect class="cls-3" x="234.61" y="819.05" width="679.36" height="27.61"/><path class="cls-4" d="M293,879.8H107.36A10.2,10.2,0,0,0,97.17,890h0v56a9.26,9.26,0,0,0,9.25,9.26H293Z" transform="translate(-91.62 -76.27)"/><rect class="cls-5" x="201.39" y="813.68" width="76.2" height="65.27"/><rect class="cls-5" x="191.64" y="692.16" width="72.02" height="125.27"/><path class="cls-5" d="M283.28,822.37c-142.67,4.64-149,12.72-149,12.72C97.87,854.15,103.07,890,103.07,890H283.23Z" transform="translate(-91.62 -76.27)"/><polygon class="cls-5" points="191.65 692.16 191.65 761.12 133.31 761.12 156.42 692.16 191.65 692.16"/><rect class="cls-5" x="162.48" y="672.38" width="101.18" height="19.79"/><path class="cls-5" d="M254.1,748.65C236.81,758.58,236,768.43,236,768.43H254.1Z" transform="translate(-91.62 -76.27)"/><path class="cls-6" d="M529.21,898.61H259a13.9,13.9,0,0,0-13.91,13.89v0h0v27.55A13.9,13.9,0,0,0,259,954H515.3a13.9,13.9,0,0,0,13.91-13.9h0Z" transform="translate(-91.62 -76.27)"/><path d="M244.35,768.43h35.22c2.09,15.49-.66,26.19-4,33.32,0,0-1.42,3-13.62,21.84l-36.43,1Z" transform="translate(-91.62 -76.27)"/><rect class="cls-7" x="187.52" y="817.44" width="726.45" height="13.56"/><rect class="cls-8" x="193.61" y="685.29" width="62.42" height="131.68" rx="6.86"/><path class="cls-9" d="M205.71,923H92.25c-1,7.2-1.63,18.86,5.37,26.71,8.55,9.57,23.64,7.42,44.44,6.5A460.34,460.34,0,0,1,210,958.44Z" transform="translate(-91.62 -76.27)"/><path class="cls-9" d="M287.77,955.22c1.4-7.71,7-43.15-14.33-65.27-22.61-23.41-60.31-23.45-83.59-15.23C168.6,882.23,163,895,135.73,902a113.54,113.54,0,0,1-37.41,2.92,37.48,37.48,0,0,0-6.13,23.37C93.46,943.53,104,952.41,105.94,954Z" transform="translate(-91.62 -76.27)"/><path class="cls-9" d="M287.77,955.22H265.69c4.32,13.08,0,21.54,0,21.54Z" transform="translate(-91.62 -76.27)"/><rect class="cls-10" x="216.01" y="780.19" width="17.63" height="5.03" rx="2.13"/><path class="cls-11" d="M150.73,849.69h13.09V803H154.4a3.71,3.71,0,0,0-3.71,3.71h0v43Z" transform="translate(-91.62 -76.27)"/><rect class="cls-11" x="54.89" y="773.43" width="8.9" height="6.77"/><rect x="197.96" y="695.64" width="46.13" height="46.13" rx="5.82"/><path class="cls-11" d="M315.84,785.36H304.32a4.63,4.63,0,0,0-4.63,4.63v30.58a2.78,2.78,0,0,0,2.78,2.78h15.29a2.78,2.78,0,0,0,2.78-2.78V790a4.63,4.63,0,0,0-4.63-4.63h-.07Z" transform="translate(-91.62 -76.27)"/><rect class="cls-11" x="215.28" y="745.26" width="5.74" height="5.33"/><rect class="cls-11" x="215.37" y="750.58" width="5.59" height="7.27"/><rect class="cls-11" x="209.8" y="753.73" width="5.97" height="5.97"/><path class="cls-12" d="M516.81,945.48a36.91,36.91,0,0,0-36.79-37h0a36.92,36.92,0,0,0-37,36.81,36.41,36.41,0,0,0,.38,5.32h-6.66a43.5,43.5,0,1,1,86.7-5.1,41.43,41.43,0,0,1-.31,5.1h-6.7A37.84,37.84,0,0,0,516.81,945.48Z" transform="translate(-91.62 -76.27)"/><circle cx="137.74" cy="869.13" r="36.91"/><circle class="cls-11" cx="137.74" cy="869.13" r="27.68"/><circle cx="138" cy="869.13" r="9.23"/><circle cx="138" cy="855.87" r="1.38"/><circle cx="138" cy="882.37" r="1.38"/><circle cx="125.08" cy="869.13" r="1.38"/><circle cx="150.92" cy="869.13" r="1.38"/><circle cx="128.77" cy="859.89" r="0.92"/><circle cx="147.22" cy="878.35" r="0.92"/><circle cx="128.77" cy="878.35" r="0.92"/><circle cx="147.22" cy="859.89" r="0.92"/><circle cx="311.17" cy="869.13" r="36.91"/><circle class="cls-11" cx="311.17" cy="869.13" r="27.68"/><circle cx="311.43" cy="869.13" r="9.23"/><circle cx="311.43" cy="855.87" r="1.38"/><circle cx="311.43" cy="882.37" r="1.38"/><circle cx="298.51" cy="869.13" r="1.38"/><circle cx="324.34" cy="869.13" r="1.38"/><circle cx="302.21" cy="859.89" r="0.92"/><circle cx="320.66" cy="878.35" r="0.92"/><circle cx="302.21" cy="878.35" r="0.92"/><circle cx="320.66" cy="859.89" r="0.92"/><path class="cls-12" d="M822.11,945.48a36.91,36.91,0,0,0-36.86-37h0a37,37,0,0,0-36.6,42.11H742a43.5,43.5,0,1,1,86.69-5.11h0a43.36,43.36,0,0,1-.3,5.1h-6.65A36.79,36.79,0,0,0,822.11,945.48Z" transform="translate(-91.62 -76.27)"/><path class="cls-12" d="M439.7,945.48a36.91,36.91,0,0,0-36.86-37h0a37,37,0,0,0-36.6,42.11H359.6A43.5,43.5,0,0,1,402.78,902h0a43.51,43.51,0,0,1,43.5,43.5,41.32,41.32,0,0,1-.31,5.1h-6.64A36.79,36.79,0,0,0,439.7,945.48Z" transform="translate(-91.62 -76.27)"/><circle cx="388.03" cy="869.13" r="36.91"/><circle class="cls-11" cx="388.03" cy="869.13" r="27.68"/><circle cx="388.29" cy="869.13" r="9.23"/><circle cx="388.29" cy="855.87" r="1.38"/><circle cx="388.29" cy="882.37" r="1.38"/><circle cx="375.36" cy="869.13" r="1.38"/><circle cx="401.2" cy="869.13" r="1.38"/><circle cx="379.06" cy="859.89" r="0.92"/><circle cx="397.51" cy="878.35" r="0.92"/><circle cx="379.06" cy="878.35" r="0.92"/><circle cx="397.51" cy="859.89" r="0.92"/><polyline class="cls-13" points="921.58 821.81 263.2 821.81 263.2 561.53 921.58 561.53"/><path class="cls-12" d="M899.22,945.48a36.91,36.91,0,0,0-36.79-37h0a36.92,36.92,0,0,0-37,36.81,37.86,37.86,0,0,0,.38,5.32h-6.66a45.77,45.77,0,0,1-.31-5.1,43.5,43.5,0,0,1,87,0,48.29,48.29,0,0,1-.3,5.1h-6.65A36.23,36.23,0,0,0,899.22,945.48Z" transform="translate(-91.62 -76.27)"/><path class="cls-12" d="M974.63,945.48a36.91,36.91,0,1,0-73.81-.1,38.12,38.12,0,0,0,.36,5.24h-6.65a43.5,43.5,0,1,1,86.7-5.1,45.63,45.63,0,0,1-.31,5.1h-6.65A36.79,36.79,0,0,0,974.63,945.48Z" transform="translate(-91.62 -76.27)"/><circle cx="693.58" cy="869.13" r="36.91"/><circle class="cls-11" cx="693.58" cy="869.13" r="27.68"/><circle cx="693.84" cy="869.13" r="9.23"/><circle cx="693.84" cy="855.87" r="1.38"/><circle cx="693.84" cy="882.37" r="1.38"/><circle cx="680.92" cy="869.13" r="1.38"/><circle cx="706.75" cy="869.13" r="1.38"/><circle cx="684.62" cy="859.89" r="0.92"/><circle cx="703.07" cy="878.35" r="0.92"/><circle cx="684.62" cy="878.35" r="0.92"/><circle cx="703.07" cy="859.89" r="0.92"/><circle cx="861.56" cy="945.43" r="36.91" transform="translate(-156.55 -12.74) rotate(-4.07)"/><circle class="cls-11" cx="770.44" cy="869.13" r="27.68"/><circle cx="770.7" cy="869.13" r="9.23"/><circle cx="770.7" cy="855.87" r="1.38"/><circle cx="770.7" cy="882.37" r="1.38"/><circle cx="757.79" cy="869.13" r="1.38"/><circle cx="783.62" cy="869.13" r="1.38"/><circle cx="761.47" cy="859.89" r="0.92"/><circle cx="779.92" cy="878.35" r="0.92"/><circle cx="761.47" cy="878.35" r="0.92"/><circle cx="779.92" cy="859.89" r="0.92"/><circle cx="846.09" cy="869.13" r="36.91"/><circle class="cls-11" cx="846.09" cy="869.13" r="27.68"/><circle cx="846.36" cy="869.13" r="9.23"/><circle cx="846.36" cy="855.87" r="1.38"/><circle cx="846.36" cy="882.37" r="1.38"/><circle cx="833.43" cy="869.13" r="1.38"/><circle cx="859.27" cy="869.13" r="1.38"/><circle cx="837.13" cy="859.89" r="0.92"/><circle cx="855.58" cy="878.35" r="0.92"/><circle cx="837.13" cy="878.35" r="0.92"/><circle cx="855.58" cy="859.89" r="0.92"/><path class="cls-14" d="M266.26,945.48a36.91,36.91,0,0,0-36.79-37h0a36.91,36.91,0,0,0-37,36.79v0a35.07,35.07,0,0,0,.37,5.32h-6.64A43.34,43.34,0,0,1,229.36,902h0a43.49,43.49,0,0,1,43.5,43.5,41.43,41.43,0,0,1-.31,5.1H266A36.28,36.28,0,0,0,266.26,945.48Z" transform="translate(-91.62 -76.27)"/><path class="cls-15" d="M1882.13,880.64H1810a4.06,4.06,0,0,0-4.12,4v.46a4.06,4.06,0,0,0,4.12,4h72.09a4.06,4.06,0,0,0,4.12-4v-.46A4.06,4.06,0,0,0,1882.13,880.64Z" transform="translate(-91.62 -76.27)"/><path class="cls-15" d="M1814.16,688.39H1810a4.06,4.06,0,0,0-4.12,4V885.1a4.06,4.06,0,0,0,4.12,4h4.12a4.06,4.06,0,0,0,4.11-4V692.39A4.06,4.06,0,0,0,1814.16,688.39Z" transform="translate(-91.62 -76.27)"/><path class="cls-15" d="M1779.25,702.91h34.91a4.06,4.06,0,0,0,4.11-4v-6.8a4.06,4.06,0,0,0-4.11-4h-34.91Z" transform="translate(-91.62 -76.27)"/><rect class="cls-3" x="1021.73" y="812.2" width="691.76" height="29.79"/><rect class="cls-16" x="1581.62" y="675.27" width="175.24" height="135.19"/><path class="cls-17" d="M2043.16,882.68H1842.32a11.87,11.87,0,0,0-12,11.7v42a11.87,11.87,0,0,0,12,11.7h200.84a11.88,11.88,0,0,0,12-11.7v-42A11.88,11.88,0,0,0,2043.16,882.68Z" transform="translate(-91.62 -76.27)"/><path class="cls-16" d="M1846.26,809.75a736.06,736.06,0,0,1,127,8c35.3,5.37,58.06,11.62,66.44,28.39l8.91,36.54H1846.26Z" transform="translate(-91.62 -76.27)"/><polygon class="cls-16" points="1754.68 675.27 1754.68 749.69 1821.66 749.69 1795.13 675.27 1754.68 675.27"/><rect class="cls-16" x="1581.62" y="653.92" width="207.65" height="21.35"/><path class="cls-16" d="M1880.88,730.22c19.22,10.72,20.1,21.35,20.1,21.35h-20.1Z" transform="translate(-91.62 -76.27)"/><path class="cls-6" d="M1590.74,951.74h284.75a15.23,15.23,0,0,0,15.44-15h0V907a15.23,15.23,0,0,0-15.44-15H1575.3v44.74a15.22,15.22,0,0,0,15.44,15Z" transform="translate(-91.62 -76.27)"/><path d="M1891.72,751.54H1852.6c-2.38,16.71.73,28.21,4.46,36,0,0,1.57,3.26,15.11,23.57l40.46,1.07Z" transform="translate(-91.62 -76.27)"/><rect class="cls-7" x="1021.73" y="810.46" width="739.72" height="14.64"/><path class="cls-18" d="M1838.69,744.12h-54.11a7.51,7.51,0,0,0-7.61,7.4v127.3a7.51,7.51,0,0,0,7.61,7.4h54.11a7.51,7.51,0,0,0,7.61-7.4V751.52A7.51,7.51,0,0,0,1838.69,744.12Z" transform="translate(-91.62 -76.27)"/><path class="cls-16" d="M1934.63,918.37h126c1.2,7.77,1.82,20.4-5.95,28.83-9.51,10.32-26.27,8-49.41,7a528.91,528.91,0,0,0-75.51,2.41Z" transform="translate(-91.62 -76.27)"/><path d="M1830.78,756.45h-38.29a6.38,6.38,0,0,0-6.47,6.29v37.2a6.37,6.37,0,0,0,6.47,6.29h38.29a6.38,6.38,0,0,0,6.48-6.29v-37.2A6.39,6.39,0,0,0,1830.78,756.45Z" transform="translate(-91.62 -76.27)"/><path class="cls-10" d="M1819.06,846.54h-14.85a2.33,2.33,0,0,0-2.36,2.3v.82a2.33,2.33,0,0,0,2.36,2.3h14.85a2.33,2.33,0,0,0,2.36-2.3v-.82A2.33,2.33,0,0,0,1819.06,846.54Z" transform="translate(-91.62 -76.27)"/><path class="cls-6" d="M1991.58,794.34h-10.36v44.88h14.48v-40.9A4.06,4.06,0,0,0,1991.58,794.34Z" transform="translate(-91.62 -76.27)"/><rect class="cls-6" x="1898.88" y="762.97" width="9.89" height="7.3"/><path class="cls-6" d="M1810.24,810.83h17a3,3,0,0,0,3.09-3h0v-33a5.08,5.08,0,0,0-5.15-5h-12.86a5.07,5.07,0,0,0-5.14,5v33a3,3,0,0,0,3.09,3Z" transform="translate(-91.62 -76.27)"/><rect class="cls-6" x="1724.23" y="732.56" width="6.37" height="5.75"/><rect class="cls-6" x="1724.31" y="738.32" width="6.22" height="7.85"/><rect class="cls-6" x="1730.07" y="741.72" width="6.63" height="6.44"/><path class="cls-12" d="M1589.07,942.59c.36-22,19-39.54,41.65-39.19h0c22.13.35,40,17.69,40.34,39.19a39,39,0,0,1-.39,5.51H1678a44,44,0,0,0,.35-5.51c-.42-25.91-22.35-46.61-49-46.26-26.13.39-47.23,20.87-47.64,46.26a48.09,48.09,0,0,0,.35,5.51h7.38A38.94,38.94,0,0,1,1589.07,942.59Z" transform="translate(-91.62 -76.27)"/><ellipse cx="1816.75" cy="866.24" rx="41" ry="39.83"/><ellipse class="cls-11" cx="1816.7" cy="866.59" rx="24.6" ry="23.9"/><ellipse cx="1816.46" cy="866.24" rx="10.25" ry="9.96"/><ellipse cx="1816.46" cy="851.94" rx="1.53" ry="1.49"/><ellipse cx="1816.46" cy="880.53" rx="1.53" ry="1.49"/><ellipse cx="1830.8" cy="866.24" rx="1.53" ry="1.49"/><ellipse cx="1802.11" cy="866.24" rx="1.53" ry="1.49"/><ellipse cx="1826.7" cy="856.28" rx="1.03" ry="1"/><ellipse cx="1806.21" cy="876.19" rx="1.03" ry="1"/><ellipse cx="1826.7" cy="876.19" rx="1.03" ry="1"/><ellipse cx="1806.21" cy="856.28" rx="1.03" ry="1"/><ellipse cx="1624.1" cy="866.24" rx="41" ry="39.83"/><ellipse class="cls-11" cx="1624.1" cy="866.24" rx="24.6" ry="23.9"/><ellipse cx="1623.81" cy="866.24" rx="10.25" ry="9.96"/><ellipse cx="1623.81" cy="851.94" rx="1.53" ry="1.49"/><ellipse cx="1623.81" cy="880.53" rx="1.53" ry="1.49"/><ellipse cx="1638.16" cy="866.24" rx="1.53" ry="1.49"/><ellipse cx="1609.46" cy="866.24" rx="1.53" ry="1.49"/><ellipse cx="1634.06" cy="856.28" rx="1.03" ry="1"/><ellipse cx="1613.56" cy="876.19" rx="1.03" ry="1"/><ellipse cx="1634.06" cy="876.19" rx="1.03" ry="1"/><ellipse cx="1613.56" cy="856.28" rx="1.03" ry="1"/><path class="cls-12" d="M1250,942.59c.1-22,18.53-39.75,41.17-39.66h0c22.64.1,40.92,18,40.83,40h0a40.59,40.59,0,0,1-.37,5.17H1339a45.92,45.92,0,0,0,.34-5.51c0-25.91-21.65-46.9-48.32-46.94s-48.28,21-48.32,46.94a45.92,45.92,0,0,0,.34,5.51h7.38A37.55,37.55,0,0,1,1250,942.59Z" transform="translate(-91.62 -76.27)"/><path class="cls-12" d="M1674.72,942.59c0-22,18.31-39.85,41-39.88s41,17.79,41,39.78a38.89,38.89,0,0,1-.4,5.61h7.38a43.94,43.94,0,0,0,.34-5.51c0-25.91-21.65-46.9-48.32-46.94s-48.28,21-48.32,46.94a45.92,45.92,0,0,0,.34,5.51h7.38A39,39,0,0,1,1674.72,942.59Z" transform="translate(-91.62 -76.27)"/><ellipse cx="1538.74" cy="866.24" rx="41" ry="39.83"/><ellipse class="cls-11" cx="1538.74" cy="866.25" rx="24.6" ry="23.9"/><ellipse cx="1538.44" cy="866.24" rx="10.25" ry="9.96"/><ellipse cx="1538.45" cy="851.94" rx="1.53" ry="1.49"/><ellipse cx="1538.45" cy="880.53" rx="1.53" ry="1.49"/><ellipse cx="1552.79" cy="866.24" rx="1.53" ry="1.49"/><ellipse cx="1524.1" cy="866.24" rx="1.53" ry="1.49"/><ellipse cx="1548.69" cy="856.28" rx="1.03" ry="1"/><ellipse cx="1528.2" cy="876.19" rx="1.03" ry="1"/><ellipse cx="1548.69" cy="876.19" rx="1.03" ry="1"/><ellipse cx="1528.2" cy="856.28" rx="1.03" ry="1"/><path class="cls-12" d="M1164.3,942.59c-.1-22,18.18-39.9,40.82-40h.05c22.64-.06,41,17.72,41.13,39.71a39.42,39.42,0,0,1-.42,5.75h7.38a44,44,0,0,0,.35-5.51c-.41-25.91-22.35-46.61-49-46.26-26.13.4-47.21,20.88-47.62,46.26a44,44,0,0,0,.35,5.51h7.37A41.52,41.52,0,0,1,1164.3,942.59Z" transform="translate(-91.62 -76.27)"/><ellipse cx="1199.33" cy="866.24" rx="41" ry="39.83"/><ellipse class="cls-11" cx="1199.33" cy="866.24" rx="24.6" ry="23.9"/><ellipse cx="1199.04" cy="866.24" rx="10.25" ry="9.96"/><ellipse cx="1199.04" cy="851.94" rx="1.53" ry="1.49"/><ellipse cx="1199.04" cy="880.53" rx="1.53" ry="1.49"/><ellipse cx="1213.39" cy="866.24" rx="1.53" ry="1.49"/><ellipse cx="1184.69" cy="866.24" rx="1.53" ry="1.49"/><ellipse cx="1209.29" cy="856.28" rx="1.03" ry="1"/><ellipse cx="1188.78" cy="876.19" rx="1.03" ry="1"/><ellipse cx="1209.29" cy="876.19" rx="1.03" ry="1"/><ellipse cx="1188.78" cy="856.28" rx="1.03" ry="1"/><ellipse cx="1113.95" cy="866.24" rx="41" ry="39.83"/><ellipse class="cls-11" cx="1113.95" cy="866.24" rx="24.6" ry="23.9"/><ellipse cx="1113.66" cy="866.24" rx="10.25" ry="9.96"/><ellipse cx="1113.66" cy="851.94" rx="1.53" ry="1.49"/><ellipse cx="1113.66" cy="880.53" rx="1.53" ry="1.49"/><ellipse cx="1128.01" cy="866.24" rx="1.53" ry="1.49"/><ellipse cx="1099.32" cy="866.24" rx="1.53" ry="1.49"/><ellipse cx="1123.92" cy="856.28" rx="1.03" ry="1"/><ellipse cx="1103.42" cy="876.19" rx="1.03" ry="1"/><ellipse cx="1123.92" cy="876.19" rx="1.03" ry="1"/><ellipse cx="1103.42" cy="856.28" rx="1.03" ry="1"/><path class="cls-19" d="M1867.37,942.59c.36-22,19-39.54,41.65-39.19h0c22.13.35,40,17.69,40.34,39.19a39,39,0,0,1-.39,5.51h7.4a42.13,42.13,0,0,0,.35-5.51c-.42-25.91-22.35-46.61-49-46.26-26.12.4-47.2,20.88-47.61,46.26a45.92,45.92,0,0,0,.35,5.51h7.38A39,39,0,0,1,1867.37,942.59Z" transform="translate(-91.62 -76.27)"/><path class="cls-6" d="M1839.22,880.53h-72.09a4.06,4.06,0,0,0-4.12,4V885a4.06,4.06,0,0,0,4.12,4h72.09a4.06,4.06,0,0,0,4.12-4v-.46A4.06,4.06,0,0,0,1839.22,880.53Z" transform="translate(-91.62 -76.27)"/><path class="cls-6" d="M1771.24,688.28h-4.11a4.06,4.06,0,0,0-4.12,4V885a4.06,4.06,0,0,0,4.12,4h4.11a4.06,4.06,0,0,0,4.12-4V692.28A4.06,4.06,0,0,0,1771.24,688.28Z" transform="translate(-91.62 -76.27)"/><path class="cls-6" d="M1736.34,702.83h34.9a4.06,4.06,0,0,0,4.12-4V692a4.06,4.06,0,0,0-4.12-4h-34.9Z" transform="translate(-91.62 -76.27)"/><path d="M1738.81,756.44h-43.66a6.39,6.39,0,0,0-6.48,6.29v17.42a6.38,6.38,0,0,0,6.48,6.29h43.66a6.37,6.37,0,0,0,6.47-6.29V762.73A6.38,6.38,0,0,0,1738.81,756.44Z" transform="translate(-91.62 -76.27)"/><rect class="cls-6" x="1597.05" y="715.45" width="56.61" height="15"/><rect class="cls-20" x="1017.64" y="561.53" width="565.34" height="250"/><rect class="cls-21" x="1514.26" y="578.47" width="24.91" height="216.11"/><rect class="cls-21" x="1450.88" y="578.47" width="24.91" height="216.11"/><rect class="cls-21" x="1385.77" y="578.47" width="24.91" height="216.11"/><rect class="cls-21" x="1320.65" y="578.47" width="24.91" height="216.11"/><rect class="cls-21" x="1255.05" y="578.47" width="24.91" height="216.11"/><rect class="cls-21" x="1191.68" y="578.47" width="24.91" height="216.11"/><rect class="cls-21" x="1126.56" y="578.47" width="24.91" height="216.11"/><rect class="cls-21" x="1061.45" y="578.47" width="24.91" height="216.11"/><circle class="cls-22" cx="409.19" cy="200.8" r="175.65"/><path class="cls-23" d="M610.71,274.07a113.31,113.31,0,0,0-38.62-85.33A113.6,113.6,0,0,0,429.54,365.41a113.61,113.61,0,0,0,181.17-91.34Z" transform="translate(-91.62 -76.27)"/><circle class="cls-22" cx="409.19" cy="200.8" r="25"/><circle class="cls-22" cx="409.17" cy="137.77" r="7.9"/><circle class="cls-22" cx="409.17" cy="263.83" r="7.9"/><circle class="cls-22" cx="470.68" cy="200.83" r="7.9"/><circle class="cls-22" cx="347.71" cy="200.83" r="7.9"/><circle class="cls-22" cx="453.13" cy="156.91" r="5.26"/><circle class="cls-22" cx="365.3" cy="244.69" r="5.26"/><circle class="cls-22" cx="453.13" cy="244.69" r="5.26"/><circle class="cls-22" cx="365.3" cy="156.91" r="5.26"/><polygon class="cls-24" points="32.67 147.09 285.14 147.09 350.47 260.23 98 260.23 32.67 147.09"/><path class="cls-25" d="M352.85,311.59a65.33,65.33,0,0,0,89.24,23.91L376.77,222.36A65.33,65.33,0,0,0,352.85,311.59Z" transform="translate(-91.62 -76.27)"/><path class="cls-26" d="M100.38,312.59a65.33,65.33,0,0,0,89.24,23.91L124.3,223.36A65.33,65.33,0,0,0,100.38,312.59Z" transform="translate(-91.62 -76.27)"/><path class="cls-23" d="M297.56,204.53h-21a2.27,2.27,0,0,0-2.27,2.27v10.43s-20.5,2.63-23.13-13.66c0,0-44.14-8.41-77.25,30,0,0-4.21,11,11,4.73,0,0,27.86-15.24,39.16,13.66H253.3s7.88-11.56,21-10.51v5.18a2.27,2.27,0,0,0,2.27,2.27h21a2.27,2.27,0,0,0,2.27-2.27V206.8A2.27,2.27,0,0,0,297.56,204.53Z" transform="translate(-91.62 -76.27)"/><rect class="cls-27" x="137.66" y="175.65" width="20.89" height="148.97" rx="4.54"/><polygon class="cls-28" points="258.23 214.09 267.53 211.38 274.35 231.65 265.05 234.36 258.23 214.09"/><path class="cls-29" d="M378.31,320.56a12.56,12.56,0,0,1,.56,1.63,11,11,0,0,1,.54,3.41v61.71a11.08,11.08,0,0,1-22.15,0V328.88l-11-26a13.66,13.66,0,0,1-.93-3.33h24.1Z" transform="translate(-91.62 -76.27)"/><polygon class="cls-28" points="238.05 214.09 228.75 211.38 221.93 231.65 231.23 234.36 238.05 214.09"/><path class="cls-29" d="M301.21,320.56a16.52,16.52,0,0,0-.56,1.63,11.27,11.27,0,0,0-.54,3.41v61.71a11.08,11.08,0,0,0,22.15,0V328.88l11.05-26a13.66,13.66,0,0,0,.93-3.33h-24.1Z" transform="translate(-91.62 -76.27)"/><polygon class="cls-28" points="247.4 168.2 247.4 131.51 258.46 131.51 269.45 185.41 247.4 168.2"/><path class="cls-23" d="M339.76,244.54a.79.79,0,0,1-.26-.06v-36.7H328.44l-9.59,47.05a26.41,26.41,0,1,0,20.91-10.29Z" transform="translate(-91.62 -76.27)"/><circle class="cls-28" cx="248.14" cy="194.67" r="14.17"/><rect class="cls-30" x="87.29" y="260.2" width="115.43" height="43.63"/><rect class="cls-31" x="202.25" y="260.2" width="215.82" height="43.63"/><rect class="cls-26" x="96.22" y="303.83" width="101.62" height="129.18"/><rect class="cls-32" x="197.84" y="303.83" width="211.35" height="129.18"/><path class="cls-33" d="M254.71,282h38.8a0,0,0,0,1,0,0v40.68a5.07,5.07,0,0,1-5.07,5.07H259.78a5.07,5.07,0,0,1-5.07-5.07V282A0,0,0,0,1,254.71,282Z"/><path class="cls-33" d="M367.9,282h38.8a0,0,0,0,1,0,0v40.68a5.07,5.07,0,0,1-5.07,5.07H373a5.07,5.07,0,0,1-5.07-5.07V282A0,0,0,0,1,367.9,282Z"/><path class="cls-34" d="M541.8,279l5.89,30.46c1,5.1,4.85,8.79,9.1,9.1l15,77.71,10.31-2-15-77.7c3.83-1.88,6-6.74,5-11.84l-5.9-30.47Z" transform="translate(-91.62 -76.27)"/><rect class="cls-35" x="559.57" y="390.73" width="59.65" height="137.45" rx="29.83" transform="translate(-168.18 44.09) rotate(-10.95)"/><polygon class="cls-23" points="459.82 344.04 518.39 332.7 500.71 301.98 464.76 308.94 459.82 344.04"/><rect class="cls-36" x="545.04" y="368.46" width="56.8" height="17.04" transform="translate(-152.8 39.55) rotate(-10.95)"/><path class="cls-16" d="M386.68,506.34l-.15-1.23A14.57,14.57,0,0,0,370.3,492.4l-98.35,12a14.58,14.58,0,0,0-12.71,16.23l.15,1.23a14.58,14.58,0,0,0,16.23,12.71l98.35-12A14.57,14.57,0,0,0,386.68,506.34Zm-115.34,13.4a8.58,8.58,0,1,1,9.55,7.48A8.57,8.57,0,0,1,271.34,519.74Z" transform="translate(-91.62 -76.27)"/><path class="cls-23" d="M416,509.58l-2.69-22.1L433.79,485l8.52-28.94,39.24-10.25q11.35,11.93,22.73,23.84c-1.1-.32-14.11-3.89-24.59,4.87-1.34,1.13-9.52,8.21-9.2,19.85,0,.76.54,12.27,10.22,19.24,8.21,5.9,19.63,6.11,29,.56l-16.55,27-40.55-.54-15.2-26.05L416.9,517l-2.69-22.1" transform="translate(-91.62 -76.27)"/><rect class="cls-22" x="373" y="473.35" width="30.09" height="64.7" transform="translate(751.59 -16.83) rotate(83.07)"/><rect class="cls-37" x="255.36" y="287.83" width="5.74" height="30.9"/><rect class="cls-37" x="368.65" y="287.83" width="5.74" height="30.9"/><rect class="cls-38" x="701.48" y="352.02" width="619.15" height="112.85"/><rect class="cls-33" x="835.05" y="137.93" width="373.35" height="225.34" rx="15.01"/><circle class="cls-39" cx="1029.85" cy="101.68" r="88.36"/><path class="cls-40" d="M1163.72,147a7.42,7.42,0,0,0-10.48,0l-45.79,45.79-16.65-16.64a8,8,0,1,0-11.38,11.38l21.09,21.09a7.88,7.88,0,0,0,5,2.29,7,7,0,0,0,1.51.17,7.37,7.37,0,0,0,5.24-2.17l51.42-51.42A7.43,7.43,0,0,0,1163.72,147Z" transform="translate(-91.62 -76.27)"/><rect class="cls-41" x="1022.83" y="226.94" width="154.71" height="14.69" rx="4.39"/><rect class="cls-41" x="976.05" y="254.87" width="201.49" height="14.69" rx="4.39"/><rect class="cls-41" x="865.91" y="306.46" width="65.72" height="14.69" rx="3"/><rect class="cls-41" x="947.88" y="306.46" width="65.72" height="14.69" rx="3"/><rect class="cls-41" x="1029.85" y="306.46" width="65.72" height="14.69" rx="3"/><rect class="cls-41" x="1111.82" y="306.46" width="65.72" height="14.69" rx="3"/><rect class="cls-42" x="733.16" y="224.9" width="121.87" height="207.96"/><rect class="cls-43" x="776.56" y="427.66" width="192.88" height="10.23"/><rect class="cls-44" x="941.54" y="423.88" width="27.9" height="3.79"/><rect class="cls-44" x="886.63" y="423.88" width="27.9" height="3.79"/><rect class="cls-44" x="831.73" y="423.88" width="27.9" height="3.79"/><rect class="cls-44" x="776.56" y="423.88" width="27.9" height="3.79"/><path class="cls-45" d="M868.18,514.17v14h192.88v-14Zm66.2,10.41H885.06v-6.87h49.32Zm109.94,0H995v-6.87h49.32Z" transform="translate(-91.62 -76.27)"/><polygon class="cls-46" points="1087.83 345.33 1079.79 353.37 1079.79 402.87 981.98 402.87 976.41 408.45 1102.95 408.45 1102.95 366.86 1087.83 345.33"/><rect class="cls-46" x="1179.45" y="443.13" width="26.18" height="14.38" rx="3.4" transform="translate(2293.45 824.36) rotate(-180)"/><rect class="cls-22" x="1179.33" y="312.94" width="15.13" height="135.03" transform="translate(2282.16 684.63) rotate(180)"/><rect class="cls-47" x="1323.45" y="379.43" width="10.41" height="43.84" transform="translate(2565.7 726.44) rotate(180)"/><path class="cls-30" d="M1267.37,448.14h-31.5l-5.58-4.62.51-24.11L1246.28,404,1241,393.41l-22.67,6.66-13.42,19.7-.93,28.37,35.8,14.12,27.6-3.84Z" transform="translate(-91.62 -76.27)"/><rect class="cls-48" x="1267.37" y="423.28" width="74.18" height="53.08" rx="9.71" transform="translate(2517.29 823.36) rotate(180)"/><path class="cls-49" d="M1336.54,318.3l-.09,97.39L1304,456.87H1236.5l-33.73-.17q-.11-15.24-.19-30.49L1255,318.3Z" transform="translate(-91.62 -76.27)"/><path class="cls-50" d="M1380.58,425.12c-9.09-13.31-40.24-9.21-40.24-9.21l-34.08,42h-70.77a41.14,41.14,0,0,0-53.19,0c-5.51,9.74,6.17,9.09,6.17,9.09v22.39h169.72c22.06-15.58,22.39-18.17,22.39-18.17Z" transform="translate(-91.62 -76.27)"/><rect class="cls-22" x="1278.05" y="489.37" width="44.5" height="5.76" rx="1.49" transform="translate(2508.97 908.22) rotate(-180)"/><circle class="cls-51" cx="1255.37" cy="408.5" r="28.82"/><path class="cls-52" d="M1347,458.9a27.58,27.58,0,0,0-27.58,27.58h-3a30.62,30.62,0,0,1,61.23,0h-3A27.58,27.58,0,0,0,1347,458.9Z" transform="translate(-91.62 -76.27)"/><circle class="cls-51" cx="1117.53" cy="408.5" r="28.82"/><path class="cls-52" d="M1209.15,458.9a27.58,27.58,0,0,0-27.58,27.58h-3a30.62,30.62,0,0,1,61.23,0h-3A27.58,27.58,0,0,0,1209.15,458.9Z" transform="translate(-91.62 -76.27)"/><rect class="cls-22" x="1235.87" y="486.48" width="84.35" height="5.38" transform="translate(2464.47 902.08) rotate(180)"/><rect class="cls-22" x="1364.25" y="431.07" width="2.62" height="10.3" rx="0.54" transform="translate(2639.49 796.17) rotate(180)"/><rect class="cls-22" x="1360.33" y="431.07" width="2.62" height="10.3" rx="0.54" transform="translate(2631.66 796.17) rotate(180)"/><rect class="cls-22" x="1356.52" y="431.07" width="2.62" height="10.3" rx="0.54" transform="translate(2624.03 796.17) rotate(180)"/><rect class="cls-22" x="1352.7" y="431.07" width="2.62" height="10.3" rx="0.54" transform="translate(2616.4 796.17) rotate(180)"/><rect class="cls-50" x="1250.1" y="308.53" width="91.59" height="7.18" rx="0.9" transform="translate(2500.18 547.96) rotate(180)"/><rect class="cls-30" x="1250.9" y="381.35" width="4.06" height="26.2" rx="1.21" transform="translate(-120.99 603.04) rotate(-30)"/><polygon class="cls-22" points="1102.95 252.79 1107.8 247.95 1107.8 236.66 1101.51 236.66 1101.51 252.79 1102.95 252.79"/><rect class="cls-30" x="1240.78" y="395.53" width="13.18" height="3.46" transform="translate(-136.48 530.48) rotate(-26.87)"/><path class="cls-30" d="M1317,364.06h10.46a0,0,0,0,1,0,0v52.36a5.22,5.22,0,0,1-5.22,5.22H1317a0,0,0,0,1,0,0V364.06A0,0,0,0,1,1317,364.06Z" transform="translate(2527.12 787.64) rotate(-176.58)"/><path class="cls-30" d="M1295.62,393h5.59a4.87,4.87,0,0,1,4.87,4.87v45.22a0,0,0,0,1,0,0h-10.46a0,0,0,0,1,0,0V393A0,0,0,0,1,1295.62,393Z" transform="translate(791.18 1642.62) rotate(-90)"/><rect class="cls-53" x="895.52" y="320.11" width="44.99" height="53.34"/><rect class="cls-54" x="913.72" y="320.11" width="8.58" height="16.03"/><rect class="cls-53" x="802.52" y="320.11" width="44.99" height="53.34"/><rect class="cls-54" x="820.72" y="320.11" width="8.58" height="13.06"/><rect class="cls-53" x="849.11" y="320.11" width="44.99" height="53.34"/><rect class="cls-54" x="866.69" y="320.11" width="8.58" height="20.16"/><rect class="cls-55" x="958.31" y="423.97" width="8.58" height="11.09" transform="translate(1300.49 -609.36) rotate(90)"/><rect class="cls-56" x="802.52" y="363.7" width="137.99" height="13.1"/><rect class="cls-53" x="873.94" y="372.43" width="44.99" height="53.34"/><rect class="cls-54" x="880.34" y="372.43" width="8.58" height="20.16"/><rect class="cls-53" x="780.41" y="372.43" width="44.99" height="53.34"/><rect class="cls-54" x="800.02" y="372.43" width="8.58" height="20.16"/><rect class="cls-55" x="879.37" y="486.61" width="8.58" height="16.38" transform="translate(1286.83 -465.13) rotate(90)"/><rect class="cls-53" x="827.07" y="372.43" width="44.99" height="53.34"/><rect class="cls-54" x="860.4" y="372.43" width="8.58" height="13.06"/><rect class="cls-55" x="925.59" y="460.67" width="8.58" height="16.38" transform="translate(1307.12 -537.29) rotate(90)"/><rect class="cls-53" x="920.45" y="372.43" width="44.99" height="53.34"/><rect class="cls-54" x="952.7" y="372.43" width="8.58" height="13.06"/><rect class="cls-55" x="1039.47" y="483.07" width="8.58" height="16.38" transform="translate(1443.4 -628.77) rotate(90)"/><rect class="cls-57" x="784.89" y="224.9" width="18.4" height="86.41"/><rect class="cls-48" x="869.47" y="223.8" width="58.61" height="41.86" rx="3.91"/><g class="cls-58"><g class="cls-59"><rect class="cls-60" x="1907.77" y="247.93" width="15.5" height="30.99"/></g></g><g class="cls-58"><g class="cls-59"><rect class="cls-1" x="1907.77" y="247.93" width="15.5" height="30.99"/></g></g><g class="cls-58"><g class="cls-61"><rect class="cls-60" x="1886.08" y="247.93" width="15.5" height="30.99"/></g></g><g class="cls-58"><g class="cls-61"><rect class="cls-1" x="1886.08" y="247.93" width="15.5" height="30.99"/></g></g><rect class="cls-2" x="1873.68" y="89.87" width="83.68" height="375"/><g class="cls-62"><rect class="cls-2" x="1858.19" y="74.38" width="114.67" height="405.99"/></g><rect class="cls-2" x="1811.7" y="176.65" width="96.07" height="288.22"/><g class="cls-63"><rect class="cls-2" x="1796.2" y="161.15" width="127.06" height="319.21"/></g><rect class="cls-2" x="1737.32" y="275.82" width="96.07" height="189.05"/><g class="cls-64"><rect class="cls-2" x="1721.83" y="260.33" width="127.06" height="220.04"/></g><rect class="cls-2" x="1653.64" y="15.5" width="83.68" height="449.37"/><g class="cls-65"><rect class="cls-2" x="1638.15" width="114.67" height="480.37"/></g><rect class="cls-2" x="1576.17" y="89.87" width="83.68" height="375"/><g class="cls-66"><rect class="cls-2" x="1560.67" y="74.38" width="114.67" height="405.99"/></g><g class="cls-58"><g class="cls-67"><rect class="cls-60" x="1805.5" y="204.54" width="77.48" height="46.49"/></g></g><rect class="cls-2" x="1464.6" y="176.65" width="114.67" height="288.22"/><g class="cls-68"><rect class="cls-2" x="1449.1" y="161.15" width="145.66" height="319.21"/></g><g class="cls-69"><rect class="cls-22" x="1424.31" y="418.38" width="560.94" height="61.98"/></g><g class="cls-58"><g class="cls-70"><rect class="cls-60" x="1693.93" y="18.59" width="46.49" height="381.19"/></g></g><g class="cls-58"><g class="cls-71"><rect class="cls-60" x="1672.24" y="18.59" width="46.49" height="381.19"/></g></g><g class="cls-58"><g class="cls-72"><rect class="cls-60" x="1650.55" y="18.59" width="46.49" height="381.19"/></g></g><g class="cls-58"><g class="cls-73"><rect class="cls-60" x="1892.28" y="83.68" width="46.49" height="61.98"/></g></g><g class="cls-58"><g class="cls-74"><rect class="cls-60" x="1870.58" y="83.68" width="46.49" height="61.98"/></g></g><g class="cls-58"><g class="cls-75"><rect class="cls-60" x="1504.89" y="173.55" width="46.49" height="61.98"/></g></g><g class="cls-58"><g class="cls-76"><rect class="cls-60" x="1483.19" y="173.55" width="46.49" height="61.98"/></g></g><g class="cls-58"><g class="cls-77"><rect class="cls-60" x="1461.5" y="173.55" width="46.49" height="61.98"/></g></g><g class="cls-58"><g class="cls-78"><rect class="cls-60" x="1892.28" y="120.87" width="46.49" height="61.98"/></g></g><g class="cls-58"><g class="cls-79"><rect class="cls-60" x="1870.58" y="120.87" width="46.49" height="61.98"/></g></g><g class="cls-58"><g class="cls-80"><rect class="cls-60" x="1892.28" y="158.06" width="46.49" height="61.98"/></g></g><g class="cls-58"><g class="cls-81"><rect class="cls-60" x="1870.58" y="158.06" width="46.49" height="61.98"/></g></g><g class="cls-58"><g class="cls-82"><rect class="cls-60" x="1892.28" y="195.25" width="46.49" height="61.98"/></g></g><g class="cls-58"><g class="cls-83"><rect class="cls-60" x="1870.58" y="195.25" width="46.49" height="61.98"/></g></g><g class="cls-58"><g class="cls-59"><rect class="cls-60" x="1892.28" y="232.43" width="46.49" height="61.98"/></g></g><g class="cls-58"><g class="cls-84"><rect class="cls-60" x="1805.5" y="173.55" width="77.48" height="46.49"/></g></g><g class="cls-58"><g class="cls-85"><rect class="cls-60" x="1579.27" y="89.87" width="77.48" height="46.49"/></g></g><g class="cls-58"><g class="cls-86"><rect class="cls-60" x="1579.27" y="120.87" width="77.48" height="46.49"/></g></g><g class="cls-58"><g class="cls-87"><rect class="cls-60" x="1579.27" y="151.86" width="77.48" height="46.49"/></g></g><g class="cls-58"><g class="cls-88"><rect class="cls-60" x="1805.5" y="235.53" width="77.48" height="46.49"/></g></g><g class="cls-58"><g class="cls-61"><rect class="cls-60" x="1870.58" y="232.43" width="46.49" height="61.98"/></g></g><g class="cls-58"><g class="cls-89"><rect class="cls-60" x="1892.28" y="269.62" width="46.49" height="61.98"/></g></g><g class="cls-58"><g class="cls-90"><rect class="cls-60" x="1870.58" y="269.62" width="46.49" height="61.98"/></g></g><g class="cls-58"><g class="cls-91"><rect class="cls-60" x="1504.89" y="213.84" width="46.49" height="61.98"/></g></g><g class="cls-58"><g class="cls-92"><rect class="cls-60" x="1483.19" y="213.84" width="46.49" height="61.98"/></g></g><g class="cls-58"><g class="cls-93"><rect class="cls-60" x="1461.5" y="213.84" width="46.49" height="61.98"/></g></g><g class="cls-58"><g class="cls-94"><rect class="cls-60" x="1504.89" y="254.13" width="46.49" height="61.98"/></g></g><g class="cls-58"><g class="cls-95"><rect class="cls-60" x="1483.19" y="254.13" width="46.49" height="61.98"/></g></g><g class="cls-58"><g class="cls-96"><rect class="cls-60" x="1461.5" y="254.13" width="46.49" height="61.98"/></g></g><g class="cls-58"><g class="cls-97"><rect class="cls-60" x="1504.89" y="294.42" width="46.49" height="61.98"/></g></g><g class="cls-58"><g class="cls-98"><rect class="cls-60" x="1483.19" y="294.42" width="46.49" height="61.98"/></g></g><g class="cls-58"><g class="cls-99"><rect class="cls-60" x="1461.5" y="294.42" width="46.49" height="61.98"/></g></g><g class="cls-58"><g class="cls-100"><rect class="cls-60" x="1527.97" y="172.78" width="46.49" height="61.98"/></g></g><g class="cls-58"><g class="cls-101"><rect class="cls-60" x="1527.97" y="213.06" width="46.49" height="61.98"/></g></g><g class="cls-58"><g class="cls-102"><rect class="cls-60" x="1914.45" y="83.7" width="46.49" height="61.98"/></g></g><g class="cls-58"><g class="cls-103"><rect class="cls-60" x="1914.45" y="120.89" width="46.49" height="61.98"/></g></g><g class="cls-58"><g class="cls-104"><rect class="cls-60" x="1914.45" y="158.08" width="46.49" height="61.98"/></g></g><g class="cls-58"><g class="cls-105"><rect class="cls-60" x="1914.45" y="195.27" width="46.49" height="61.98"/></g></g><g class="cls-58"><g class="cls-106"><rect class="cls-60" x="1914.45" y="232.46" width="46.49" height="61.98"/></g></g><g class="cls-58"><g class="cls-107"><rect class="cls-60" x="1914.45" y="269.65" width="46.49" height="61.98"/></g></g><path class="cls-108" d="M1835.43,343.22l136.64-93,10.68,7L1872.22,420.7Z" transform="translate(-91.62 -76.27)"/><path class="cls-26" d="M1602.59,377.28s4.93-6.23,100.44-11.11l19.9-59.38h-12.72s.84-10.42,19.13-20.92h107v20.92h0V439.27h-76.17l-190.56-4S1564.11,397.45,1602.59,377.28Z" transform="translate(-91.62 -76.27)"/><path class="cls-109" d="M1574.15,420.14H1770.5V499.9H1573.16a9.79,9.79,0,0,1-9.79-9.79V430.92A10.78,10.78,0,0,1,1574.15,420.14Z" transform="translate(-91.62 -76.27)"/><g class="cls-58"><g class="cls-110"><rect class="cls-60" x="1527.97" y="251.55" width="46.49" height="61.98"/></g></g><path class="cls-111" d="M2020.29,444.46h-285.8a14.7,14.7,0,0,0-14.71,14.69v0h0v29.15a14.7,14.7,0,0,0,14.7,14.7h271.1a14.71,14.71,0,0,0,14.71-14.7h0Z" transform="translate(-91.62 -76.27)"/><path class="cls-112" d="M1719,306.79h37.24c2.22,16.38-.69,27.69-4.24,35.23,0,0-1.5,3.19-14.4,23.1l-38.53,1.05Z" transform="translate(-91.62 -76.27)"/><rect class="cls-113" x="1671.75" y="223.25" width="66.01" height="139.27" rx="7.26"/><rect class="cls-16" x="1836.35" y="326.79" width="36.86" height="112.77" transform="translate(3617.94 690.08) rotate(180)"/><rect class="cls-114" x="1694.33" y="323.62" width="18.64" height="5.32" rx="2.25"/><path class="cls-114" d="M1620,392.73V347.22a3.91,3.91,0,0,1,3.92-3.92h10v49.43H1620Z" transform="translate(-91.62 -76.27)"/><rect class="cls-114" x="1523.93" y="316.46" width="9.42" height="7.16"/><rect class="cls-112" x="1679.67" y="234.2" width="48.79" height="48.79" rx="6.16"/><rect class="cls-115" x="1539.51" y="363.01" width="404.77" height="14.35"/><path class="cls-114" d="M1782.45,324.69h12.26a4.89,4.89,0,0,1,4.9,4.89v32.35a3,3,0,0,1-2.95,2.94h-5.41v3.72h-.06v7.67h-5.48v1.95h-6.32V371.9h5.88v-3.31h-.08v-3.72h-4.69a3,3,0,0,1-3-2.94V329.58A4.89,4.89,0,0,1,1782.45,324.69Z" transform="translate(-91.62 -76.27)"/><path class="cls-116" d="M2007.18,494a39,39,0,0,0-38.92-39.16h0a39.06,39.06,0,0,0-39.16,38.93,40.63,40.63,0,0,0,.4,5.62h-7a46,46,0,1,1,91.69-5.39,44.2,44.2,0,0,1-.34,5.39h-7.07A42.11,42.11,0,0,0,2007.18,494Z" transform="translate(-91.62 -76.27)"/><path class="cls-114" d="M1563.66,450.48a146.25,146.25,0,0,0,20-.33,112,112,0,0,0,20.22-3.22,99.44,99.44,0,0,0,16-5.61,116.74,116.74,0,0,0,17.59-10.43c6.67-4.53,13.56-9.22,23.51-12.73a101.4,101.4,0,0,1,45-4.55c18.16,2.29,33.58,9.52,44.6,20.93,3.32,3.44,17.35,18.65,16.91,40.9-.51,25.64-20,47.32-25.31,45.28-1.66-.64-2.88-4.05-1.47-15.44l-168.08-1.12h-.38l-.31-.24c-3.17-2.59-13.64-12.24-15-28A41,41,0,0,1,1563.66,450.48Z" transform="translate(-91.62 -76.27)"/><circle class="cls-117" cx="1611.56" cy="417.68" r="39.04"/><g class="cls-58"><g class="cls-118"><rect class="cls-60" x="1578.25" y="181.33" width="77.48" height="46.49"/></g></g><circle class="cls-119" cx="1611.56" cy="417.68" r="29.28"/><circle class="cls-22" cx="1611.83" cy="417.68" r="9.76"/><circle class="cls-117" cx="1794.97" cy="417.68" r="39.04"/><circle class="cls-119" cx="1794.97" cy="417.68" r="29.28"/><circle class="cls-22" cx="1795.24" cy="417.68" r="9.76"/><path class="cls-116" d="M1925.62,494a39,39,0,0,0-39-39.09h0a39,39,0,0,0-39.08,39,38.11,38.11,0,0,0,.38,5.54h-7a45.9,45.9,0,0,1,45.66-51.4h0a46,46,0,0,1,45.68,51.4h-7A39.56,39.56,0,0,0,1925.62,494Z" transform="translate(-91.62 -76.27)"/><circle class="cls-117" cx="1876.25" cy="417.68" r="39.04"/><circle class="cls-119" cx="1876.25" cy="417.68" r="29.28"/><circle class="cls-22" cx="1876.53" cy="417.68" r="9.76"/><path class="cls-116" d="M1742.2,494a39,39,0,0,0-38.91-39.16h0a39,39,0,0,0-39.15,38.9v0a37.74,37.74,0,0,0,.39,5.62h-7a45.83,45.83,0,0,1,45.67-51.4h0a46,46,0,0,1,46,46,42.28,42.28,0,0,1-.34,5.39h-7A38.81,38.81,0,0,0,1742.2,494Z" transform="translate(-91.62 -76.27)"/><path class="cls-120" d="M1741.6,504.33" transform="translate(-91.62 -76.27)"/><rect class="cls-111" x="1981.65" y="252.32" width="8.27" height="91.44" transform="translate(3879.94 519.8) rotate(180)"/><circle class="cls-112" cx="1894.16" cy="168.36" r="13.78"/><rect class="cls-121" x="1891.43" y="264.83" width="4.51" height="35.43"/><path class="cls-121" d="M1996.52,387.41c5.11,0,9.25-4.71,9.25-10.52H2010c0,8.45-6,15.31-13.46,15.31s-13.47-6.86-13.47-15.31h4.21C1987.26,382.7,1991.4,387.41,1996.52,387.41Z" transform="translate(-91.62 -76.27)"/><rect class="cls-122" x="1976.08" y="320.98" width="19.4" height="32.67" transform="translate(3879.94 598.36) rotate(180)"/><path class="cls-123" d="M1766.29,285.87h42.09V275.4l-.81-1.33q-3.84-9.93-7.67-19.87h-30.85q-3.83,9.94-7.67,19.87l-.81,1.33v10.47h42.09" transform="translate(-91.62 -76.27)"/><rect class="cls-122" x="1760.57" y="275.4" width="47.82" height="10.47" transform="translate(3477.33 485) rotate(180)"/><polygon class="cls-124" points="1684.88 179.44 1678.62 179.44 1672.71 194.5 1678.8 194.5 1684.88 179.44"/><polygon class="cls-114" points="323.17 1158.17 490.92 1295.1 658.67 1158.17 323.17 1158.17"/><polygon class="cls-22" points="658.67 1384.73 655.68 1382.86 655.68 1162.25 655.68 1162.25 655.68 1162.25 655.68 1161.16 654.25 1161.16 489.53 1035.85 314.04 1161.16 312.51 1161.16 312.51 1387.72 655.68 1387.72 655.68 1384.73 658.67 1384.73"/><polygon class="cls-125" points="326.71 1148.8 503.73 1022.39 669.88 1148.8 326.71 1148.8"/><polygon class="cls-125" points="669.88 1147.71 326.71 1147.71 498.29 1284.64 669.88 1147.71"/><rect class="cls-40" x="374.61" y="1072.84" width="242.89" height="261.57"/><polygon class="cls-126" points="498.29 1284.64 326.71 1147.71 326.71 1374.27 669.88 1374.27 669.88 1147.71 498.29 1284.64"/><polygon class="cls-127" points="326.71 1374.27 498.29 1266.49 669.88 1374.27 326.71 1374.27"/><path class="cls-128" d="M619.32,1254.74c-.2,1.1-.42,2.35-.67,3.74a19.63,19.63,0,0,0-.37,3.14c0,2.2.85,3.3,2.54,3.3a8.17,8.17,0,0,0,4.19-1.36,14.93,14.93,0,0,0,4.27-4.11,24,24,0,0,0,3.36-7.25,37.73,37.73,0,0,0,1.35-10.78,33.33,33.33,0,0,0-2.92-14.29,29.24,29.24,0,0,0-8.22-10.46,37.67,37.67,0,0,0-12.57-6.51,53.05,53.05,0,0,0-15.78-2.24,45.2,45.2,0,0,0-17.06,3.06,36.75,36.75,0,0,0-13,8.68,39,39,0,0,0-8.31,13.25,47.06,47.06,0,0,0-2.92,16.9,44.88,44.88,0,0,0,3.22,17.44,36.92,36.92,0,0,0,9.05,13.09,39.52,39.52,0,0,0,13.92,8.22,52.75,52.75,0,0,0,17.66,2.85,51.38,51.38,0,0,0,15.77-2.29,44.2,44.2,0,0,0,13-6.51h16.44a50.1,50.1,0,0,1-20,16.68q-11.89,5.48-30,5.47a56,56,0,0,1-21.62-4.19,55.37,55.37,0,0,1-29.56-72.5h0a55.59,55.59,0,0,1,29.56-29.55,54.19,54.19,0,0,1,21.61-4.31,69.88,69.88,0,0,1,21.1,3.14,56.89,56.89,0,0,1,17.66,9,44.41,44.41,0,0,1,12.19,14.2,38.51,38.51,0,0,1,4.57,18.68,37.79,37.79,0,0,1-3.74,17,42.66,42.66,0,0,1-9.35,12.7,41.24,41.24,0,0,1-12.34,7.93,33.5,33.5,0,0,1-12.71,2.78,9.76,9.76,0,0,1-5.83-1.72,7,7,0,0,1-2.85-4.87h-.6a17.93,17.93,0,0,1-6.66,4.79,22.84,22.84,0,0,1-9.2,1.8,21.68,21.68,0,0,1-8.9-1.88,22.27,22.27,0,0,1-7.47-5.31,25.44,25.44,0,0,1-5.1-8.13,28.11,28.11,0,0,1-1.87-10.54,37.69,37.69,0,0,1,2.17-12.71,35.5,35.5,0,0,1,6.11-10.94,29.72,29.72,0,0,1,9.58-7.63,27.31,27.31,0,0,1,12.49-2.84,24.71,24.71,0,0,1,10.41,2.17,23.09,23.09,0,0,1,8.45,7l1.19-5.54h13.77Zm-37,4.87a9.64,9.64,0,0,0,7.86,3.51,14.58,14.58,0,0,0,6.21-1.27,15.72,15.72,0,0,0,4.79-3.36,15.4,15.4,0,0,0,4.26-10.63,11.78,11.78,0,0,0-3.21-8.53,11.54,11.54,0,0,0-8.61-3.29,12.14,12.14,0,0,0-5.61,1.34,14.91,14.91,0,0,0-4.48,3.52,17.83,17.83,0,0,0-3,4.94,14.26,14.26,0,0,0-1.12,5.46,12.61,12.61,0,0,0,2.9,8.34Z" transform="translate(-91.62 -76.27)"/><path class="cls-26" d="M611.71,1247.27c-.21,1.1-.43,2.34-.67,3.74a19.38,19.38,0,0,0-.38,3.14c0,2.19.85,3.29,2.54,3.29a8.26,8.26,0,0,0,4.2-1.35,15,15,0,0,0,4.26-4.11,24,24,0,0,0,3.37-7.26,38.06,38.06,0,0,0,1.34-10.77,33.32,33.32,0,0,0-2.91-14.29,29.3,29.3,0,0,0-8.22-10.47,37.65,37.65,0,0,0-12.62-6.48,53.39,53.39,0,0,0-15.78-2.25,45.49,45.49,0,0,0-17.07,3.07,37,37,0,0,0-13,8.68,39.17,39.17,0,0,0-8.31,13.25,46.83,46.83,0,0,0-2.91,16.9,44.87,44.87,0,0,0,3.21,17.44,36.82,36.82,0,0,0,9.06,13.09,39.43,39.43,0,0,0,13.92,8.22,52.65,52.65,0,0,0,17.65,2.85,51.41,51.41,0,0,0,15.82-2.31,44.6,44.6,0,0,0,12.94-6.51h16.45a50.27,50.27,0,0,1-20,16.69q-11.9,5.46-30,5.46a56.11,56.11,0,0,1-21.6-4.2,55.31,55.31,0,0,1-29.59-72.4l0-.09A55.62,55.62,0,0,1,563,1191a54.22,54.22,0,0,1,21.61-4.3,70.14,70.14,0,0,1,21.1,3.13,56.89,56.89,0,0,1,17.66,9,44.5,44.5,0,0,1,12.19,14.2,38.52,38.52,0,0,1,4.57,18.69,37.82,37.82,0,0,1-3.74,17,43,43,0,0,1-9.36,12.7,41.11,41.11,0,0,1-12.34,7.93,33.3,33.3,0,0,1-12.71,2.77,9.69,9.69,0,0,1-5.83-1.72,6.87,6.87,0,0,1-2.84-4.86h-.6a18,18,0,0,1-6.66,4.78,22.54,22.54,0,0,1-9.2,1.8,21.88,21.88,0,0,1-8.91-1.87,22.56,22.56,0,0,1-7.47-5.31,25.54,25.54,0,0,1-5.09-8.16,28.33,28.33,0,0,1-1.87-10.55,37.92,37.92,0,0,1,2.17-12.7,35.76,35.76,0,0,1,6.11-10.91,29.72,29.72,0,0,1,9.58-7.63,27.23,27.23,0,0,1,12.5-2.84,24.62,24.62,0,0,1,10.39,2.17,23,23,0,0,1,8.46,7l1.2-5.53H617.7Zm-37,4.87a9.68,9.68,0,0,0,7.85,3.51,14.81,14.81,0,0,0,6.22-1.27,15.72,15.72,0,0,0,4.79-3.36,15.4,15.4,0,0,0,4.26-10.63,11.65,11.65,0,0,0-3.22-8.53,11.51,11.51,0,0,0-8.6-3.27,12.14,12.14,0,0,0-5.61,1.34,15.08,15.08,0,0,0-4.49,3.52,17.68,17.68,0,0,0-3,4.94,14.6,14.6,0,0,0-1.12,5.46,12.64,12.64,0,0,0,2.91,8.32Z" transform="translate(-91.62 -76.27)"/><rect class="cls-22" x="800.67" y="993.46" width="252.98" height="433.67" rx="32.16"/><rect class="cls-129" x="811.03" y="982.99" width="252.98" height="433.67" rx="32.16"/><rect class="cls-22" x="829.1" y="1031.41" width="216.84" height="325.25"/><path class="cls-130" d="M988.73,1083.73h80.81a2.89,2.89,0,0,1,2.89,2.89h0a2.89,2.89,0,0,1-2.89,2.89H988.73a2.89,2.89,0,0,1-2.89-2.89h0A2.89,2.89,0,0,1,988.73,1083.73Z" transform="translate(-91.62 -76.27)"/><path class="cls-131" d="M1029.14,1448.61h0a14.45,14.45,0,0,1,14.45,14.45h0a14.45,14.45,0,0,1-14.45,14.46h0a14.45,14.45,0,0,1-14.46-14.46h0A14.45,14.45,0,0,1,1029.14,1448.61Z" transform="translate(-91.62 -76.27)"/><polygon class="cls-22" points="910 1223.46 891.41 1223.46 891.41 1054.73 1072.53 1054.73 1072.53 1223.46 933.9 1223.46 921.75 1244.29 910 1223.46"/><polygon class="cls-39" points="921.57 1214.07 902.97 1214.07 902.97 1045.33 1084.09 1045.33 1084.09 1214.07 945.46 1214.07 933.31 1234.89 921.57 1214.07"/><path class="cls-132" d="M1102.24,1161.81v-29.64h-53.78v145.18l8.27-12,8.27,12,8.27-12,8.27,12,8.27-12,8.27,12,8.27-12,8.27,12,8.27-12,8.27,12V1161.81Z" transform="translate(-91.62 -76.27)"/><polygon class="cls-133" points="1010.62 1055.9 1010.62 1085.53 1039.53 1085.53 1010.62 1055.9"/><line class="cls-134" x1="961.9" y1="1150.14" x2="1034.47" y2="1150.14"/><line class="cls-134" x1="961.9" y1="1160.92" x2="1034.47" y2="1160.92"/><g class="cls-135"><rect class="cls-51" x="993.15" y="1101.53" width="39.67" height="12.35"/><rect class="cls-51" x="993.15" y="1117.31" width="39.67" height="12.35"/></g><g class="cls-135"><g class="cls-136"><g class="cls-137"><g class="cls-136"><g class="cls-138"><g class="cls-136"><rect x="942.46" y="1083.27" width="64.64" height="64.64"/></g></g></g></g></g></g><path class="cls-22" d="M1574.21,1199.29a13.64,13.64,0,0,0-13.64-13.63h0a13.63,13.63,0,0,0-13.63,13.63h0v27.27h27.27Z" transform="translate(-91.62 -76.27)"/><path class="cls-22" d="M1452,1226.56h-48.08a44.21,44.21,0,0,1-6.94,47.64h52.09a90.77,90.77,0,0,0,2.92-47.64Z" transform="translate(-91.62 -76.27)"/><path class="cls-22" d="M1367.78,1286.72a40.74,40.74,0,1,1,37-57.77h44.29a83,83,0,1,0-2.69,43.87h-48A40.6,40.6,0,0,1,1367.78,1286.72Z" transform="translate(-91.62 -76.27)"/><path class="cls-22" d="M1662.89,1226.56h-45.34v7.89a13.64,13.64,0,0,1-13.63,13.64h0a13.64,13.64,0,0,1-13.63-13.64v-7.89h-16.08v7.89a13.64,13.64,0,0,1-13.64,13.64h0a13.64,13.64,0,0,1-13.63-13.64v-7.89h-95a90.77,90.77,0,0,1-2.91,47.64h213.83a23.82,23.82,0,0,0,23.82-23.82h0a23.82,23.82,0,0,0-23.81-23.82Z" transform="translate(-91.62 -76.27)"/><path class="cls-22" d="M1617.55,1199.29a13.63,13.63,0,0,0-13.63-13.63h0a13.63,13.63,0,0,0-13.63,13.63h0v27.27h27.21Z" transform="translate(-91.62 -76.27)"/><path class="cls-22" d="M1604,1248h0a13.64,13.64,0,0,0,13.63-13.64h0v-7.89h-27.24v7.89A13.63,13.63,0,0,0,1604,1248Z" transform="translate(-91.62 -76.27)"/><path class="cls-139" d="M1570.93,1237h0a13.64,13.64,0,0,0,13.64-13.64h0v-7.83h-27.25v7.85A13.64,13.64,0,0,0,1570.93,1237Z" transform="translate(-91.62 -76.27)"/><path class="cls-139" d="M1462.34,1215.49h-48.07a44.23,44.23,0,0,1-6.91,47.64h52.08a90.67,90.67,0,0,0,2.92-47.64Z" transform="translate(-91.62 -76.27)"/><path class="cls-139" d="M1378.14,1275.65a40.75,40.75,0,1,1,37-57.77h44.29a83,83,0,1,0-2.68,43.87h-48A40.62,40.62,0,0,1,1378.14,1275.65Z" transform="translate(-91.62 -76.27)"/><path class="cls-139" d="M1673.23,1215.49h-45.31v7.85a13.64,13.64,0,0,1-13.64,13.64h0a13.64,13.64,0,0,1-13.63-13.64h0v-7.85H1584.5v7.85a13.64,13.64,0,0,1-13.63,13.64h0a13.64,13.64,0,0,1-13.63-13.64h0v-7.85h-94.9a90.67,90.67,0,0,1-2.91,47.64h213.8a23.83,23.83,0,0,0,23.82-23.82h0A23.82,23.82,0,0,0,1673.23,1215.49Z" transform="translate(-91.62 -76.27)"/><path class="cls-139" d="M1627.92,1188.22a13.64,13.64,0,0,0-13.64-13.63h0a13.63,13.63,0,0,0-13.63,13.63v27.27h27.22Z" transform="translate(-91.62 -76.27)"/><path class="cls-139" d="M1614.3,1237h0a13.64,13.64,0,0,0,13.64-13.64h0v-7.83h-27.25v7.85A13.64,13.64,0,0,0,1614.3,1237Z" transform="translate(-91.62 -76.27)"/><path class="cls-139" d="M1584.55,1188.22a13.64,13.64,0,0,0-13.64-13.63h0a13.63,13.63,0,0,0-13.63,13.63v27.27h27.22Z" transform="translate(-91.62 -76.27)"/><rect class="cls-22" x="1324.3" y="1212.53" width="315.73" height="121.99" rx="16.12"/><rect class="cls-140" x="1341.52" y="1195.28" width="315.73" height="121.99" rx="16.12"/><path class="cls-22" d="M1481,1356.23l-9.66-7,9.18-12.92-15.07-5,3.38-11.23,15.34,5v-16.2H1496v16.19l15.34-5,3.75,11.24-15.47,5,9.18,12.91-9.66,7-9.06-13Z" transform="translate(-91.62 -76.27)"/><path class="cls-22" d="M1548.18,1356.23l-9.67-7,9.18-12.92-15.07-5,3.38-11.23,15.34,5v-16.2h11.84v16.19l15.35-5,3.74,11.24-15.46,5,9.18,12.91-9.68,7-9.06-13Z" transform="translate(-91.62 -76.27)"/><path class="cls-22" d="M1615.34,1356.23l-9.66-7,9.18-12.92-15.1-5,3.38-11.23,15.35,5v-16.2h11.83v16.19l15.35-5,3.74,11.24-15.47,5,9.19,12.91-9.67,7-9-13Z" transform="translate(-91.62 -76.27)"/><path class="cls-22" d="M1682.51,1356.23l-9.67-7,9.19-12.92-15.07-5,3.39-11.23,15.34,5v-16.2h11.84v16.19l15.34-5,3.74,11.24-15.46,5,9.18,12.91-9.67,7-9.05-13Z" transform="translate(-91.62 -76.27)"/></svg>