<?xml version="1.0" encoding="utf-8"?>
<!-- Generator: Adobe Illustrator 25.4.1, SVG Export Plug-In . SVG Version: 6.00 Build 0)  -->
<svg version="1.1" id="Layer_1" xmlns="http://www.w3.org/2000/svg" xmlns:xlink="http://www.w3.org/1999/xlink" x="0px" y="0px"
	 viewBox="0 0 64 66.6" style="enable-background:new 0 0 64 66.6;" xml:space="preserve">
<g>
	<path d="M61.3,2c-0.4-0.1-0.9,0-1.1,0.3L58,5.3l-2.2-2.9c-0.4-0.4-1-0.5-1.5-0.1c0,0-0.1,0.1-0.1,0.1L52,5.3l-2.2-2.9
		c-0.4-0.4-1-0.5-1.5-0.1c0,0-0.1,0.1-0.1,0.1L46,5.3l-2.2-2.9c-0.4-0.4-1-0.5-1.5-0.1c0,0-0.1,0.1-0.1,0.1L40,5.3l-2.2-2.9
		c-0.4-0.4-1-0.5-1.5-0.1c0,0-0.1,0.1-0.1,0.1L34,5.3l-2.2-2.9c-0.4-0.4-1-0.5-1.5-0.1c0,0-0.1,0.1-0.1,0.1L28,5.3l-2.2-2.9
		c-0.4-0.4-1-0.5-1.5-0.1c0,0-0.1,0.1-0.1,0.1L22,5.3l-2.2-2.9c-0.3-0.4-1-0.5-1.4-0.2C18.1,2.4,18,2.7,18,3v21h-1c-0.6,0-1,0.4-1,1
		v3.3c-2.4,0.4-4.7,1.4-6.7,2.8L7,28.7c-0.4-0.4-1-0.4-1.4,0l-2.8,2.8c-0.4,0.4-0.4,1,0,1.4l2.3,2.3C-0.3,43,1.6,53.6,9.3,58.9
		c4.3,3,9.7,3.8,14.7,2.3l0.2,0.3c0.2,0.3,0.5,0.4,0.8,0.4c0.3,0,0.6-0.1,0.8-0.4L27,60c0.5-0.2,0.9-0.5,1.4-0.8l1.8,2.4
		c0.3,0.4,1,0.5,1.4,0.2c0.1-0.1,0.1-0.1,0.2-0.2l2.2-2.9l2.2,2.9c0.4,0.4,1,0.5,1.5,0.1c0,0,0.1-0.1,0.1-0.1l2.2-2.9l2.2,2.9
		c0.4,0.4,1,0.5,1.5,0.1c0,0,0.1-0.1,0.1-0.1l2.2-2.9l2.2,2.9c0.4,0.4,1,0.5,1.5,0.1c0,0,0.1-0.1,0.1-0.1l2.2-2.9l2.2,2.9
		c0.4,0.4,1,0.5,1.5,0.1c0,0,0.1-0.1,0.1-0.1l2.2-2.9l2.2,2.9c0.2,0.3,0.5,0.4,0.8,0.4c0.1,0,0.2,0,0.3,0c0.4-0.1,0.7-0.5,0.7-1V3
		C62,2.6,61.7,2.2,61.3,2z M18,26h2v2c-0.3,0-0.7,0-1,0s-0.7,0-1,0V26z M4.8,32.3l1.4-1.4l1.5,1.5c-0.5,0.4-1,0.9-1.4,1.4L4.8,32.3z
		 M19,60c-8.3,0-15-6.7-15-15s6.7-15,15-15s15,6.7,15,15C34,53.3,27.3,60,19,60z M30.3,32.3l1.5-1.5l1.4,1.4l-1.5,1.5
		C31.2,33.2,30.8,32.8,30.3,32.3z M60,58l-1.2-1.6c-0.4-0.4-1-0.5-1.5-0.1c0,0-0.1,0.1-0.1,0.1L55,59.3l-2.2-2.9
		c-0.4-0.4-1-0.5-1.5-0.1c0,0-0.1,0.1-0.1,0.1L49,59.3l-2.2-2.9c-0.4-0.4-1-0.5-1.5-0.1c0,0-0.1,0.1-0.1,0.1L43,59.3l-2.2-2.9
		c-0.4-0.4-1-0.5-1.5-0.1c0,0-0.1,0.1-0.1,0.1L37,59.3l-2.2-2.9c-0.4-0.4-1-0.5-1.5-0.1c0,0-0.1,0.1-0.1,0.1L31,59.3L30,58
		c6.7-5.6,8-15.5,3-22.7l2.3-2.3c0.4-0.4,0.4-1,0-1.4l-2.8-2.8c-0.4-0.4-1-0.4-1.4,0l-2.3,2.3c-2-1.4-4.3-2.4-6.7-2.8V25
		c0-0.6-0.4-1-1-1h-1V6l1.2,1.6c0.4,0.4,1,0.5,1.5,0.1c0,0,0.1-0.1,0.1-0.1L25,4.7l2.2,2.9c0.4,0.4,1,0.5,1.5,0.1
		c0,0,0.1-0.1,0.1-0.1L31,4.7l2.2,2.9c0.4,0.4,1,0.5,1.5,0.1c0,0,0.1-0.1,0.1-0.1L37,4.7l2.2,2.9c0.4,0.4,1,0.5,1.5,0.1
		c0,0,0.1-0.1,0.1-0.1L43,4.7l2.2,2.9c0.4,0.4,1,0.5,1.5,0.1c0,0,0.1-0.1,0.1-0.1L49,4.7l2.2,2.9c0.4,0.4,1,0.5,1.5,0.1
		c0,0,0.1-0.1,0.1-0.1L55,4.7l2.2,2.9c0.4,0.4,1,0.5,1.5,0.1c0,0,0.1-0.1,0.1-0.1L60,6V58z"/>
	<rect x="36" y="18" width="4" height="2"/>
	<rect x="42" y="18" width="10" height="2"/>
	<rect x="36" y="22" width="16" height="2"/>
	<rect x="38" y="30" width="12" height="2"/>
	<rect x="52" y="30" width="4" height="2"/>
	<rect x="38" y="34" width="12" height="2"/>
	<rect x="52" y="34" width="4" height="2"/>
	<rect x="38" y="38" width="12" height="2"/>
	<rect x="52" y="38" width="4" height="2"/>
	<rect x="38" y="42" width="12" height="2"/>
	<rect x="52" y="42" width="4" height="2"/>
	<rect x="38" y="46" width="12" height="2"/>
	<rect x="52" y="46" width="4" height="2"/>
	<rect x="38" y="50" width="12" height="2"/>
	<rect x="52" y="50" width="4" height="2"/>
	<path d="M27,16h2c0.6,0,1,0.4,1,1h2c0-1.7-1.3-3-3-3v-1h-2v1c-1.7,0-3,1.3-3,3s1.3,3,3,3h2c0.6,0,1,0.4,1,1s-0.4,1-1,1h-2
		c-0.6,0-1-0.4-1-1h-2c0,1.7,1.3,3,3,3v1h2v-1c1.7,0,3-1.3,3-3s-1.3-3-3-3l0,0h-2c-0.6,0-1-0.4-1-1S26.4,16,27,16z"/>
	<path d="M19,32c-7.2,0-13,5.8-13,13s5.8,13,13,13s13-5.8,13-13C32,37.8,26.2,32,19,32z M19,56c-6.1,0-11-4.9-11-11s4.9-11,11-11
		s11,4.9,11,11C30,51.1,25.1,56,19,56z"/>
	<path d="M20,42.2V38h-2v4.2c-1.6,0.6-2.4,2.3-1.8,3.8c0.6,1.6,2.3,2.4,3.8,1.8c1.6-0.6,2.4-2.3,1.8-3.8
		C21.5,43.2,20.9,42.5,20,42.2z M19,46c-0.6,0-1-0.4-1-1s0.4-1,1-1s1,0.4,1,1S19.6,46,19,46z"/>
</g>
</svg>
