<svg id="Layer_1" data-name="Layer 1" xmlns="http://www.w3.org/2000/svg" viewBox="0 0 455.17 287.14"><defs><style>.cls-1{fill:#ea6d59;}.cls-2{fill:#f4cf13;}.cls-3{fill:#ffd522;}.cls-4{fill:#939393;}.cls-13,.cls-5{fill:#4f4f4f;}.cls-6{fill:#d3b122;}.cls-7{fill:#da5b40;}.cls-8{fill:#353535;}.cls-9{fill:#6d6d6d;}.cls-10{fill:#606060;}.cls-11{fill:#141414;}.cls-12{fill:#f4f4f4;}.cls-13{stroke:#141414;stroke-miterlimit:10;stroke-width:5px;}.cls-14{fill:#c4412c;}.cls-15{fill:#e25f59;}.cls-16{fill:#fcfcfc;opacity:0.25;isolation:isolate;}</style></defs><g id="Layer_2" data-name="Layer 2"><g id="Layer_1-2" data-name="Layer 1-2"><path class="cls-1" d="M264.65,106.79,394.5,18.43,404.65,25l-105,155.39Z"/><path class="cls-2" d="M43.38,139.16s4.68-5.92,95.45-10.55l18.91-56.44H145.65s.8-9.9,18.18-19.88h101.7V72.17h0v125.9H193.17L12.07,194.3S6.8,158.32,43.38,139.16Z"/><path class="cls-3" d="M16.34,179.9h186.6v75.79H15.41A9.29,9.29,0,0,1,6.1,246.4h0V190.14A10.23,10.23,0,0,1,16.34,179.9Z"/><path class="cls-4" d="M440.33,203H168.73a14,14,0,0,0-14,14h0v27.7a14,14,0,0,0,14,14H426.35a14,14,0,0,0,14-14h0Z"/><path class="cls-5" d="M154,72.17h35.39c2.11,15.57-.66,26.32-4,33.49,0,0-1.42,3-13.68,22l-36.62,1Z"/><rect class="cls-6" x="196.17" y="65.26" width="62.73" height="132.35" rx="6.9"/><rect class="cls-7" x="265.53" y="91.18" width="35.02" height="107.17"/><rect class="cls-8" x="217.62" y="160.65" width="17.72" height="5.05" rx="2.14"/><path class="cls-8" d="M59.89,153.84V110.59a3.72,3.72,0,0,1,3.73-3.72H73.1v47H59.89Z"/><rect class="cls-8" x="55.69" y="153.85" width="8.95" height="6.8"/><rect class="cls-5" x="203.7" y="75.67" width="46.36" height="46.36" rx="5.85"/><rect class="cls-9" x="70.5" y="198.09" width="384.67" height="13.63"/><path class="cls-8" d="M214.3,89.18H226a4.66,4.66,0,0,1,4.66,4.65v30.74a2.81,2.81,0,0,1-2.8,2.79h-5.14v3.54h-.06v7.3H217.4v1.85h-6v-6H217V130.9h-.08v-3.54h-4.45a2.78,2.78,0,0,1-2.8-2.78h0V93.83A4.65,4.65,0,0,1,214.3,89.18Z"/><path class="cls-10" d="M427.87,250.11a37.1,37.1,0,0,0-37-37.21h0a37.1,37.1,0,0,0-37.22,37h0a38.28,38.28,0,0,0,.38,5.35h-6.68a40,40,0,0,1-.31-5.13,43.72,43.72,0,0,1,87.44,0,41.92,41.92,0,0,1-.31,5.13h-6.73A42.08,42.08,0,0,0,427.87,250.11Z"/><path class="cls-8" d="M6.38,208.73a140.11,140.11,0,0,0,19-.31,107.79,107.79,0,0,0,19.22-3.07A93.82,93.82,0,0,0,59.85,200a112.13,112.13,0,0,0,16.72-9.91c6.34-4.31,12.89-8.76,22.34-12.1a96.33,96.33,0,0,1,42.73-4.32c17.26,2.17,31.91,9.05,42.38,19.89,3.16,3.27,16.49,17.72,16.07,38.86-.48,24.37-19,45-24,43-1.58-.61-2.74-3.85-1.4-14.68L15,259.69h-.37l-.28-.23c-3-2.46-13-11.63-14.21-26.64A38.9,38.9,0,0,1,6.38,208.73Z"/><circle class="cls-11" cx="138.97" cy="250.04" r="37.1"/><circle class="cls-12" cx="138.97" cy="250.04" r="27.82"/><circle class="cls-11" cx="139.23" cy="250.04" r="9.27"/><circle class="cls-11" cx="313.27" cy="250.04" r="37.1" transform="translate(-16.94 22.84) rotate(-4.07)"/><circle class="cls-12" cx="313.27" cy="250.04" r="27.82" transform="translate(-16.94 22.84) rotate(-4.07)"/><circle class="cls-11" cx="313.53" cy="250.04" r="9.27"/><path class="cls-10" d="M350.37,250.11A37.11,37.11,0,0,0,313.32,213h0a37.1,37.1,0,0,0-37.15,37,35.58,35.58,0,0,0,.36,5.26h-6.68a43.73,43.73,0,0,1,38.33-48.55,42.85,42.85,0,0,1,5.07-.3h0a43.66,43.66,0,0,1,43.41,48.85H350A38.67,38.67,0,0,0,350.37,250.11Z"/><circle class="cls-11" cx="390.52" cy="250.04" r="37.1"/><circle class="cls-12" cx="390.52" cy="250.04" r="27.82"/><circle class="cls-11" cx="390.78" cy="250.04" r="9.27"/><path class="cls-10" d="M176.05,250.11a37.08,37.08,0,0,0-37-37.21h0a37.07,37.07,0,0,0-37.2,37v0h0a34.2,34.2,0,0,0,.37,5.35H95.54A43.66,43.66,0,0,1,139,206.4h0a43.74,43.74,0,0,1,43.72,43.72,41.93,41.93,0,0,1-.32,5.13h-6.67A38.39,38.39,0,0,0,176.05,250.11Z"/><rect class="cls-4" x="403.6" y="20.4" width="7.86" height="86.9"/><circle class="cls-5" cx="407.54" cy="13.1" r="13.1"/><rect class="cls-13" x="404.95" y="104.78" width="4.28" height="33.67"/><path class="cls-13" d="M417.74,148.79c4.85,0,8.79-4.48,8.79-10h4c0,8-5.73,14.55-12.79,14.55s-12.8-6.52-12.8-14.55h4C408.94,144.31,412.88,148.79,417.74,148.79Z"/><rect class="cls-14" x="398.32" y="85.65" width="18.44" height="31.05"/><path class="cls-15" d="M199,52.29h40V42.34l-.78-1.26L230.88,22.2H201.57l-7.29,18.88-.78,1.26v9.95h40"/><rect class="cls-14" x="193.51" y="42.34" width="45.44" height="9.95"/><polygon class="cls-16" points="208.65 23.63 202.7 23.63 197.09 37.95 202.87 37.95 208.65 23.63"/></g></g></svg>