<svg width="677" height="654" viewBox="0 0 677 654" fill="none" xmlns="http://www.w3.org/2000/svg">
<path d="M676.671 466.665C676.629 453.211 670.743 440.441 660.545 431.665C669.493 423.967 675.171 413.143 676.409 401.41C677.654 389.671 674.378 377.899 667.243 368.498C660.107 359.097 649.658 352.763 638.018 350.805C640.435 342.982 641.664 334.846 641.67 326.665C641.67 292.831 621.591 264.586 595.003 258.077V244.999C594.93 180.04 569.096 117.769 523.164 71.8387C477.232 25.9067 414.962 0.0733333 350.004 0H326.671C261.712 0.0729173 199.442 25.9067 153.511 71.8387C107.579 117.771 81.7456 180.041 81.6722 244.999V258.077C55.0842 264.587 35.0056 292.831 35.0056 326.665C35.0108 334.847 36.2399 342.982 38.6566 350.805C27.016 352.763 16.5686 359.097 9.43264 368.498C2.29717 377.899 -0.978829 389.67 0.265972 401.41C1.50556 413.145 7.18263 423.967 16.13 431.665C5.89557 440.415 0.00463939 453.201 0.00463939 466.665C0.00463939 480.129 5.8953 492.915 16.13 501.665C5.02583 511.201 -0.91136 525.425 0.113974 540.025C1.14523 554.623 9.01504 567.874 21.3433 575.76L0.597972 637.978C-0.584321 641.535 0.00942683 645.447 2.20731 648.489C4.39997 651.53 7.9209 653.332 11.6709 653.332H81.6709C85.4209 653.332 88.9417 651.53 91.1345 648.489C93.3324 645.447 93.9262 641.535 92.7438 637.978L71.9985 575.76C84.3266 567.874 92.1958 554.623 93.2278 540.025C94.2539 525.426 88.3164 511.202 77.2118 501.665C87.4462 492.915 93.3372 480.129 93.3372 466.665C93.3372 453.201 87.4465 440.414 77.2118 431.665C81.9514 427.545 85.8108 422.509 88.5556 416.858C115.222 545.555 217.061 641.672 338.342 641.672C459.624 641.672 561.462 545.562 588.129 416.858C590.874 422.509 594.733 427.546 599.473 431.665C589.238 440.415 583.347 453.201 583.347 466.665C583.347 480.129 589.238 492.915 599.473 501.665C588.369 511.201 582.431 525.425 583.457 540.025C584.488 554.623 592.358 567.874 604.686 575.76L583.941 637.978C582.758 641.535 583.352 645.447 585.55 648.489C587.743 651.53 591.264 653.332 595.014 653.332H665.014C668.764 653.332 672.284 651.53 674.477 648.489C676.675 645.447 677.269 641.535 676.087 637.978L655.341 575.76C667.669 567.874 675.538 554.623 676.57 540.025C677.597 525.426 671.659 511.202 660.555 501.665C670.752 492.889 676.637 480.118 676.68 466.665H676.671ZM618.337 326.665C618.426 337.123 615.598 347.405 610.171 356.347C609.962 356.629 609.655 356.816 609.457 357.118V357.113C605.785 362.967 600.525 367.655 594.29 370.64V369.905C594.733 363.312 595.004 356.697 595.004 349.999C595.004 346.337 595.004 342.592 594.91 338.775C594.91 338.613 595.004 338.483 595.004 338.332V282.728C602.551 287.207 608.717 293.676 612.832 301.425C616.946 309.175 618.853 317.903 618.337 326.665ZM326.671 23.3315H350.004C408.431 23.4044 464.477 46.5248 505.964 87.6701C547.448 128.821 571.027 184.67 571.579 243.097C473.109 187.154 397.645 126.534 347.512 62.7901C345.22 60.1079 341.866 58.5609 338.34 58.5609C334.814 58.5609 331.46 60.1079 329.168 62.7901C279.001 126.535 203.564 187.154 105.101 243.097C105.654 184.67 129.232 128.821 170.716 87.6701C212.2 46.5248 268.247 23.4048 326.676 23.3315H326.671ZM81.6705 282.731V338.335C81.6705 338.486 81.7538 338.617 81.7643 338.778C81.6705 342.596 81.6705 346.341 81.6705 350.002C81.6705 356.7 81.9413 363.315 82.3372 369.904V370.638V370.643C76.1028 367.659 70.8424 362.971 67.1705 357.116C66.9726 356.814 66.6705 356.627 66.457 356.346V356.351C61.0455 347.403 58.233 337.127 58.3372 326.668C57.8216 317.908 59.7279 309.179 63.8424 301.428C67.957 293.678 74.1237 287.21 81.6705 282.731ZM49.9252 583.331L65.4878 629.998H27.8518L43.4145 583.331H49.9252ZM70.0038 536.665C70.0038 542.852 67.5454 548.79 63.1705 553.165C58.7956 557.54 52.858 559.998 46.6705 559.998C40.483 559.998 34.5454 557.54 30.1705 553.165C25.7956 548.79 23.3372 542.852 23.3372 536.665C23.3372 530.477 25.7956 524.54 30.1705 520.165C34.5454 515.79 40.483 513.331 46.6705 513.331C52.858 513.331 58.7956 515.79 63.1705 520.165C67.5454 524.54 70.0038 530.477 70.0038 536.665ZM70.0038 466.665C70.0038 472.852 67.5454 478.79 63.1705 483.165C58.7956 487.54 52.858 489.998 46.6705 489.998C40.483 489.998 34.5454 487.54 30.1705 483.165C25.7956 478.79 23.3372 472.852 23.3372 466.665C23.3372 460.477 25.7956 454.54 30.1705 450.165C34.5454 445.79 40.483 443.331 46.6705 443.331C52.858 443.331 58.7956 445.79 63.1705 450.165C67.5454 454.54 70.0038 460.477 70.0038 466.665ZM23.3372 396.665C23.3372 390.477 25.7956 384.54 30.1705 380.165C34.5454 375.79 40.483 373.331 46.6705 373.331C47.8788 373.342 49.082 373.462 50.2642 373.691C55.285 380.441 61.6653 386.061 68.9882 390.191C69.6497 392.285 69.9934 394.467 70.0039 396.665C70.0039 405.003 65.556 412.706 58.3372 416.873C51.1184 421.04 42.2225 421.04 35.0039 416.873C27.7852 412.706 23.3372 405.003 23.3372 396.665ZM338.337 618.331C219.545 618.331 121.271 515.665 106.884 383.478C106.301 378.051 105.858 372.676 105.556 367.379C105.556 366.994 105.498 366.619 105.472 366.213C105.165 360.728 105.004 355.291 105.004 349.994C105.004 346.041 105.004 342.223 105.108 338.525V336.598C105.176 333.541 105.269 330.557 105.389 327.661C105.389 326.692 105.483 325.702 105.53 324.723C105.54 324.538 105.55 324.353 105.56 324.169C105.679 321.945 105.796 319.765 105.936 317.63C106.051 315.786 106.217 313.932 106.368 312.067C106.483 310.676 106.592 309.265 106.728 307.9C107.405 301.015 108.316 294.015 109.561 286.983C109.618 286.655 109.691 286.342 109.748 286.014C110.285 283.113 110.879 280.202 111.535 277.275C111.806 276.108 112.071 274.941 112.363 273.775C113.097 270.697 113.868 267.613 114.754 264.535C211.076 210.051 286.18 150.915 338.34 88.5084C390.491 150.915 465.6 210.05 561.874 264.522C562.759 267.6 563.53 270.683 564.264 273.761C564.556 274.928 564.827 276.095 565.092 277.261C565.733 280.157 566.342 283.095 566.863 285.928C566.921 286.277 567.004 286.616 567.061 286.965C568.311 293.965 569.217 300.965 569.894 307.871C570.035 309.236 570.139 310.647 570.254 312.038C570.405 313.902 570.566 315.762 570.686 317.6C570.848 319.934 570.978 322.267 571.092 324.741L571.233 327.611C571.348 330.527 571.441 333.527 571.514 336.606V338.496C571.676 342.22 571.676 346.022 571.676 349.991C571.676 355.288 571.514 360.725 571.207 366.231C571.207 366.616 571.15 366.991 571.124 367.398C570.822 372.695 570.379 378.075 569.796 383.496C555.41 515.658 457.134 618.323 338.342 618.323L338.337 618.331ZM606.671 396.665C606.681 394.467 607.025 392.285 607.686 390.191C614.988 386.055 621.347 380.436 626.353 373.691C627.556 373.462 628.78 373.337 630.004 373.331C636.191 373.331 642.129 375.79 646.504 380.165C650.879 384.54 653.337 390.477 653.337 396.665C653.337 402.852 650.879 408.79 646.504 413.165C642.129 417.54 636.191 419.998 630.004 419.998C623.816 419.998 617.879 417.54 613.504 413.165C609.129 408.79 606.671 402.852 606.671 396.665ZM633.258 583.331L648.821 629.998H611.185L626.748 583.331H633.258ZM653.337 536.665C653.337 542.852 650.879 548.79 646.504 553.165C642.129 557.54 636.191 559.998 630.004 559.998C623.816 559.998 617.879 557.54 613.504 553.165C609.129 548.79 606.671 542.852 606.671 536.665C606.671 530.477 609.129 524.54 613.504 520.165C617.879 515.79 623.816 513.331 630.004 513.331C636.191 513.331 642.129 515.79 646.504 520.165C650.879 524.54 653.337 530.477 653.337 536.665ZM606.671 466.665C606.671 460.477 609.129 454.54 613.504 450.165C617.879 445.79 623.816 443.331 630.004 443.331C636.191 443.331 642.129 445.79 646.504 450.165C650.879 454.54 653.337 460.477 653.337 466.665C653.337 472.852 650.879 478.79 646.504 483.165C642.129 487.54 636.191 489.998 630.004 489.998C623.816 489.998 617.879 487.54 613.504 483.165C609.129 478.79 606.671 472.852 606.671 466.665Z" fill="#222222"/>
<path d="M326.676 23.3315H350.004C408.431 23.4044 464.477 46.5248 505.964 87.6701C547.448 128.821 571.027 184.67 571.579 243.097C473.109 187.154 397.645 126.534 347.512 62.7901C345.22 60.1079 341.866 58.5609 338.34 58.5609C334.814 58.5609 331.46 60.1079 329.168 62.7901C279.001 126.535 203.564 187.154 105.101 243.097C105.654 184.67 129.232 128.821 170.716 87.6701C212.2 46.5248 268.247 23.4048 326.676 23.3315Z" fill="#FFFDFA"/>
<path d="M23.3372 396.665C23.3372 390.477 25.7956 384.54 30.1705 380.165C34.5454 375.79 40.483 373.331 46.6705 373.331C47.8788 373.342 49.082 373.462 50.2642 373.691C55.285 380.441 61.6653 386.061 68.9882 390.191C69.6497 392.285 69.9934 394.467 70.0039 396.665C70.0039 405.003 65.556 412.706 58.3372 416.873C51.1184 421.04 42.2225 421.04 35.0039 416.873C27.7852 412.706 23.3372 405.003 23.3372 396.665Z" fill="#FFFDFA"/>
<path d="M70.0038 466.665C70.0038 472.852 67.5454 478.79 63.1705 483.165C58.7956 487.54 52.858 489.998 46.6705 489.998C40.483 489.998 34.5454 487.54 30.1705 483.165C25.7956 478.79 23.3372 472.852 23.3372 466.665C23.3372 460.477 25.7956 454.54 30.1705 450.165C34.5454 445.79 40.483 443.331 46.6705 443.331C52.858 443.331 58.7956 445.79 63.1705 450.165C67.5454 454.54 70.0038 460.477 70.0038 466.665Z" fill="#FFFDFA"/>
<path d="M70.0038 536.665C70.0038 542.852 67.5454 548.79 63.1705 553.165C58.7956 557.54 52.858 559.998 46.6705 559.998C40.483 559.998 34.5454 557.54 30.1705 553.165C25.7956 548.79 23.3372 542.852 23.3372 536.665C23.3372 530.477 25.7956 524.54 30.1705 520.165C34.5454 515.79 40.483 513.331 46.6705 513.331C52.858 513.331 58.7956 515.79 63.1705 520.165C67.5454 524.54 70.0038 530.477 70.0038 536.665Z" fill="#FFFDFA"/>
<path d="M49.9252 583.331L65.4878 629.998H27.8518L43.4145 583.331H49.9252Z" fill="#FFFDFA"/>
<path d="M81.6705 282.731V338.335C81.6705 338.486 81.7538 338.617 81.7643 338.778C81.6705 342.596 81.6705 346.341 81.6705 350.002C81.6705 356.7 81.9413 363.315 82.3372 369.904V370.638V370.643C76.1028 367.659 70.8424 362.971 67.1705 357.116C66.9726 356.814 66.6705 356.627 66.457 356.346V356.351C61.0455 347.403 58.233 337.127 58.3372 326.668C57.8216 317.908 59.7279 309.179 63.8424 301.428C67.957 293.678 74.1237 287.21 81.6705 282.731Z" fill="#FFFDFA"/>
<path d="M338.337 618.331C219.545 618.331 121.271 515.665 106.884 383.478C106.301 378.051 105.858 372.676 105.556 367.379C105.556 366.994 105.498 366.619 105.472 366.213C105.165 360.728 105.004 355.291 105.004 349.994C105.004 346.041 105.004 342.223 105.108 338.525V336.598C105.176 333.541 105.269 330.557 105.389 327.661C105.389 326.692 105.483 325.702 105.53 324.723L105.56 324.169C105.679 321.945 105.796 319.765 105.936 317.63C106.051 315.786 106.217 313.932 106.368 312.067C106.483 310.676 106.592 309.265 106.728 307.9C107.405 301.015 108.316 294.015 109.561 286.983C109.618 286.655 109.691 286.342 109.748 286.014C110.285 283.113 110.879 280.202 111.535 277.275C111.806 276.108 112.071 274.941 112.363 273.775C113.097 270.697 113.868 267.613 114.754 264.535C211.076 210.051 286.18 150.915 338.34 88.5084C390.491 150.915 465.6 210.05 561.874 264.522C562.759 267.6 563.53 270.683 564.264 273.761C564.556 274.928 564.827 276.095 565.092 277.261C565.733 280.157 566.342 283.095 566.863 285.928C566.921 286.277 567.004 286.616 567.061 286.965C568.311 293.965 569.217 300.965 569.894 307.871C570.035 309.236 570.139 310.647 570.254 312.038C570.405 313.902 570.566 315.762 570.686 317.6C570.848 319.934 570.978 322.267 571.092 324.741L571.233 327.611C571.348 330.527 571.441 333.527 571.514 336.606V338.496C571.676 342.22 571.676 346.022 571.676 349.991C571.676 355.288 571.514 360.725 571.207 366.231C571.207 366.616 571.15 366.991 571.124 367.398C570.822 372.695 570.379 378.075 569.796 383.496C555.41 515.658 457.134 618.323 338.342 618.323L338.337 618.331Z" fill="#FFFDFA"/>
<path d="M618.337 326.665C618.426 337.123 615.598 347.405 610.171 356.347C609.962 356.629 609.655 356.816 609.457 357.118V357.113C605.785 362.967 600.525 367.655 594.29 370.64V369.905C594.733 363.312 595.004 356.697 595.004 349.999C595.004 346.337 595.004 342.592 594.91 338.775C594.91 338.613 595.004 338.483 595.004 338.332V282.728C602.551 287.207 608.717 293.676 612.832 301.425C616.946 309.175 618.853 317.903 618.337 326.665Z" fill="#FFFDFA"/>
<path d="M606.671 396.665C606.681 394.467 607.025 392.285 607.686 390.191C614.988 386.055 621.347 380.436 626.353 373.691C627.556 373.462 628.78 373.337 630.004 373.331C636.191 373.331 642.129 375.79 646.504 380.165C650.879 384.54 653.337 390.477 653.337 396.665C653.337 402.852 650.879 408.79 646.504 413.165C642.129 417.54 636.191 419.998 630.004 419.998C623.816 419.998 617.879 417.54 613.504 413.165C609.129 408.79 606.671 402.852 606.671 396.665Z" fill="#FFFDFA"/>
<path d="M606.671 466.665C606.671 460.477 609.129 454.54 613.504 450.165C617.879 445.79 623.816 443.331 630.004 443.331C636.191 443.331 642.129 445.79 646.504 450.165C650.879 454.54 653.337 460.477 653.337 466.665C653.337 472.852 650.879 478.79 646.504 483.165C642.129 487.54 636.191 489.998 630.004 489.998C623.816 489.998 617.879 487.54 613.504 483.165C609.129 478.79 606.671 472.852 606.671 466.665Z" fill="#FFFDFA"/>
<path d="M653.337 536.665C653.337 542.852 650.879 548.79 646.504 553.165C642.129 557.54 636.191 559.998 630.004 559.998C623.816 559.998 617.879 557.54 613.504 553.165C609.129 548.79 606.671 542.852 606.671 536.665C606.671 530.477 609.129 524.54 613.504 520.165C617.879 515.79 623.816 513.331 630.004 513.331C636.191 513.331 642.129 515.79 646.504 520.165C650.879 524.54 653.337 530.477 653.337 536.665Z" fill="#FFFDFA"/>
<path d="M633.258 583.331L648.821 629.998H611.185L626.748 583.331H633.258Z" fill="#FFFDFA"/>
<path d="M414.177 374.918C408.609 371.678 401.469 373.564 398.229 379.126C381.15 408.538 364.349 419.996 338.344 419.996C312.338 419.996 295.537 408.537 278.422 379.162C275.021 374.011 268.193 372.402 262.844 375.496C257.5 378.589 255.495 385.308 258.266 390.829C272.474 415.329 294.416 443.329 338.344 443.329C382.272 443.329 404.214 415.329 418.423 390.829C421.637 385.261 419.736 378.147 414.178 374.917L414.177 374.918Z" fill="#222222"/>
<path d="M268.337 302.905C268.337 315.79 257.889 326.238 245.004 326.238C232.118 326.238 221.67 315.79 221.67 302.905C221.67 290.019 232.118 279.571 245.004 279.571C257.889 279.571 268.337 290.019 268.337 302.905Z" fill="#222222"/>
<path d="M186.67 302.905C189.764 302.905 192.733 301.675 194.92 299.488C197.108 297.3 198.337 294.332 198.337 291.238C198.337 281.957 202.024 273.055 208.587 266.489C215.149 259.926 224.056 256.239 233.336 256.239C239.779 256.239 245.003 251.015 245.003 244.572C245.003 238.129 239.779 232.905 233.336 232.905C217.872 232.926 203.044 239.077 192.107 250.009C181.175 260.947 175.024 275.775 175.003 291.239C175.003 294.332 176.232 297.301 178.42 299.489C180.607 301.676 183.577 302.905 186.67 302.905Z" fill="#222222"/>
<path d="M455.004 302.905C455.004 315.79 444.556 326.238 431.67 326.238C418.785 326.238 408.337 315.79 408.337 302.905C408.337 290.019 418.785 279.571 431.67 279.571C444.556 279.571 455.004 290.019 455.004 302.905Z" fill="#222222"/>
<path d="M443.337 256.665C452.618 256.665 461.525 260.352 468.087 266.915C474.648 273.477 478.337 282.384 478.337 291.664C478.337 298.107 483.561 303.331 490.003 303.331C496.446 303.331 501.67 298.107 501.67 291.664C501.649 276.2 495.498 261.372 484.566 250.435C473.628 239.502 458.801 233.352 443.337 233.331C436.894 233.331 431.67 238.555 431.67 244.997C431.67 251.44 436.895 256.665 443.337 256.665Z" fill="#222222"/>
<path d="M326.67 349.998H350.004C356.446 349.998 361.67 344.774 361.67 338.331C361.67 331.889 356.446 326.665 350.004 326.665H340.446L349.78 270.258C350.373 267.169 349.696 263.977 347.905 261.393C346.108 258.815 343.353 257.065 340.248 256.55C337.15 256.029 333.972 256.784 331.436 258.638C328.9 260.492 327.217 263.294 326.774 266.404L315.108 336.404C314.54 339.8 315.498 343.268 317.728 345.888C319.957 348.513 323.228 350.014 326.67 349.998Z" fill="#222222"/>
</svg>
