<svg width="640" height="671" viewBox="0 0 640 671" fill="none" xmlns="http://www.w3.org/2000/svg">
<path fill-rule="evenodd" clip-rule="evenodd" d="M15.3703 569.405C17.7713 566.78 20.3651 564.342 23.1359 562.113C36.3755 551.775 52.3905 545.619 69.1465 544.42V164.327C55.8913 165.452 43.2399 170.394 32.7399 178.556C22.1566 186.436 15.7559 198.717 15.3705 211.905L15.3703 569.405ZM223.024 245.832V255.462C223.112 257.259 223.982 258.926 225.409 260.019C227.498 261.691 230.107 262.577 232.779 262.519H299.06C301.737 262.577 304.347 261.691 306.43 260.019C307.862 258.926 308.737 257.264 308.826 255.462V245.832H223.024ZM289.414 277.862H242.144C243.164 278.93 244.295 279.888 245.519 280.716C251.633 284.399 258.638 286.347 265.779 286.347C272.919 286.347 279.924 284.399 286.039 280.716C287.257 279.883 288.394 278.93 289.414 277.862ZM246.034 142.876V136.558C246.045 134.881 245.383 133.266 244.196 132.079C241.68 129.61 237.649 129.61 235.133 132.079C232.68 134.563 232.68 138.558 235.133 141.042C236.336 142.23 237.967 142.896 239.664 142.886L246.034 142.876ZM271.034 230.474V158.256H261.394V230.474H271.034ZM286.394 158.256H292.764H292.759C298.498 158.24 303.993 155.943 308.04 151.87C312.087 147.802 314.353 142.292 314.337 136.553C314.327 130.818 312.035 125.318 307.973 121.266C303.905 117.214 298.4 114.943 292.661 114.954C286.921 114.959 281.421 117.24 277.369 121.303C273.311 125.36 271.035 130.865 271.035 136.605V142.923H261.395V136.605C261.41 130.845 259.134 125.314 255.072 121.231C251.009 117.148 245.488 114.845 239.728 114.835C233.962 114.819 228.436 117.1 224.353 121.168C220.275 125.231 217.978 130.757 217.967 136.517C217.962 142.278 220.243 147.804 224.311 151.881C228.379 155.96 233.905 158.256 239.666 158.256H246.036V230.475H222.358C218.837 230.511 215.436 229.22 212.832 226.855C210.53 224.803 209.192 221.876 209.15 218.793C209.15 213.85 209.15 212.126 209.202 210.454C209.202 210.45 209.202 210.446 209.202 210.442C209.499 189.177 209.735 172.243 192.775 152.558V152.553C186.374 145.162 181.317 136.698 177.843 127.553C174.453 118.579 172.724 109.069 172.734 99.4743C172.239 82.453 177.244 65.725 186.999 51.777C196.76 37.8237 210.754 27.3863 226.911 22.017C251.838 13.0066 279.135 13.0378 304.047 22.0951C320.339 27.491 334.463 37.9911 344.334 52.0325C354.204 66.0791 359.293 82.9285 358.845 100.084C358.855 109.678 357.126 119.188 353.735 128.163C350.261 137.309 345.209 145.772 338.803 153.168C321.303 173.475 321.517 188.756 321.83 210.199C321.83 211.954 321.882 213.777 321.882 218.793C321.841 221.876 320.507 224.798 318.21 226.855C315.601 229.22 312.195 230.512 308.674 230.475H286.382V158.256L286.394 158.256ZM286.394 136.605V142.923H292.764H292.759C294.457 142.933 296.087 142.272 297.295 141.079C299.759 138.6 299.759 134.595 297.295 132.115C294.774 129.647 290.748 129.647 288.227 132.115C287.04 133.303 286.379 134.918 286.394 136.6L286.394 136.605ZM468.808 183.412V179.849H468.802C468.672 168.516 472.245 157.442 478.979 148.328C485.162 139.656 495.067 134.401 505.714 134.14H541.069C551.715 134.395 561.616 139.65 567.798 148.328C574.538 157.442 578.111 168.516 577.975 179.849V183.412H631.491C635.705 183.427 639.121 186.844 639.142 191.058V663.058C639.142 667.302 635.705 670.74 631.46 670.74H76.8333C57.4173 670.979 38.4893 664.636 23.1453 652.74C8.89067 641.985 0.358667 625.281 0 607.433V211.913C0.364587 194.064 8.89587 177.372 23.1453 166.621C38.4893 154.72 57.416 148.376 76.8333 148.616C78.8697 148.616 80.8229 149.428 82.2656 150.866C83.7031 152.308 84.5156 154.262 84.5156 156.298V183.402H192.141C190.255 175.673 186.495 168.527 181.193 162.595C173.61 153.83 167.63 143.798 163.521 132.959C159.464 122.262 157.391 110.918 157.391 99.4807C156.807 79.2927 162.745 59.4594 174.328 42.9181C185.906 26.3767 202.505 14.0007 221.672 7.63673C250.011 -2.57153 281.032 -2.54553 309.36 7.71486C328.657 14.1107 345.391 26.5429 357.073 43.1842C368.761 59.8242 374.781 79.7829 374.245 100.106C374.245 111.543 372.167 122.892 368.115 133.584C363.996 144.423 358.001 154.448 350.413 163.204C345.157 168.985 341.303 175.897 339.142 183.402L468.808 183.412ZM488.766 470.705L523.406 525.517L558.037 470.673C554.37 470.079 550.6 469.584 546.735 469.178C531.224 467.558 515.584 467.558 500.073 469.178C496.204 469.579 492.438 470.079 488.777 470.673L488.766 470.705ZM577.917 465.08V198.72H623.761V655.387H76.8276C60.9156 655.637 45.3903 650.501 32.7703 640.803C21.8848 633.178 15.4063 620.724 15.4063 607.439C15.4063 594.147 21.8855 581.693 32.7703 574.069C45.39 564.371 60.9156 559.236 76.8276 559.485C81.0672 559.485 84.5047 556.048 84.5099 551.808V198.728H193.917C194.005 202.463 193.953 206.249 193.917 210.254C193.864 214.03 193.812 217.921 193.812 218.775C193.854 226.124 196.969 233.119 202.406 238.062C204.015 239.546 205.781 240.843 207.682 241.931V255.473C207.75 261.79 210.63 267.749 215.536 271.727C218.088 273.873 221.031 275.498 224.203 276.524C226.276 283.488 230.781 289.477 236.896 293.399C245.552 298.842 255.573 301.732 265.797 301.732C276.021 301.732 286.042 298.842 294.698 293.399C300.792 289.498 305.292 283.55 307.391 276.628C310.672 275.608 313.719 273.941 316.349 271.727C321.25 267.748 324.125 261.79 324.188 255.473V241.467C325.787 240.488 327.287 239.353 328.672 238.087C334.11 233.144 337.224 226.15 337.266 218.8C337.266 217.769 337.214 213.811 337.151 210.03C337.099 206.05 337.037 202.316 337.151 198.754L468.787 198.748V465.588C468.777 467.239 469.303 468.849 470.282 470.182L516.866 543.953C518.278 546.198 520.752 547.552 523.408 547.531C526.059 547.515 528.512 546.119 529.892 543.854L576.736 469.671C577.564 468.364 577.976 466.838 577.919 465.291L577.917 465.08ZM484.146 211.907C488.808 211.099 493.594 210.412 498.485 209.922C515.032 208.177 531.72 208.177 548.266 209.922C553.167 210.422 557.959 211.084 562.63 211.907V191.745V191.068V190.396V179.823C562.781 171.849 560.323 164.047 555.635 157.599C552.318 152.745 546.922 149.724 541.052 149.438H505.697C499.837 149.735 494.457 152.745 491.145 157.584C486.457 164.032 483.999 171.834 484.145 179.808V211.912L484.146 211.907ZM484.146 238.1C488.808 237.293 493.584 236.631 498.485 236.116C515.032 234.371 531.72 234.371 548.266 236.116C553.167 236.616 557.959 237.277 562.63 238.1V227.459C557.547 226.511 552.224 225.735 546.704 225.157C531.193 223.584 515.558 223.584 500.048 225.157C494.542 225.73 489.23 226.506 484.152 227.449V238.095L484.146 238.1ZM544.625 251.142L544.63 453.595L548.26 453.944C553.162 454.444 557.953 455.105 562.624 455.939V253.659C557.541 252.711 552.218 251.94 546.698 251.356L544.63 251.148L544.625 251.142ZM517.432 250.241V452.734C519.395 452.687 521.385 452.666 523.406 452.666C525.427 452.666 527.416 452.687 529.38 452.734V250.241C527.416 250.188 525.421 250.168 523.406 250.168C521.39 250.168 519.411 250.168 517.432 250.241ZM502.125 453.574L502.13 251.134L500.062 251.342C494.557 251.915 489.245 252.691 484.166 253.644V455.911C488.828 455.104 493.604 454.442 498.505 453.927L502.135 453.578L502.125 453.574ZM298.005 457.912C287.791 447.907 273.505 443.219 259.349 445.23C245.193 447.246 232.776 455.725 225.756 468.178C218.735 480.637 217.901 495.647 223.506 508.798C229.115 521.954 240.516 531.751 254.366 535.314C268.215 538.877 282.928 535.793 294.183 526.976C305.438 518.158 311.954 504.612 311.814 490.314C311.709 478.106 306.741 466.445 298.007 457.913L298.005 457.912ZM265.198 429.434C246.136 429.621 228.245 438.658 216.786 453.892C205.333 469.127 201.609 488.824 206.719 507.19C211.833 525.554 225.192 540.496 242.869 547.622C260.552 554.747 280.541 553.241 296.957 543.554C313.373 533.867 324.348 517.095 326.655 498.174C328.962 479.253 322.342 460.335 308.733 446.981C297.134 435.574 281.469 429.262 265.198 429.434ZM297.948 413.21C293.297 411.283 288.479 409.783 283.557 408.731C280.448 408.215 277.968 405.845 277.317 402.757L273.27 383.674L258.025 383.825L254.4 402.554C253.817 405.596 251.457 407.992 248.426 408.617C238.374 410.731 228.795 414.679 220.181 420.273C217.629 422.007 214.29 422.039 211.707 420.356L195.347 409.737L184.664 420.633L195.388 436.461H195.383C197.102 439.007 197.133 442.335 195.456 444.914C192.633 449.242 190.217 453.815 188.237 458.586C186.305 463.237 184.805 468.049 183.758 472.976C183.237 476.086 180.867 478.56 177.784 479.216L158.716 483.268L158.867 498.513L177.617 502.128L177.611 502.133C180.653 502.716 183.044 505.07 183.674 508.107C185.773 518.159 189.721 527.738 195.32 536.352C197.054 538.905 197.09 542.248 195.413 544.837L184.788 561.197L195.684 571.874L211.512 561.16L211.507 561.155C214.059 559.441 217.382 559.41 219.96 561.082C224.288 563.905 228.866 566.322 233.643 568.301C238.289 570.233 243.101 571.733 248.023 572.785C251.132 573.301 253.611 575.671 254.273 578.754L258.325 597.822L273.57 597.671L277.185 578.922V578.927C277.768 575.885 280.127 573.495 283.159 572.864C293.216 570.766 302.795 566.818 311.409 561.219C313.956 559.484 317.3 559.448 319.889 561.13L336.249 571.75L346.926 560.864L336.212 545.036V545.031C334.493 542.484 334.467 539.156 336.139 536.578C338.957 532.25 341.374 527.672 343.358 522.901C345.285 518.25 346.785 513.432 347.837 508.51C348.358 505.401 350.728 502.927 353.811 502.27L372.879 498.218L372.728 482.973L353.979 479.358L353.984 479.353C350.942 478.77 348.547 476.416 347.921 473.379C345.817 463.327 341.869 453.749 336.27 445.134C334.536 442.582 334.505 439.243 336.182 436.66L346.802 420.3L335.916 409.623L320.088 420.336H320.083C317.536 422.055 314.208 422.081 311.635 420.409C307.307 417.586 302.729 415.17 297.952 413.191L297.948 413.21ZM291.312 394.814L286.958 374.36H286.953C286.203 370.803 283.052 368.267 279.416 368.298L252.119 368.558H252.114C248.281 368.345 244.874 371.001 244.15 374.772L240.296 394.803C231.786 397.063 223.613 400.448 215.999 404.875L198.603 393.594C195.535 391.48 191.395 391.87 188.78 394.521L169.635 414.037H169.64C166.801 416.6 166.286 420.855 168.421 424.022L179.937 440.97C175.484 448.579 172.082 456.756 169.827 465.276L149.374 469.631V469.625C145.817 470.386 143.285 473.542 143.311 477.177L143.572 504.475C143.358 508.313 146.014 511.714 149.791 512.433L169.821 516.293H169.826C170.941 520.517 172.337 524.657 174.004 528.688C175.696 532.782 177.665 536.756 179.889 540.584L168.613 557.954V557.948C166.498 561.016 166.889 565.157 169.54 567.771L189.056 586.917L189.061 586.911C191.619 589.745 195.874 590.266 199.041 588.13L215.967 576.677C223.566 581.115 231.733 584.5 240.243 586.75L244.597 607.203C245.353 610.756 248.509 613.292 252.144 613.266L279.442 613.005V613C283.28 613.214 286.681 610.558 287.4 606.781L291.259 586.751H291.265C299.77 584.49 307.937 581.105 315.551 576.683L332.921 587.959C335.983 590.079 340.129 589.683 342.738 587.027L361.884 567.511V567.506C364.712 564.948 365.232 560.698 363.097 557.532L351.665 540.584C356.102 532.985 359.493 524.818 361.738 516.308L382.191 511.953V511.959C385.748 511.203 388.285 508.052 388.254 504.417L387.993 477.12V477.115C388.207 473.276 385.551 469.875 381.774 469.151L361.728 465.276C359.462 456.771 356.082 448.604 351.665 440.995L362.931 423.625H362.936C365.061 420.563 364.67 416.417 362.009 413.808L342.482 394.662C339.925 391.824 335.67 391.308 332.508 393.444L315.582 404.897V404.902C307.983 400.464 299.816 397.074 291.306 394.829L291.312 394.814ZM258.099 322.45V350.075C258.031 352.153 258.812 354.169 260.26 355.658C261.708 357.153 263.698 357.997 265.776 357.997C267.854 357.997 269.844 357.153 271.292 355.658C272.739 354.169 273.521 352.153 273.458 350.075V322.444C273.521 320.366 272.739 318.351 271.292 316.861C269.844 315.366 267.854 314.522 265.776 314.522C263.698 314.522 261.708 315.366 260.26 316.861C258.812 318.351 258.031 320.366 258.099 322.444V322.45ZM480.659 529.276L380.555 529.271C378.477 529.209 376.461 529.985 374.966 531.433C373.472 532.88 372.628 534.87 372.628 536.948C372.628 539.032 373.472 541.021 374.966 542.469C376.461 543.917 378.477 544.693 380.555 544.63H480.659C482.737 544.693 484.753 543.917 486.247 542.469C487.737 541.021 488.581 539.032 488.581 536.948C488.581 534.87 487.737 532.88 486.247 531.433C484.753 529.985 482.737 529.209 480.659 529.271V529.276Z" fill="#222222"/>
<path d="M286.394 158.256H292.759C298.498 158.24 303.993 155.943 308.04 151.87C312.087 147.802 314.353 142.292 314.337 136.553C314.327 130.818 312.035 125.318 307.973 121.266C303.905 117.214 298.4 114.943 292.661 114.954C286.921 114.959 281.421 117.24 277.369 121.303C273.311 125.36 271.035 130.865 271.035 136.605V142.923H261.395V136.605C261.41 130.845 259.134 125.314 255.072 121.231C251.009 117.148 245.488 114.845 239.728 114.835C233.962 114.819 228.436 117.1 224.353 121.168C220.275 125.231 217.978 130.757 217.967 136.517C217.962 142.278 220.243 147.804 224.311 151.881C228.379 155.96 233.905 158.256 239.666 158.256H246.036V230.475H222.358C218.837 230.511 215.436 229.22 212.832 226.855C210.53 224.803 209.192 221.876 209.15 218.793C209.15 213.85 209.15 212.126 209.202 210.454L209.202 210.442C209.499 189.177 209.735 172.243 192.775 152.558V152.553C186.374 145.162 181.317 136.698 177.843 127.553C174.453 118.579 172.724 109.069 172.734 99.4743C172.239 82.453 177.244 65.725 186.999 51.777C196.76 37.8237 210.754 27.3863 226.911 22.017C251.838 13.0066 279.135 13.0378 304.047 22.0951C320.339 27.491 334.463 37.9911 344.334 52.0325C354.204 66.0791 359.293 82.9285 358.845 100.084C358.855 109.678 357.126 119.188 353.735 128.163C350.261 137.309 345.209 145.772 338.803 153.168C321.303 173.475 321.517 188.756 321.83 210.199C321.83 211.954 321.882 213.777 321.882 218.793C321.841 221.876 320.507 224.798 318.21 226.855C315.601 229.22 312.195 230.512 308.674 230.475H286.382V158.256L286.394 158.256Z" fill="#FFFDFA"/>
<path d="M271.034 230.474V158.256H261.394V230.474H271.034Z" fill="#FFFDFA"/>
<path d="M223.024 245.832V255.462C223.112 257.259 223.982 258.926 225.409 260.019C227.498 261.691 230.107 262.577 232.779 262.519H299.06C301.737 262.577 304.347 261.691 306.43 260.019C307.862 258.926 308.737 257.264 308.826 255.462V245.832H223.024Z" fill="#FFFDFA"/>
<path d="M289.414 277.862H242.144C243.164 278.93 244.295 279.888 245.519 280.716C251.633 284.399 258.638 286.347 265.779 286.347C272.919 286.347 279.924 284.399 286.039 280.716C287.257 279.883 288.394 278.93 289.414 277.862Z" fill="#FFFDFA"/>
<path fill-rule="evenodd" clip-rule="evenodd" d="M577.917 465.08V198.72H623.761V655.387H76.8276C60.9156 655.637 45.3903 650.501 32.7703 640.803C21.8848 633.178 15.4063 620.724 15.4063 607.439C15.4063 594.147 21.8855 581.693 32.7703 574.069C45.39 564.371 60.9156 559.236 76.8276 559.485C81.0672 559.485 84.5047 556.048 84.5099 551.808V198.728H193.917C194.005 202.463 193.953 206.249 193.917 210.254C193.864 214.03 193.812 217.921 193.812 218.775C193.854 226.124 196.969 233.119 202.406 238.062C204.015 239.546 205.781 240.843 207.682 241.931V255.473C207.75 261.79 210.63 267.749 215.536 271.727C218.088 273.873 221.031 275.498 224.203 276.524C226.276 283.488 230.781 289.477 236.896 293.399C245.552 298.842 255.573 301.732 265.797 301.732C276.021 301.732 286.042 298.842 294.698 293.399C300.792 289.498 305.292 283.55 307.391 276.628C310.672 275.608 313.719 273.941 316.349 271.727C321.25 267.748 324.125 261.79 324.188 255.473V241.467C325.787 240.488 327.287 239.353 328.672 238.087C334.11 233.144 337.224 226.15 337.266 218.8C337.266 217.769 337.214 213.811 337.151 210.03C337.099 206.05 337.037 202.316 337.151 198.754L468.787 198.748V465.588C468.777 467.239 469.303 468.849 470.282 470.182L516.866 543.953C518.278 546.198 520.752 547.552 523.408 547.531C526.059 547.515 528.512 546.119 529.892 543.854L576.736 469.671C577.564 468.364 577.976 466.838 577.919 465.291L577.917 465.08ZM286.958 374.36L291.312 394.814L291.306 394.829C299.816 397.074 307.983 400.464 315.582 404.902V404.897L332.508 393.444C335.67 391.308 339.925 391.824 342.482 394.662L362.009 413.808C364.67 416.417 365.061 420.563 362.936 423.625H362.931L351.665 440.995C356.082 448.604 359.462 456.771 361.728 465.276L381.774 469.151C385.551 469.875 388.207 473.276 387.993 477.115V477.12L388.254 504.417C388.285 508.052 385.748 511.203 382.191 511.959V511.953L361.738 516.308C359.493 524.818 356.102 532.985 351.665 540.584L363.097 557.532C365.232 560.698 364.712 564.948 361.884 567.506V567.511L342.738 587.027C340.129 589.683 335.983 590.079 332.921 587.959L315.551 576.683C307.937 581.105 299.77 584.49 291.265 586.751H291.259L287.4 606.781C286.681 610.558 283.28 613.214 279.442 613V613.005L252.144 613.266C248.509 613.292 245.353 610.756 244.597 607.203L240.243 586.75C231.733 584.5 223.566 581.115 215.967 576.677L199.041 588.13C195.874 590.266 191.619 589.745 189.061 586.911L189.056 586.917L169.54 567.771C166.889 565.157 166.498 561.016 168.613 557.948V557.954L179.889 540.584C177.665 536.756 175.696 532.782 174.004 528.688C172.337 524.657 170.941 520.517 169.826 516.293H169.821L149.791 512.433C146.014 511.714 143.358 508.313 143.572 504.475L143.311 477.177C143.285 473.542 145.817 470.386 149.374 469.625V469.631L169.827 465.276C172.082 456.756 175.484 448.579 179.937 440.97L168.421 424.022C166.286 420.855 166.801 416.6 169.64 414.037H169.635L188.78 394.521C191.395 391.87 195.535 391.48 198.603 393.594L215.999 404.875C223.613 400.448 231.786 397.063 240.296 394.803L244.15 374.772C244.874 371.001 248.281 368.345 252.114 368.558H252.119L279.416 368.298C283.052 368.267 286.203 370.803 286.953 374.36H286.958ZM258.099 350.075V322.45V322.444C258.031 320.366 258.812 318.351 260.26 316.861C261.708 315.366 263.698 314.522 265.776 314.522C267.854 314.522 269.844 315.366 271.292 316.861C272.739 318.351 273.521 320.366 273.458 322.444V350.075C273.521 352.153 272.739 354.169 271.292 355.658C269.844 357.153 267.854 357.997 265.776 357.997C263.698 357.997 261.708 357.153 260.26 355.658C258.812 354.169 258.031 352.153 258.099 350.075ZM380.555 529.271L480.659 529.276V529.271C482.737 529.209 484.753 529.985 486.247 531.433C487.737 532.88 488.581 534.87 488.581 536.948C488.581 539.032 487.737 541.021 486.247 542.469C484.753 543.917 482.737 544.693 480.659 544.63H380.555C378.477 544.693 376.461 543.917 374.966 542.469C373.472 541.021 372.628 539.032 372.628 536.948C372.628 534.87 373.472 532.88 374.966 531.433C376.461 529.985 378.477 529.209 380.555 529.271Z" fill="#FFFDFA"/>
<path fill-rule="evenodd" clip-rule="evenodd" d="M297.948 413.21C293.297 411.283 288.479 409.783 283.557 408.731C280.448 408.215 277.968 405.845 277.317 402.757L273.27 383.674L258.025 383.825L254.4 402.554C253.817 405.596 251.457 407.992 248.426 408.617C238.374 410.731 228.795 414.679 220.181 420.273C217.629 422.007 214.29 422.039 211.707 420.356L195.347 409.737L184.664 420.633L195.388 436.461H195.383C197.102 439.007 197.133 442.335 195.456 444.914C192.633 449.242 190.217 453.815 188.237 458.586C186.305 463.237 184.805 468.049 183.758 472.976C183.237 476.086 180.867 478.56 177.784 479.216L158.716 483.268L158.867 498.513L177.617 502.128L177.611 502.133C180.653 502.716 183.044 505.07 183.674 508.107C185.773 518.159 189.721 527.738 195.32 536.352C197.054 538.905 197.09 542.248 195.413 544.837L184.788 561.197L195.684 571.874L211.512 561.16L211.507 561.155C214.059 559.441 217.382 559.41 219.96 561.082C224.288 563.905 228.866 566.322 233.643 568.301C238.289 570.233 243.101 571.733 248.023 572.785C251.132 573.301 253.611 575.671 254.273 578.754L258.325 597.822L273.57 597.671L277.185 578.922V578.927C277.768 575.885 280.127 573.495 283.159 572.864C293.216 570.766 302.795 566.818 311.409 561.219C313.956 559.484 317.3 559.448 319.889 561.13L336.249 571.75L346.926 560.864L336.212 545.036V545.031C334.493 542.484 334.467 539.156 336.139 536.578C338.957 532.25 341.374 527.672 343.358 522.901C345.285 518.25 346.785 513.432 347.837 508.51C348.358 505.401 350.728 502.927 353.811 502.27L372.879 498.218L372.728 482.973L353.979 479.358L353.984 479.353C350.942 478.77 348.547 476.416 347.921 473.379C345.817 463.327 341.869 453.749 336.27 445.134C334.536 442.582 334.505 439.243 336.182 436.66L346.802 420.3L335.916 409.623L320.088 420.336H320.083C317.536 422.055 314.208 422.081 311.635 420.409C307.307 417.586 302.729 415.17 297.952 413.191L297.948 413.21ZM216.786 453.892C228.245 438.658 246.136 429.621 265.198 429.434C281.469 429.262 297.134 435.574 308.733 446.981C322.342 460.335 328.962 479.253 326.655 498.174C324.348 517.095 313.373 533.867 296.957 543.554C280.541 553.241 260.552 554.747 242.869 547.622C225.192 540.496 211.833 525.554 206.719 507.19C201.609 488.824 205.333 469.127 216.786 453.892Z" fill="#FFFDFA"/>
<path d="M298.005 457.912C287.791 447.907 273.505 443.219 259.349 445.23C245.193 447.246 232.776 455.725 225.756 468.178C218.735 480.637 217.901 495.647 223.506 508.798C229.115 521.954 240.516 531.751 254.366 535.314C268.215 538.877 282.928 535.793 294.183 526.976C305.438 518.158 311.954 504.612 311.814 490.314C311.709 478.106 306.741 466.445 298.007 457.913L298.005 457.912Z" fill="#FFFDFA"/>
<path d="M484.146 211.907C488.808 211.099 493.594 210.412 498.485 209.922C515.032 208.177 531.72 208.177 548.266 209.922C553.167 210.422 557.959 211.084 562.63 211.907V191.745V191.068V190.396V179.823C562.781 171.849 560.323 164.047 555.635 157.599C552.318 152.745 546.922 149.724 541.052 149.438H505.697C499.837 149.735 494.457 152.745 491.145 157.584C486.457 164.032 483.999 171.834 484.145 179.808V211.912L484.146 211.907Z" fill="#FFFDFA"/>
<path d="M502.125 453.574L502.13 251.134L500.062 251.342C494.557 251.915 489.245 252.691 484.166 253.644V455.911C488.828 455.104 493.604 454.442 498.505 453.927L502.135 453.578L502.125 453.574Z" fill="#FFFDFA"/>
<path d="M517.432 250.241V452.734C519.395 452.687 521.385 452.666 523.406 452.666C525.427 452.666 527.416 452.687 529.38 452.734V250.241C527.416 250.188 525.421 250.168 523.406 250.168C521.39 250.168 519.411 250.168 517.432 250.241Z" fill="#FFFDFA"/>
<path d="M544.625 251.142L544.63 453.595L548.26 453.944C553.162 454.444 557.953 455.105 562.624 455.939V253.659C557.541 252.711 552.218 251.94 546.698 251.356L544.63 251.148L544.625 251.142Z" fill="#FFFDFA"/>
<path d="M15.3703 569.405C17.7713 566.78 20.3651 564.342 23.1359 562.113C36.3755 551.775 52.3905 545.619 69.1465 544.42V164.327C55.8913 165.452 43.2399 170.394 32.7399 178.556C22.1566 186.436 15.7559 198.717 15.3705 211.905L15.3703 569.405Z" fill="#FFFDFA"/>
<path d="M246.034 142.876V136.558C246.045 134.881 245.383 133.266 244.196 132.079C241.68 129.61 237.649 129.61 235.133 132.079C232.68 134.563 232.68 138.558 235.133 141.042C236.336 142.23 237.967 142.896 239.664 142.886L246.034 142.876Z" fill="#FFFDFA"/>
<path d="M286.394 136.605V142.923H292.759C294.457 142.933 296.087 142.272 297.295 141.079C299.759 138.6 299.759 134.595 297.295 132.115C294.774 129.647 290.748 129.647 288.227 132.115C287.04 133.303 286.379 134.918 286.394 136.6L286.394 136.605Z" fill="#FFFDFA"/>
<path d="M488.766 470.705L523.406 525.517L558.037 470.673C554.37 470.079 550.6 469.584 546.735 469.178C531.224 467.558 515.584 467.558 500.073 469.178C496.204 469.579 492.438 470.079 488.777 470.673L488.766 470.705Z" fill="#FFFDFA"/>
<path d="M484.146 238.1C488.808 237.293 493.584 236.631 498.485 236.116C515.032 234.371 531.72 234.371 548.266 236.116C553.167 236.616 557.959 237.277 562.63 238.1V227.459C557.547 226.511 552.224 225.735 546.704 225.157C531.193 223.584 515.558 223.584 500.048 225.157C494.542 225.73 489.23 226.506 484.152 227.449V238.095L484.146 238.1Z" fill="#FFFDFA"/>
</svg>
