<svg width="688" height="688" viewBox="0 0 688 688" fill="none" xmlns="http://www.w3.org/2000/svg">
<path d="M687.133 158.413C687.133 147.96 682.654 137.507 675.185 130.039L654.279 109.132C646.81 101.663 637.107 97.1843 625.904 97.1843C614.706 97.1843 604.997 101.663 597.529 109.132L594.545 112.117C591.561 111.372 588.571 111.372 587.076 113.611L576.623 124.064C573.639 123.32 570.649 123.32 569.154 125.559L537.8 158.414V53.1379C537.8 48.6587 534.815 45.6691 530.331 45.6691H380.998V38.2003C380.998 33.7211 378.013 30.7315 373.529 30.7315H351.127L351.133 8.3355C351.133 3.8563 348.148 0.866699 343.664 0.866699H194.331C189.851 0.866699 186.862 3.8511 186.862 8.3355V30.7368H164.46C159.981 30.7368 156.992 33.7212 156.992 38.2056V45.6744L7.65825 45.6692C3.17905 45.6692 0.189453 48.6536 0.189453 53.138V680.338C0.189453 684.817 3.17385 687.807 7.65825 687.807H530.325C534.804 687.807 537.794 684.822 537.794 680.338V336.871V336.127L658.752 215.168C660.992 212.928 661.737 209.939 660.247 207.699L670.7 197.246C672.94 195.006 673.685 192.017 672.195 189.777L675.179 186.793C682.643 179.324 687.127 168.872 687.127 158.418L687.133 158.413ZM608.732 120.335C618.44 110.627 634.117 110.627 643.825 120.335L664.732 141.242C674.44 150.95 674.44 166.627 664.732 176.335L662.492 178.574L606.492 122.574L608.732 120.335ZM593.049 130.043L655.023 192.016L650.543 196.496L588.57 134.522L593.049 130.043ZM575.132 141.986L603.507 170.36L434.013 340.6L405.639 312.226L575.132 141.986ZM126.385 540.706L480.305 632.544H477.321L110.708 566.091C118.171 559.372 124.145 550.408 126.385 540.706ZM485.532 618.356L121.905 523.528H121.161H120.416H119.671H118.176C117.431 523.528 117.431 523.528 116.681 524.273C115.937 524.273 115.937 525.018 115.187 525.018L114.442 525.763C114.442 525.763 113.697 526.508 113.697 527.258C113.697 528.002 112.952 528.002 112.952 528.752V529.497V530.242V530.987C112.952 547.413 99.5149 560.851 83.0882 560.851C66.6615 560.851 53.2242 547.413 53.2242 530.987L53.2138 97.9334H157.744C157.744 102.413 160.729 105.402 165.213 105.402H374.28C378.759 105.402 381.749 102.418 381.749 97.9334H486.279V209.933V210.678L389.957 306.257C389.957 306.257 389.957 307.002 389.212 307.002C388.467 307.746 388.467 307.746 388.467 308.496C388.467 309.241 388.467 309.241 387.722 309.991V310.736L380.998 395.856C380.998 398.096 381.743 400.335 383.238 401.83C384.733 403.325 386.222 404.07 388.467 404.07H389.212L473.587 398.096H474.331C475.076 398.096 475.076 398.096 475.826 397.351C476.571 397.351 476.571 396.606 477.321 396.606C477.321 396.606 478.066 396.606 478.066 395.861L485.535 388.393L485.532 618.356ZM397.428 374.196L410.865 387.634L396.677 388.379L397.428 374.196ZM431.027 386.144L398.923 354.04L400.417 328.655L455.672 383.91L431.027 386.144ZM522.865 60.5976V172.598V173.342L500.464 195.744L500.469 90.4678C500.469 85.9886 497.485 82.999 493 82.999H381V60.5976L522.865 60.5976ZM171.932 45.6656H194.333C198.813 45.6656 201.802 42.6812 201.802 38.1968V15.8008H336.202V38.2022C336.202 42.6814 339.186 45.671 343.671 45.671H366.072V90.4736L171.926 90.4684L171.932 45.6656ZM522.865 672.866H15.132V60.599H156.999V83.0003H44.9986C40.5194 83.0003 37.5298 85.9847 37.5298 90.4691V531.002C37.5298 555.642 56.9418 575.054 81.5818 575.805L474.329 647.488H478.063C487.771 647.488 496.73 640.769 499.714 631.805C499.714 631.06 500.458 631.06 500.458 630.31V627.326V625.831L500.469 374.204V373.46L522.87 351.058L522.865 672.866ZM472.839 380.172L444.464 351.798L614.704 181.558L643.079 209.932L472.839 380.172Z" fill="#222222"/>
<path d="M522.865 672.866H15.132V60.599H156.999V83.0003H44.9986C40.5194 83.0003 37.5298 85.9847 37.5298 90.4691V531.002C37.5298 555.642 56.9418 575.054 81.5818 575.805L474.329 647.488H478.063C487.771 647.488 496.73 640.769 499.714 631.805C499.714 631.06 500.458 631.06 500.458 630.31V627.326V625.831L500.469 374.204V373.46L522.87 351.058L522.865 672.866Z" fill="#FFFDFA"/>
<path d="M522.865 60.5976V172.598V173.342L500.464 195.744L500.469 90.4678C500.469 85.9886 497.485 82.999 493 82.999H381V60.5976L522.865 60.5976Z" fill="#FFFDFA"/>
<path d="M485.532 618.356L121.905 523.528H121.161H120.416H119.671H118.176C117.431 523.528 117.431 523.528 116.681 524.273C115.937 524.273 115.937 525.018 115.187 525.018L114.442 525.763C114.442 525.763 113.697 526.508 113.697 527.258C113.697 528.002 112.952 528.002 112.952 528.752V529.497V530.242V530.987C112.952 547.413 99.5149 560.851 83.0882 560.851C66.6615 560.851 53.2242 547.413 53.2242 530.987L53.2138 97.9334H157.744C157.744 102.413 160.729 105.402 165.213 105.402H374.28C378.759 105.402 381.749 102.418 381.749 97.9334H486.279V209.933V210.678L389.957 306.257C389.957 306.257 389.957 307.002 389.212 307.002C388.467 307.746 388.467 307.746 388.467 308.496C388.467 309.241 388.467 309.241 387.722 309.991V310.736L380.998 395.856C380.998 398.096 381.743 400.335 383.238 401.83C384.733 403.325 386.222 404.07 388.467 404.07H389.212L473.587 398.096H474.331C475.076 398.096 475.076 398.096 475.826 397.351C476.571 397.351 476.571 396.606 477.321 396.606C477.321 396.606 478.066 396.606 478.066 395.861L485.535 388.393L485.532 618.356Z" fill="#FFFDFA"/>
<path d="M575.132 141.986L603.507 170.36L434.013 340.6L405.639 312.226L575.132 141.986Z" fill="#FFFDFA"/>
<path d="M472.839 380.172L444.464 351.798L614.704 181.558L643.079 209.932L472.839 380.172Z" fill="#FFFDFA"/>
<path d="M171.932 45.6656H194.333C198.813 45.6656 201.802 42.6812 201.802 38.1968V15.8008H336.202V38.2022C336.202 42.6814 339.186 45.671 343.671 45.671H366.072V90.4736L171.926 90.4684L171.932 45.6656Z" fill="#FFFDFA"/>
<path d="M608.732 120.335C618.44 110.627 634.117 110.627 643.825 120.335L664.732 141.242C674.44 150.95 674.44 166.627 664.732 176.335L662.492 178.574L606.492 122.574L608.732 120.335Z" fill="#FFFDFA"/>
<path d="M431.027 386.144L398.923 354.04L400.417 328.655L455.672 383.91L431.027 386.144Z" fill="#FFFDFA"/>
<path d="M295.88 155.427C301.109 157.666 306.333 159.906 310.812 163.64C312.307 164.385 313.797 165.135 314.547 165.135C316.786 165.135 319.026 163.64 320.521 161.401C322.76 157.666 322.015 153.187 318.281 150.948C312.307 147.213 306.333 144.229 300.36 141.989C296.625 140.495 292.146 141.989 290.651 146.469C290.651 149.453 292.146 153.932 295.88 155.427Z" fill="#222222"/>
<path d="M362.333 236.814C364.573 245.772 366.068 253.986 366.068 262.199V265.933C366.068 270.413 369.052 273.402 373.536 273.402C377.271 273.402 381.005 270.418 381.005 265.933V261.454C381.005 251.746 379.51 242.042 377.271 231.59C376.526 227.856 372.042 224.871 368.312 226.361C363.828 228.601 361.588 232.335 362.333 236.814Z" fill="#222222"/>
<path d="M357.853 212.174C359.348 212.174 360.093 212.174 361.588 211.429C365.322 209.189 366.817 204.71 364.572 200.976C359.343 190.523 352.624 181.564 345.16 173.35C342.176 170.366 337.691 169.616 334.707 172.606C331.723 175.59 330.973 180.074 333.962 183.059C340.681 190.528 346.655 198.741 351.134 208.444C352.624 210.684 355.614 212.174 357.853 212.174Z" fill="#222222"/>
<path d="M366.067 334.627C367.562 334.627 369.051 333.882 370.546 333.132C373.531 330.892 374.281 325.663 372.041 322.679C369.801 318.944 366.812 315.96 363.827 312.97C366.812 309.236 369.057 305.502 371.296 301.773C373.536 298.038 372.041 293.559 368.312 291.32C364.577 289.08 360.098 290.575 357.859 294.304C355.619 298.783 351.885 303.262 348.15 307.741C345.166 310.726 345.166 315.21 348.15 318.194C352.63 322.674 356.364 327.153 359.348 331.632C361.588 333.137 363.827 334.627 366.067 334.627Z" fill="#222222"/>
<path d="M383.24 412.28C379.506 410.785 375.027 413.025 373.532 416.759C369.797 426.468 364.573 432.442 355.611 437.666C351.876 439.906 350.381 444.385 352.626 448.119C354.121 450.359 356.361 451.853 359.345 451.853C360.84 451.853 361.585 451.853 363.079 451.109C375.772 444.39 383.241 435.426 387.719 421.989C389.214 417.504 387.719 413.025 383.24 412.28Z" fill="#222222"/>
<path d="M322.76 450.36C317.531 451.855 311.562 453.345 305.588 454.095C301.854 454.84 298.869 458.574 299.614 462.308C300.359 466.043 303.349 468.282 307.083 468.282H308.578C315.297 467.538 322.015 466.043 327.99 464.548C331.724 463.803 334.709 459.319 333.219 455.59C331.719 451.855 326.495 448.866 322.76 450.36Z" fill="#222222"/>
<path d="M310.813 417.507C313.798 415.267 314.548 410.038 312.308 407.054C310.068 404.07 304.839 403.32 301.855 405.559L276.47 425.721V318.199L310.819 290.574C313.803 288.334 314.553 283.105 312.314 280.121C310.074 277.136 304.845 276.386 301.861 278.626L276.47 298.787V202.47C276.47 197.991 273.486 195.001 269.001 195.001C264.522 195.001 261.532 197.986 261.532 202.47V239.058L236.147 218.897C233.163 216.657 227.933 216.657 225.694 220.391C223.454 223.376 223.454 228.605 227.189 230.845L261.538 258.47V365.991L236.153 345.83C233.168 343.59 227.939 343.59 225.7 347.325C223.46 350.309 223.46 355.538 227.195 357.778L261.544 385.403L261.533 456.335C224.945 455.59 157.003 445.882 157.003 389.138C157.003 365.242 168.951 338.367 189.857 317.455C192.842 314.471 192.842 309.986 189.857 307.002C178.66 295.804 172.685 280.122 172.685 262.199C172.685 211.429 215.992 150.199 269.753 150.199C274.233 150.199 277.222 147.215 277.222 142.731C277.222 138.251 274.238 135.262 269.753 135.262C207.78 135.262 157.753 204.699 157.753 262.194C157.753 281.606 163.727 298.782 174.925 312.22C154.019 335.376 142.071 363.747 142.071 389.138C142.071 439.164 186.873 469.034 261.54 471.274V523.539C261.54 528.018 264.525 531.008 269.009 531.008C273.488 531.008 276.478 528.023 276.478 523.539L276.473 445.138L310.813 417.507Z" fill="#222222"/>
</svg>
