<svg id="Layer_1" data-name="Layer 1" xmlns="http://www.w3.org/2000/svg" viewBox="0 0 53 53"><defs><style>.cls-1{fill:#fff;}.cls-1,.cls-3{stroke:#231f20;stroke-linecap:round;stroke-linejoin:round;stroke-width:2px;}.cls-2{fill:#231f20;}.cls-3{fill:none;}</style></defs><polygon class="cls-1" points="27.3 1 25.7 1 24.1 1.1 22.51 1.3 20.93 1.6 19.38 2 17.86 2.5 16.37 3.09 14.92 3.77 13.51 4.54 12.16 5.4 10.86 6.34 9.63 7.36 8.46 8.46 7.36 9.63 6.34 10.86 5.4 12.16 4.54 13.51 3.77 14.92 3.09 16.37 2.5 17.86 2 19.38 1.6 20.93 1.3 22.51 1.1 24.1 1 25.7 1 27.3 1.1 28.9 1.3 30.49 1.6 32.06 2 33.62 2.5 35.14 3.09 36.63 3.77 38.08 4.54 39.49 5.4 40.84 6.34 42.14 7.36 43.37 8.46 44.54 9.63 45.64 10.86 46.66 12.16 47.6 13.51 48.46 14.92 49.23 16.37 49.91 17.86 50.5 19.38 51 20.93 51.4 22.51 51.7 24.1 51.9 25.7 52 27.3 52 28.9 51.9 30.49 51.7 32.06 51.4 33.62 51 35.14 50.5 36.63 49.91 38.08 49.23 39.49 48.46 40.84 47.6 42.14 46.66 43.37 45.64 44.54 44.54 45.64 43.37 46.66 42.14 47.6 40.84 48.46 39.49 49.23 38.08 49.91 36.63 50.5 35.14 51 33.62 51.4 32.06 51.7 30.49 51.9 28.9 52 27.3 52 25.7 51.9 24.1 51.7 22.51 51.4 20.93 51 19.38 50.5 17.86 49.91 16.37 49.23 14.92 48.46 13.51 47.6 12.16 46.66 10.86 45.64 9.63 44.54 8.46 43.37 7.36 42.14 6.34 40.84 5.4 39.49 4.54 38.08 3.77 36.63 3.09 35.14 2.5 33.62 2 32.06 1.6 30.49 1.3 28.9 1.1 27.3 1"/><circle class="cls-2" cx="19.88" cy="25.43" r="1.73"/><circle class="cls-2" cx="33.12" cy="25.43" r="1.73"/><path class="cls-3" d="M25.55,45.55c.77.91,4.78,5.42,11,5.31,5.92-.11,9.71-4.34,10.53-5.31" transform="translate(-9.81 -12.06)"/></svg>