<svg id="Layer_1" data-name="Layer 1" xmlns="http://www.w3.org/2000/svg" viewBox="0 0 62.15 53.82"><defs><style>.cls-1{fill:#fff;stroke:#231f20;stroke-miterlimit:10;stroke-width:2px;}</style></defs><polygon class="cls-1" points="46.03 1 16.11 1 1.16 26.91 16.11 52.82 46.03 52.82 60.99 26.91 46.03 1"/><path d="M44.64,40.64H40.17l-.84,5.88H37.41l.84-5.88H31.87L31,46.52H29.12L30,40.64H25.48l.3-1.9h4.46l1.19-8.35H27l.26-1.9h4.48l.8-5.59h1.9l-.8,5.59H40l.8-5.59h1.91l-.8,5.59H46.4l-.26,1.9H41.65l-1.2,8.35h4.48Zm-12.48-1.9h6.37l1.2-8.35H33.35Z" transform="translate(-4.87 -7.8)"/></svg>