<svg width="615" height="614" viewBox="0 0 615 614" fill="none" xmlns="http://www.w3.org/2000/svg">
<path d="M605.787 325.582H335.12C332.797 325.582 330.573 326.504 328.933 328.144C327.292 329.785 326.37 332.014 326.37 334.332V543.985C326.37 548.818 330.287 552.735 335.12 552.735C339.953 552.735 343.87 548.818 343.87 543.985V343.078H597.043V596.252H565.543L565.538 508.716C565.538 506.393 564.616 504.169 562.976 502.528C561.335 500.888 559.111 499.966 556.788 499.966H516.742C520.716 492.466 522.794 484.106 522.788 475.616V465.392C533.283 460.887 541.715 452.622 546.424 442.215C551.133 431.814 551.779 420.022 548.237 409.163C546.732 404.569 541.789 402.064 537.195 403.569C532.602 405.069 530.096 410.012 531.602 414.606C534.695 423.991 532.643 434.308 526.195 441.803C519.753 449.293 509.851 452.86 500.113 451.199C490.368 449.543 482.206 442.902 478.602 433.704C477.284 430.361 474.055 428.163 470.461 428.163C466.868 428.163 463.638 430.361 462.321 433.704C459.748 440.496 454.67 446.048 448.127 449.22C441.591 452.387 434.086 452.934 427.158 450.746C420.231 448.559 414.403 443.798 410.866 437.449C407.335 431.1 406.366 423.637 408.163 416.595C409.96 409.558 414.382 403.47 420.522 399.584C426.663 395.704 434.058 394.313 441.189 395.709C445.444 396.49 449.626 394.037 451.022 389.944C452.85 384.47 456.897 380.022 462.173 377.688C467.455 375.355 473.47 375.355 478.747 377.688C484.023 380.022 488.07 384.47 489.898 389.944C491.304 394.027 495.481 396.475 499.731 395.709C501.398 395.386 503.085 395.209 504.783 395.183C509.028 395.173 513.221 396.126 517.044 397.98C521.393 400.084 526.627 398.266 528.731 393.917C530.84 389.569 529.023 384.334 524.674 382.23C518.09 378.996 510.814 377.444 503.491 377.709C499.059 369.876 491.991 363.871 483.543 360.767C475.095 357.663 465.824 357.662 457.376 360.767C448.928 363.871 441.86 369.876 437.428 377.709C423.142 377.298 409.486 383.6 400.522 394.74C391.558 405.875 388.329 420.568 391.782 434.437C395.241 448.307 404.99 459.76 418.132 465.391V475.615C418.126 484.104 420.204 492.464 424.178 499.964H384.132C381.809 499.964 379.585 500.886 377.944 502.526C376.304 504.167 375.382 506.391 375.382 508.714V596.255L343.876 596.25V586.646C343.876 581.813 339.96 577.896 335.126 577.896C330.293 577.896 326.376 581.813 326.376 586.646V605.001C326.376 607.323 327.298 609.547 328.939 611.188C330.58 612.829 332.804 613.751 335.126 613.751H605.793C608.111 613.751 610.34 612.829 611.981 611.188C613.621 609.547 614.543 607.323 614.543 605.001V334.334C614.543 332.016 613.621 329.787 611.981 328.146C610.34 326.506 608.111 325.584 605.793 325.584L605.787 325.582ZM436.133 469.102C449.29 469.143 461.816 463.466 470.456 453.55C479.097 463.466 491.623 469.143 504.779 469.102C504.951 469.102 505.117 469.076 505.284 469.076V475.617C505.268 488.05 498.628 499.529 487.857 505.743C477.087 511.956 463.827 511.956 453.055 505.743C442.283 499.529 435.643 488.049 435.628 475.617V469.076C435.8 469.081 435.962 469.102 436.133 469.102ZM392.879 517.462H439.176V517.467C448.186 524.264 459.171 527.946 470.457 527.946C481.749 527.946 492.728 524.264 501.739 517.467H548.036V596.134H392.876L392.879 517.462ZM280.207 377.115C282.53 377.115 284.754 376.193 286.394 374.553C288.035 372.912 288.957 370.688 288.957 368.365V334.334C288.957 332.017 288.035 329.788 286.394 328.147C284.754 326.506 282.53 325.584 280.207 325.584H9.54003C7.2223 325.584 4.99309 326.506 3.35256 328.147C1.71189 329.788 0.790029 332.017 0.790029 334.334V605.001C0.790029 607.324 1.71191 609.548 3.35256 611.189C4.99323 612.829 7.2223 613.751 9.54003 613.751H57.9467C58.1446 613.767 58.3373 613.808 58.5404 613.808L231.207 613.814C231.41 613.814 231.603 613.767 231.801 613.756L280.213 613.751C282.536 613.751 284.76 612.829 286.4 611.189C288.041 609.548 288.963 607.324 288.963 605.001V415.188C288.963 410.354 285.046 406.438 280.213 406.438C275.38 406.438 271.463 410.354 271.463 415.188V596.254H239.958V508.718C239.952 504.75 237.27 501.286 233.432 500.286V447.302C233.432 415.666 216.557 386.433 189.156 370.614C161.76 354.797 128.005 354.797 100.604 370.614C73.2075 386.432 56.3275 415.666 56.3275 447.302V500.286C52.489 501.286 49.8067 504.75 49.8015 508.718V553.369C49.8015 558.202 53.7182 562.119 58.5515 562.119C63.3849 562.119 67.3015 558.202 67.3015 553.369V517.468H113.599C122.609 524.265 133.588 527.947 144.88 527.947C156.167 527.947 167.151 524.265 176.162 517.468H222.459V596.26L67.2989 596.255V592.744C67.2989 587.911 63.3822 583.994 58.5489 583.994C53.7155 583.994 49.7989 587.911 49.7989 592.744V596.255H18.2935V343.081H271.467V368.363C271.467 370.685 272.389 372.91 274.029 374.55C275.67 376.191 277.899 377.113 280.217 377.113L280.207 377.115ZM144.873 376.245C163.712 376.266 181.769 383.756 195.092 397.079C208.41 410.396 215.904 428.459 215.925 447.297V499.964H191.155C195.129 492.464 197.207 484.104 197.202 475.615V436.203C197.202 431.796 193.926 428.078 189.556 427.52C185.613 426.739 181.983 424.838 179.092 422.041C176.207 419.249 174.186 415.682 173.274 411.77C172.519 408.312 169.754 405.656 166.274 405.031C162.79 404.411 159.274 405.942 157.368 408.921C150.045 420.333 118.8 426.129 100.827 427.093C96.181 427.349 92.5456 431.182 92.5456 435.833V475.614C92.5404 484.104 94.6186 492.464 98.5926 499.964H73.8219V447.297C73.8427 428.458 81.3375 410.401 94.6552 397.078C107.978 383.755 126.035 376.267 144.873 376.245ZM110.045 475.615V443.885C122.801 442.521 146.545 438.698 161.8 428.448H161.795C165.951 435.198 172.258 440.354 179.702 443.084V475.615C179.686 488.047 173.045 499.527 162.275 505.74C151.504 511.953 138.244 511.954 127.472 505.74C116.7 499.526 110.06 488.047 110.045 475.615ZM280.205 0.0013326H9.5387C7.22096 0.0013326 4.99176 0.92321 3.35123 2.56386C1.71056 4.20453 0.788696 6.4336 0.788696 8.75133V38.21C0.788696 43.0433 4.70536 46.96 9.5387 46.96C14.372 46.96 18.2887 43.0433 18.2887 38.21V17.502H271.462V270.675H239.957V183.134C239.957 180.816 239.035 178.592 237.394 176.947C235.754 175.306 233.53 174.384 231.207 174.384H191.16C195.134 166.884 197.212 158.524 197.207 150.04V138.087C197.207 138.035 197.191 137.988 197.191 137.931C202.9 135.592 207.78 131.613 211.222 126.493C214.659 121.379 216.503 115.353 216.514 109.187V57.0612C216.514 54.7383 215.592 52.5143 213.951 50.8738C212.311 49.2331 210.081 48.3112 207.764 48.3112H197.983C193.149 48.3112 189.233 52.2279 189.233 57.0612C189.233 61.8893 193.149 65.8112 197.983 65.8112H199.014V109.186C199.003 116.686 192.925 122.77 185.426 122.779H100.196C97.6861 122.784 95.2746 121.79 93.4986 120.019C91.7174 118.243 90.7174 115.837 90.7174 113.326C90.7174 110.811 91.7174 108.404 93.4986 106.628C95.2746 104.857 97.6861 103.863 100.196 103.868H113.436C115.759 103.873 117.983 102.951 119.624 101.305C121.264 99.6647 122.186 97.4408 122.186 95.1179C122.196 87.3471 125.285 79.8992 130.78 74.4045C136.275 68.9097 143.728 65.816 151.498 65.8108H157.358C162.191 65.8108 166.108 61.8889 166.108 57.0608C166.108 52.2275 162.191 48.3108 157.358 48.3108H151.498C140.603 48.3212 130.056 52.1285 121.665 59.0764C113.269 66.0191 107.556 75.6697 105.504 86.3684H100.196C91.4934 86.3476 83.3165 90.5351 78.2538 97.6184C73.1965 104.697 71.8735 113.79 74.7122 122.014C77.5507 130.244 84.1966 136.588 92.5509 139.041V150.041C92.5456 158.525 94.6238 166.885 98.5978 174.385H58.5511C56.2282 174.385 54.0042 175.307 52.3637 176.948C50.723 178.593 49.8011 180.817 49.8011 183.135V270.676H18.2958V82.7431C18.2958 77.9097 14.3791 73.9931 9.5458 73.9931C4.71246 73.9931 0.795797 77.9097 0.795797 82.7431V279.423C0.795797 281.746 1.71767 283.97 3.35833 285.611C4.99899 287.251 7.22806 288.173 9.5458 288.173H280.212C282.535 288.173 284.759 287.251 286.4 285.611C288.041 283.97 288.962 281.746 288.962 279.423V8.75641C288.962 6.43868 288.041 4.20948 286.4 2.56894C284.759 0.928278 282.535 0.00640869 280.212 0.00640869L280.205 0.0013326ZM110.045 150.028V140.268H179.701V150.028C179.712 159.273 176.05 168.143 169.519 174.684C162.983 181.226 154.118 184.903 144.874 184.903C135.63 184.903 126.764 181.226 120.228 174.684C113.697 168.142 110.03 159.272 110.045 150.028ZM67.296 191.877H110.124L110.119 191.872C111.077 191.862 112.02 191.695 112.921 191.377C122.015 198.466 133.208 202.325 144.738 202.357C156.269 202.388 167.478 198.581 176.608 191.539C177.352 191.752 178.118 191.862 178.889 191.872H222.452V270.544H67.2915L67.296 191.877ZM605.789 231.487C608.107 231.487 610.336 230.565 611.977 228.924C613.617 227.283 614.539 225.054 614.539 222.737V8.75C614.539 6.43227 613.618 4.20306 611.977 2.56253C610.336 0.921864 608.107 0 605.789 0H335.123C332.8 0 330.576 0.921877 328.935 2.56253C327.295 4.2032 326.373 6.43227 326.373 8.75V279.417C326.373 281.74 327.295 283.964 328.935 285.604C330.576 287.245 332.8 288.167 335.123 288.167H605.789C608.107 288.167 610.336 287.245 611.977 285.604C613.618 283.963 614.539 281.74 614.539 279.417V261.49C614.539 256.657 610.623 252.74 605.789 252.74C600.956 252.74 597.039 256.657 597.039 261.49V270.667H565.539L565.534 183.126C565.534 180.808 564.612 178.584 562.972 176.938C561.331 175.298 559.107 174.376 556.784 174.376H519.019C521.503 168.219 522.779 161.636 522.784 154.996V113.621C522.764 94.9384 512.79 77.6837 496.607 68.3504C480.424 59.0119 460.492 59.0119 444.31 68.3504C428.122 77.6837 418.148 94.9384 418.127 113.621V135.476C418.127 140.309 422.044 144.226 426.877 144.226C431.71 144.226 435.627 140.309 435.627 135.476V113.621C435.632 110.996 435.94 108.381 436.539 105.824C445.497 114.887 457.716 119.985 470.456 119.98C483.201 119.975 495.415 114.871 504.368 105.797C504.972 108.36 505.279 110.985 505.285 113.62V154.995C505.285 166.042 500.045 176.427 491.165 182.995C482.284 189.563 470.815 191.531 460.253 188.302C449.695 185.068 441.289 177.021 437.607 166.609C435.993 162.052 430.998 159.666 426.441 161.276C421.888 162.885 419.498 167.885 421.107 172.442C421.347 173.114 421.706 173.718 421.967 174.38L384.128 174.375C381.805 174.375 379.581 175.297 377.94 176.937C376.3 178.578 375.378 180.807 375.378 183.125V270.666H343.873V17.4927H597.046V222.733C597.046 225.05 597.968 227.28 599.608 228.92C601.249 230.561 603.473 231.483 605.796 231.483L605.789 231.487ZM470.456 102.476C460.545 102.252 451.284 97.4864 445.336 89.5541C451.888 82.6792 460.972 78.7885 470.467 78.7885C479.962 78.7937 489.04 82.6896 495.587 89.5645C489.618 97.4812 480.363 102.231 470.456 102.476ZM392.877 191.872H433.44C443.237 201.757 456.571 207.32 470.487 207.32C484.403 207.32 497.741 201.757 507.533 191.872H548.033V270.632H392.873L392.877 191.872Z" fill="black"/>
</svg>
