<svg width="64" height="64" viewBox="0 0 64 64" fill="none" xmlns="http://www.w3.org/2000/svg">
<path d="M43.6643 52.2573C43.2776 52.2573 42.8915 52.1097 42.5965 51.8158L36.519 45.748C36.1954 45.4249 36.0363 44.9732 36.0854 44.5193C36.135 44.0654 36.388 43.6583 36.773 43.4117C38.11 42.5583 39.3585 41.5551 40.4845 40.4309C41.582 39.3352 42.5646 38.122 43.4054 36.8255C43.6529 36.4432 44.0606 36.1934 44.5141 36.1455C44.9666 36.0981 45.418 36.2564 45.7411 36.5784L51.799 42.6267C52.3885 43.2152 52.3885 44.1698 51.799 44.759L44.732 51.8148C44.437 52.1098 44.0508 52.2573 43.6641 52.2573L43.6643 52.2573ZM39.9324 44.8913L43.6643 48.6173L48.5957 43.6932L44.8762 39.9796C44.1848 40.8902 43.4297 41.7549 42.6203 42.5631C41.7806 43.4014 40.881 44.1805 39.9324 44.8913Z" fill="#222222"/>
<path d="M39.9324 44.8913L43.6643 48.6173L48.5957 43.6932L44.8762 39.9796C44.1848 40.8902 43.4297 41.7549 42.6203 42.5631C41.7806 43.4014 40.881 44.1805 39.9324 44.8913Z" fill="#FFFDFA"/>
<path d="M57.4953 64.0001C55.7571 64.0001 54.1231 63.3243 52.894 62.0972L46.8674 56.0801C46.2779 55.4916 46.2779 54.537 46.8674 53.9479L53.9345 46.8921C54.5245 46.3036 55.4801 46.3036 56.0701 46.8921L62.0968 52.9091C64.6342 55.4425 64.6342 59.5642 62.0968 62.097C60.8677 63.3241 59.2342 63.9999 57.4955 63.9999L57.4953 64.0001ZM50.0708 55.0141L55.0297 59.965C55.6882 60.6225 56.564 60.9848 57.4953 60.9848C58.4267 60.9848 59.3026 60.6225 59.961 59.965C61.3206 58.6076 61.3206 56.399 59.961 55.0409L55.0021 50.09L50.0708 55.0141Z" fill="#222222"/>
<path d="M50.0708 55.0141L55.0297 59.965C55.6882 60.6225 56.564 60.9848 57.4953 60.9848C58.4267 60.9848 59.3026 60.6225 59.961 59.965C61.3206 58.6076 61.3206 56.399 59.961 55.0409L55.0021 50.09L50.0708 55.0141Z" fill="#FFFDFA"/>
<path d="M46.4077 58.0467C46.021 58.0467 45.6349 57.8992 45.3399 57.6052L41.0686 53.3407C40.4791 52.7522 40.4791 51.7976 41.0686 51.2084L51.1891 41.104C51.7791 40.5155 52.7347 40.5155 53.3248 41.104L57.5961 45.3685C58.1856 45.957 58.1856 46.9116 57.5961 47.5008L47.4756 57.6052C47.1806 57.8992 46.7944 58.0467 46.4077 58.0467ZM44.2726 52.2746L46.4083 54.4069L54.3937 46.4342L52.2581 44.3019L44.2726 52.2746Z" fill="#222222"/>
<path d="M44.2726 52.2746L46.4083 54.4069L54.3937 46.4342L52.2581 44.3019L44.2726 52.2746Z" fill="#FFFDFA"/>
<path d="M24.96 49.8658H24.9594C18.2894 49.8658 12.019 47.2727 7.30278 42.5639C-2.43426 32.8424 -2.43426 17.0234 7.30278 7.30282C12.0195 2.59362 18.2911 0 24.9622 0C31.6328 0 37.9043 2.59362 42.6216 7.30282C46.6863 11.361 49.2394 16.7358 49.8105 22.4364C50.3735 28.0566 48.9994 33.7495 45.942 38.4659C44.9863 39.9401 43.8689 41.3191 42.6215 42.565C41.3412 43.8433 39.9217 44.9832 38.4015 45.954C34.3929 48.5131 29.7452 49.8669 24.961 49.8669L24.96 49.8658ZM24.9616 3.015C19.0977 3.015 13.5845 5.29475 9.43799 9.4348C0.878192 17.9809 0.878192 31.8863 9.43799 40.4325C13.5836 44.5714 19.0958 46.8506 24.9588 46.8512C29.1649 46.8512 33.2507 45.6623 36.7727 43.4133C38.1097 42.5599 39.3582 41.5567 40.4842 40.4325C41.5817 39.3368 42.5643 38.1237 43.4051 36.8271C48.9869 28.218 47.7583 16.6982 40.4842 9.43535C36.3381 5.29585 30.8253 3.0161 24.9606 3.0161L24.9616 3.015Z" fill="#222222"/>
<path d="M24.9616 3.015C19.0977 3.015 13.5845 5.29475 9.43799 9.4348C0.878192 17.9809 0.878192 31.8863 9.43799 40.4325C13.5836 44.5714 19.0958 46.8506 24.9588 46.8512C29.1649 46.8512 33.2507 45.6623 36.7727 43.4133C38.1097 42.5599 39.3582 41.5567 40.4842 40.4325C41.5817 39.3368 42.5643 38.1237 43.4051 36.8271C48.9869 28.218 47.7583 16.6982 40.4842 9.43535C36.3381 5.29585 30.8253 3.0161 24.9606 3.0161L24.9616 3.015Z" fill="#FFFDFA"/>
<path d="M24.9599 42.4044H24.9593C20.2857 42.4044 15.892 40.5871 12.5872 37.2882C5.76454 30.4758 5.76454 19.3923 12.5872 12.5802C15.8926 9.28054 20.2869 7.46338 24.961 7.46338C29.6351 7.46338 34.0294 9.28068 37.3347 12.5802C40.1828 15.4237 41.9722 19.1901 42.3723 23.1848C42.7665 27.123 41.8039 31.1118 39.6612 34.4161C38.9914 35.4494 38.2088 36.4154 37.3346 37.2876C36.4377 38.1831 35.4427 38.9821 34.3781 39.6617C31.5689 41.4563 28.3117 42.4044 24.9599 42.4044ZM24.961 10.4777C21.0936 10.4777 17.4576 11.9815 14.7229 14.712C9.07742 20.3485 9.07742 29.5189 14.7229 35.1552C17.4572 37.8852 21.0926 39.3885 24.9594 39.3885C27.7336 39.3885 30.4279 38.6045 32.7513 37.1211C33.6331 36.5584 34.4567 35.8967 35.1997 35.1552C35.9235 34.4321 36.5717 33.6319 37.1266 32.7769C40.8079 27.0991 39.9979 19.5016 35.1997 14.7115C32.4649 11.9806 28.8289 10.4771 24.9611 10.4771L24.961 10.4777Z" fill="#222222"/>
<path d="M30.9286 20.4835C30.5419 20.4835 30.1558 20.3365 29.8608 20.0419C27.1595 17.3449 22.7636 17.3449 20.0621 20.0419C19.4727 20.6305 18.5165 20.6305 17.9265 20.0419C17.337 19.4534 17.337 18.4988 17.9265 17.9097C21.8057 14.0366 28.117 14.0366 31.9963 17.9097C32.5857 18.4982 32.5857 19.4528 31.9963 20.0419C31.7013 20.3365 31.3147 20.4835 30.9286 20.4835Z" fill="#222222"/>
</svg>
