<?xml version="1.0" encoding="utf-8"?>
<!-- Generator: Adobe Illustrator 26.0.3, SVG Export Plug-In . SVG Version: 6.00 Build 0)  -->
<svg version="1.1" id="Layer_1" xmlns="http://www.w3.org/2000/svg" xmlns:xlink="http://www.w3.org/1999/xlink" x="0px" y="0px"
	 viewBox="0 0 85 101" style="enable-background:new 0 0 85 101;" xml:space="preserve">
<style type="text/css">
	.st0{fill:#0C1D1D;}
	.st1{fill:#C4CCE8;}
	.st2{fill:#C9B1A1;}
	.st3{fill:#91B7B6;}
	.st4{fill:#FF9D5C;}
</style>
<path class="st0" d="M81.1,63.8h-1.4V18.3c0-3-2.5-5.5-5.5-5.5H48V6c0-3.1-2.5-5.5-5.5-5.5c-3.1,0-5.5,2.5-5.5,5.5v6.8H10.7
	c-3,0-5.5,2.5-5.5,5.5v45.5l-1.4,0c-2.1,0-3.8,1.7-3.8,3.8v7.7c0,2.1,1.7,3.8,3.8,3.8h14l-3.9,14.4c-0.4,1.4-0.2,2.9,0.6,4.2
	c0.7,1.3,1.9,2.2,3.3,2.5c0.5,0.1,1,0.2,1.4,0.2c1,0,1.9-0.3,2.8-0.8c1.3-0.7,2.2-1.9,2.5-3.3l4.6-17.3h7.7v11.7
	c0,3.1,2.5,5.5,5.5,5.5c3,0,5.5-2.5,5.5-5.5V79.1h7.7l4.6,17.3c0.6,2.5,2.9,4.1,5.4,4.1c0.5,0,1-0.1,1.4-0.2
	c2.9-0.8,4.7-3.8,3.9-6.8l-3.9-14.4h14c2.1,0,3.8-1.7,3.8-3.8v-7.7C85,65.6,83.2,63.8,81.1,63.8L81.1,63.8z M60.2,63.8
	c-0.1-0.1-0.1-0.3-0.3-0.4L49.7,53.2l3.9-3.9c4.1-4.1,10.9-4.1,15,0l7.7,7.7v6.8L60.2,63.8z M40.4,6c0-1.1,0.9-2.1,2.1-2.1
	c1.1,0,2,1,2,2.1v6.8h-4.1L40.4,6z M10.7,16.3h63.6c1.1,0,2,0.9,2,2v33.9L71,46.9c-5.5-5.5-14.4-5.5-19.9,0l-3.9,3.9L36.4,40
	c-2.6-2.6-6.2-4.1-9.9-4.1c-3.8,0-7.3,1.5-9.9,4.1l-8,7.9V18.3C8.6,17.2,9.6,16.3,10.7,16.3L10.7,16.3z M8.6,52.7L19,42.4
	c2-2,4.6-3.1,7.5-3.1c2.8,0,5.5,1.1,7.5,3.1l21.4,21.4H8.6L8.6,52.7z M21.3,95.5c-0.1,0.5-0.5,1-0.9,1.2c-0.5,0.3-1,0.4-1.6,0.2
	c-0.5-0.1-1-0.5-1.2-0.9c-0.3-0.5-0.4-1-0.2-1.6l2.1-7.7l2.1-7.7h4.3L21.3,95.5z M44.5,90.8c0,1.1-0.9,2.1-2,2.1
	c-1.1,0-2.1-0.9-2.1-2.1V79.1h4.1L44.5,90.8z M67.7,94.4c0.3,1.1-0.4,2.2-1.5,2.5c-0.6,0.1-1.1,0.1-1.6-0.2c-0.5-0.3-0.8-0.7-1-1.3
	l-4.4-16.4h4.3L67.7,94.4z M81.5,75.3c0,0.2-0.2,0.4-0.4,0.4H3.8c-0.2,0-0.3-0.1-0.3-0.4v-7.7c0-0.2,0.2-0.3,0.3-0.3h77.4
	c0.2,0,0.4,0.2,0.4,0.3V75.3z"/>
<path class="st1" d="M10.7,16.3h63.6c1.1,0,2,0.9,2,2v33.9L71,46.9c-5.5-5.5-14.4-5.5-19.9,0l-3.9,3.9L36.4,40
	c-2.6-2.6-6.2-4.1-9.9-4.1c-3.8,0-7.3,1.5-9.9,4.1l-8,7.9V18.3C8.6,17.2,9.6,16.3,10.7,16.3L10.7,16.3z"/>
<path class="st2" d="M8.6,52.7L19,42.4c2-2,4.6-3.1,7.5-3.1c2.8,0,5.5,1.1,7.5,3.1l21.4,21.4H8.6L8.6,52.7z"/>
<path class="st2" d="M60.2,63.8c-0.1-0.1-0.1-0.3-0.3-0.4L49.7,53.2l3.9-3.9c4.1-4.1,10.9-4.1,15,0l7.7,7.7v6.8L60.2,63.8z"/>
<path class="st3" d="M81.5,75.3c0,0.2-0.2,0.4-0.4,0.4H3.8c-0.2,0-0.3-0.1-0.3-0.4v-7.7c0-0.2,0.2-0.3,0.3-0.3h77.4
	c0.2,0,0.4,0.2,0.4,0.3V75.3z"/>
<path class="st3" d="M21.3,95.5c-0.1,0.5-0.5,1-0.9,1.2c-0.5,0.3-1,0.4-1.6,0.2c-0.5-0.1-1-0.5-1.2-0.9c-0.3-0.5-0.4-1-0.2-1.6
	l2.1-7.7l2.1-7.7h4.3L21.3,95.5z"/>
<path class="st3" d="M44.5,90.8c0,1.1-0.9,2.1-2,2.1c-1.1,0-2.1-0.9-2.1-2.1V79.1h4.1L44.5,90.8z"/>
<path class="st3" d="M67.7,94.4c0.3,1.1-0.4,2.2-1.5,2.5c-0.6,0.1-1.1,0.1-1.6-0.2c-0.5-0.3-0.8-0.7-1-1.3l-4.4-16.4h4.3L67.7,94.4z
	"/>
<path class="st3" d="M40.4,6c0-1.1,0.9-2.1,2.1-2.1c1.1,0,2,1,2,2.1v6.8h-4.1L40.4,6z"/>
<path class="st0" d="M51.8,34.7c3.3,0,5.9-2.7,5.9-6c0-3.3-2.7-5.9-5.9-5.9c-3.3,0-6,2.7-6,5.9C45.8,32.1,48.5,34.7,51.8,34.7z
	 M51.8,26.3c1.3,0,2.5,1.1,2.5,2.5c0,1.4-1.1,2.5-2.5,2.5c-1.4,0-2.5-1.1-2.5-2.5C49.3,27.4,50.4,26.3,51.8,26.3z"/>
<circle class="st4" cx="51.8" cy="28.8" r="2.5"/>
</svg>
