<svg width="101" height="100" viewBox="0 0 101 100" fill="none" xmlns="http://www.w3.org/2000/svg">
<g clip-path="url(#clip0_150_1040)">
<rect width="100.163" height="100" fill="#FFFDFA"/>
<path d="M98.6628 53.0264H54.5803C54.2019 53.0264 53.8397 53.1765 53.5726 53.4436C53.3053 53.7109 53.1552 54.0739 53.1552 54.4515V88.5969C53.1552 89.384 53.7931 90.022 54.5803 90.022C55.3674 90.022 56.0053 89.384 56.0053 88.5969V55.8759H97.2387V97.1094H92.1084L92.1076 82.8528C92.1076 82.4744 91.9575 82.1122 91.6904 81.8449C91.4231 81.5779 91.0609 81.4277 90.6825 81.4277H84.1604C84.8076 80.2062 85.1461 78.8446 85.1451 77.4619V75.7967C86.8544 75.063 88.2277 73.7169 88.9946 72.022C89.7615 70.328 89.8667 68.4075 89.2899 66.6389C89.0448 65.8907 88.2397 65.4827 87.4915 65.7278C86.7435 65.9721 86.3353 66.7772 86.5806 67.5254C87.0843 69.0539 86.7501 70.7342 85.7 71.9549C84.6508 73.1748 83.0381 73.7557 81.4521 73.4852C79.865 73.2155 78.5356 72.1339 77.9487 70.6358C77.734 70.0914 77.2081 69.7334 76.6228 69.7334C76.0376 69.7334 75.5115 70.0914 75.297 70.6358C74.878 71.742 74.0509 72.6462 72.9853 73.1629C71.9208 73.6787 70.6985 73.7678 69.5702 73.4114C68.442 73.0552 67.4928 72.2798 66.9167 71.2458C66.3417 70.2117 66.1838 68.9963 66.4765 67.8493C66.7692 66.7033 67.4894 65.7117 68.4894 65.0788C69.4895 64.4469 70.6939 64.2204 71.8553 64.4477C72.5483 64.5749 73.2294 64.1754 73.4568 63.5088C73.7545 62.6173 74.4137 61.8928 75.2729 61.5127C76.1332 61.1327 77.1128 61.1327 77.9723 61.5127C78.8316 61.8928 79.4907 62.6173 79.7884 63.5088C80.0174 64.1738 80.6977 64.5725 81.3899 64.4477C81.6614 64.3951 81.9361 64.3663 82.2127 64.3621C82.904 64.3604 83.5869 64.5156 84.2096 64.8176C84.9179 65.1603 85.7703 64.8642 86.113 64.1559C86.4565 63.4477 86.1606 62.5951 85.4523 62.2524C84.3799 61.7257 83.1949 61.473 82.0023 61.5161C81.2804 60.2404 80.1293 59.2624 78.7534 58.7568C77.3775 58.2513 75.8676 58.2511 74.4917 58.7568C73.1158 59.2624 71.9646 60.2404 71.2428 61.5161C68.9161 61.4492 66.692 62.4756 65.2321 64.2899C63.7721 66.1034 63.2462 68.4964 63.8086 70.7552C64.372 73.0142 65.9597 74.8795 68.1001 75.7966V77.4617C68.0992 78.8443 68.4376 80.2059 69.0848 81.4274H62.5627C62.1843 81.4274 61.8221 81.5775 61.5549 81.8446C61.2878 82.1119 61.1376 82.4741 61.1376 82.8524V97.1099L56.0063 97.1091V95.5449C56.0063 94.7578 55.3685 94.1199 54.5812 94.1199C53.7941 94.1199 53.1562 94.7578 53.1562 95.5449V98.5344C53.1562 98.9125 53.3063 99.2747 53.5736 99.542C53.8408 99.8093 54.2031 99.9594 54.5812 99.9594H98.6638C99.0413 99.9594 99.4044 99.8093 99.6716 99.542C99.9387 99.2747 100.089 98.9125 100.089 98.5344V54.4518C100.089 54.0743 99.9387 53.7112 99.6716 53.444C99.4044 53.1769 99.0413 53.0267 98.6638 53.0267L98.6628 53.0264ZM71.0319 76.401C73.1747 76.4077 75.2148 75.4831 76.622 73.8681C78.0293 75.4831 80.0694 76.4077 82.212 76.401C82.24 76.401 82.2671 76.3967 82.2943 76.3967V77.4621C82.2917 79.487 81.2102 81.3565 79.456 82.3686C77.7019 83.3805 75.5423 83.3805 73.7879 82.3686C72.0335 81.3565 70.9521 79.4868 70.9496 77.4621V76.3967C70.9777 76.3976 71.004 76.401 71.0319 76.401ZM63.9873 84.2772H71.5275V84.278C72.9949 85.385 74.784 85.9847 76.6221 85.9847C78.4612 85.9847 80.2493 85.385 81.7169 84.278H89.2571V97.0902H63.9868L63.9873 84.2772ZM45.6368 61.4194C46.0151 61.4194 46.3773 61.2692 46.6444 61.0021C46.9117 60.7349 47.0619 60.3726 47.0619 59.9943V54.4518C47.0619 54.0744 46.9117 53.7114 46.6444 53.4441C46.3773 53.1769 46.0151 53.0267 45.6368 53.0267H1.5542C1.17672 53.0267 0.813661 53.1769 0.546474 53.4441C0.279264 53.7114 0.129123 54.0744 0.129123 54.4518V98.5344C0.129123 98.9127 0.279267 99.2749 0.546474 99.5422C0.813684 99.8093 1.17672 99.9594 1.5542 99.9594H9.43803C9.47026 99.962 9.50164 99.9687 9.53472 99.9687L37.6563 99.9697C37.6894 99.9697 37.7208 99.962 37.7531 99.9603L45.6378 99.9594C46.0161 99.9594 46.3783 99.8093 46.6454 99.5422C46.9127 99.2749 47.0628 98.9127 47.0628 98.5344V67.6202C47.0628 66.8329 46.4249 66.1951 45.6378 66.1951C44.8506 66.1951 44.2127 66.8329 44.2127 67.6202V97.1098H39.0816V82.8531C39.0806 82.2068 38.6438 81.6427 38.0187 81.4798V72.8505C38.0187 67.698 35.2703 62.937 30.8076 60.3606C26.3457 57.7845 20.8482 57.7845 16.3855 60.3606C11.9235 62.9368 9.17431 67.698 9.17431 72.8505V81.4798C8.54915 81.6427 8.11229 82.2068 8.11145 82.8531V90.1252C8.11145 90.9124 8.74935 91.5503 9.53653 91.5503C10.3237 91.5503 10.9616 90.9124 10.9616 90.1252V84.2782H18.5019C19.9693 85.3852 21.7575 85.9849 23.5965 85.9849C25.4348 85.9849 27.2237 85.3852 28.6913 84.2782H36.2316V97.1107L10.9612 97.1099V96.5381C10.9612 95.751 10.3233 95.113 9.53611 95.113C8.74891 95.113 8.11102 95.751 8.11102 96.5381V97.1099H2.97985V55.8764H44.2133V59.994C44.2133 60.3722 44.3635 60.7345 44.6306 61.0016C44.8979 61.2689 45.2609 61.4191 45.6384 61.4191L45.6368 61.4194ZM23.5954 61.2777C26.6636 61.2811 29.6045 62.501 31.7744 64.6708C33.9435 66.8397 35.164 69.7816 35.1674 72.8497V81.4274H31.1332C31.7804 80.2059 32.1189 78.8443 32.118 77.4617V71.0428C32.118 70.3251 31.5845 69.7195 30.8728 69.6287C30.2306 69.5015 29.6394 69.1918 29.1685 68.7363C28.6987 68.2816 28.3695 67.7006 28.221 67.0635C28.098 66.5003 27.6477 66.0677 27.0809 65.966C26.5135 65.865 25.9408 66.1143 25.6304 66.5995C24.4378 68.4581 19.349 69.4021 16.4218 69.5591C15.6651 69.6008 15.073 70.2251 15.073 70.9826V77.4616C15.0722 78.8443 15.4107 80.2059 16.0579 81.4274H12.0236V72.8497C12.027 69.7814 13.2476 66.8406 15.4166 64.6707C17.5864 62.5008 20.5273 61.2813 23.5954 61.2777ZM17.9231 77.4617V72.294C20.0006 72.0718 23.8677 71.4492 26.3522 69.7798H26.3514C27.0283 70.8792 28.0555 71.7189 29.2679 72.1635V77.4617C29.2653 79.4865 28.1837 81.3562 26.4296 82.3681C24.6754 83.38 22.5158 83.3801 20.7614 82.3681C19.007 81.356 17.9255 79.4865 17.9231 77.4617ZM45.6364 0.000217036H1.55399C1.17651 0.000217036 0.813444 0.15036 0.546257 0.417567C0.279047 0.684777 0.128906 1.04782 0.128906 1.4253V6.22313C0.128906 7.01031 0.766799 7.64821 1.55399 7.64821C2.34117 7.64821 2.97907 7.01031 2.97907 6.22313V2.85049H44.2125V44.0839H39.0814V29.8264C39.0814 29.4489 38.9312 29.0866 38.664 28.8187C38.3969 28.5515 38.0347 28.4013 37.6563 28.4013H31.134C31.7812 27.1798 32.1197 25.8182 32.1189 24.4365V22.4897C32.1189 22.4813 32.1163 22.4736 32.1163 22.4643C33.0461 22.0834 33.8408 21.4353 34.4014 20.6015C34.9612 19.7686 35.2615 18.7871 35.2633 17.7829V9.29335C35.2633 8.91503 35.1132 8.55282 34.8459 8.28563C34.5788 8.01842 34.2156 7.86827 33.8382 7.86827H32.2452C31.4579 7.86827 30.8202 8.50617 30.8202 9.29335C30.8202 10.0797 31.4579 10.7184 32.2452 10.7184H32.4132V17.7827C32.4114 19.0042 31.4215 19.9951 30.2001 19.9966H16.319C15.9102 19.9974 15.5175 19.8355 15.2282 19.5471C14.9381 19.2578 14.7753 18.866 14.7753 18.457C14.7753 18.0474 14.9381 17.6554 15.2282 17.3661C15.5175 17.0777 15.9102 16.9158 16.319 16.9166H18.4754C18.8537 16.9174 19.2159 16.7673 19.4832 16.4992C19.7503 16.232 19.9005 15.8698 19.9005 15.4915C19.9021 14.2259 20.4052 13.0129 21.3001 12.118C22.1951 11.2231 23.4089 10.7192 24.6744 10.7184H25.6288C26.4159 10.7184 27.0539 10.0796 27.0539 9.29329C27.0539 8.50611 26.4159 7.86821 25.6288 7.86821H24.6744C22.9 7.8699 21.1822 8.48998 19.8156 9.62156C18.4482 10.7523 17.5177 12.3241 17.1835 14.0665H16.319C14.9017 14.0631 13.5699 14.7451 12.7454 15.8988C11.9217 17.0516 11.7062 18.5326 12.1686 19.872C12.6309 21.2124 13.7133 22.2456 15.0739 22.6451V24.4366C15.073 25.8184 15.4115 27.18 16.0587 28.4015H9.53646C9.15814 28.4015 8.79593 28.5516 8.52874 28.8189C8.26153 29.0868 8.11138 29.449 8.11138 29.8265V44.084H2.98023V13.4761C2.98023 12.6889 2.34233 12.051 1.55514 12.051C0.767956 12.051 0.130063 12.6889 0.130063 13.4761V45.5086C0.130063 45.887 0.280205 46.2492 0.547413 46.5164C0.814622 46.7835 1.17766 46.9337 1.55514 46.9337H45.6376C46.0159 46.9337 46.3781 46.7835 46.6454 46.5164C46.9127 46.2492 47.0627 45.887 47.0627 45.5086V1.42613C47.0627 1.04864 46.9127 0.685583 46.6454 0.418394C46.3781 0.151185 46.0159 0.00104376 45.6376 0.00104376L45.6364 0.000217036ZM17.9231 24.4345V22.845H29.2677V24.4345C29.2695 25.9402 28.6731 27.3849 27.6094 28.4502C26.5449 29.5156 25.1011 30.1145 23.5956 30.1145C22.09 30.1145 20.6461 29.5156 19.5816 28.4502C18.5179 27.3847 17.9207 25.9401 17.9231 24.4345ZM10.9607 31.2503H17.936L17.9351 31.2495C18.0912 31.2479 18.2448 31.2207 18.3915 31.1689C19.8726 32.3235 21.6956 32.952 23.5734 32.9572C25.4514 32.9622 27.277 32.3422 28.764 31.1953C28.8851 31.23 29.0099 31.2479 29.1355 31.2495H36.2304V44.0625H10.96L10.9607 31.2503ZM98.6632 37.7015C99.0407 37.7015 99.4037 37.5513 99.671 37.284C99.9381 37.0168 100.088 36.6537 100.088 36.2764V1.42508C100.088 1.0476 99.9382 0.684537 99.671 0.41735C99.4037 0.150141 99.0407 0 98.6632 0H54.5807C54.2024 0 53.8402 0.150143 53.5729 0.41735C53.3058 0.68456 53.1557 1.0476 53.1557 1.42508V45.5077C53.1557 45.886 53.3058 46.2482 53.5729 46.5153C53.8402 46.7826 54.2024 46.9327 54.5807 46.9327H98.6632C99.0407 46.9327 99.4037 46.7826 99.671 46.5153C99.9382 46.248 100.088 45.886 100.088 45.5077V42.5879C100.088 41.8008 99.4505 41.1629 98.6632 41.1629C97.876 41.1629 97.2381 41.8008 97.2381 42.5879V44.0826H92.1078L92.107 29.8251C92.107 29.4476 91.9568 29.0853 91.6897 28.8173C91.4224 28.5502 91.0602 28.4 90.6819 28.4H84.5312C84.9358 27.3972 85.1436 26.3251 85.1444 25.2436V18.505C85.1412 15.4623 83.5167 12.6521 80.8811 11.132C78.2454 9.61106 74.9992 9.61106 72.3636 11.132C69.7272 12.6521 68.1027 15.4623 68.0993 18.505V22.0645C68.0993 22.8516 68.7373 23.4896 69.5244 23.4896C70.3115 23.4896 70.9495 22.8516 70.9495 22.0645V18.505C70.9503 18.0775 71.0005 17.6516 71.098 17.2352C72.557 18.7112 74.547 19.5415 76.622 19.5407C78.6977 19.5399 80.6869 18.7086 82.1451 17.2308C82.2435 17.6482 82.2935 18.0757 82.2944 18.5049V25.2435C82.2944 27.0427 81.441 28.734 79.9948 29.8037C78.5483 30.8735 76.6804 31.194 74.9602 30.6681C73.2407 30.1414 71.8716 28.8308 71.272 27.135C71.0091 26.3928 70.1956 26.0042 69.4534 26.2664C68.7119 26.5285 68.3226 27.3428 68.5847 28.085C68.6237 28.1945 68.6822 28.2928 68.7247 28.4007L62.562 28.3998C62.1837 28.3998 61.8215 28.55 61.5542 28.8171C61.2871 29.0844 61.1369 29.4474 61.1369 29.8249V44.0824H56.0058V2.84897H97.2392V36.2757C97.2392 36.6531 97.3894 37.0163 97.6565 37.2834C97.9237 37.5507 98.286 37.7008 98.6643 37.7008L98.6632 37.7015ZM76.622 16.6899C75.0078 16.6534 73.4995 15.8773 72.5308 14.5854C73.5979 13.4657 75.0773 12.832 76.6237 12.832C78.1702 12.8328 79.6487 13.4674 80.715 14.5871C79.7428 15.8764 78.2355 16.65 76.622 16.6899ZM63.9869 31.2495H70.5933C72.1889 32.8594 74.3606 33.7655 76.627 33.7655C78.8935 33.7655 81.0658 32.8594 82.6606 31.2495H89.2567V44.0769H63.9863L63.9869 31.2495Z" fill="#222222"/>
</g>
<defs>
<clipPath id="clip0_150_1040">
<rect width="100.163" height="100" fill="white"/>
</clipPath>
</defs>
</svg>
