<svg width="80" height="101" viewBox="0 0 80 101" fill="none" xmlns="http://www.w3.org/2000/svg">
<g clip-path="url(#clip0_150_1045)">
<path d="M0.0341797 10.7457V42.764C0.0341797 43.7834 0.439761 44.7607 1.15983 45.4816C1.88077 46.2017 2.85813 46.6065 3.87659 46.6065H29.4911C31.1896 46.6065 32.8181 45.9319 34.0198 44.7312C35.2205 43.5297 35.8949 41.901 35.8949 40.2027V6.90372C35.8949 5.20542 35.2205 3.57587 34.0198 2.37518C32.8182 1.1745 31.1896 0.500013 29.4911 0.500013H10.0881C9.04647 0.497333 8.04767 0.917211 7.32222 1.66497L1.12324 8.06863C0.425512 8.78511 0.0351205 9.74547 0.0342286 10.7451L0.0341797 10.7457ZM7.71903 4.95683V6.90436C7.71903 7.24384 7.58414 7.569 7.34383 7.80933C7.1035 8.04966 6.7783 8.18455 6.43796 8.18455H4.56813L7.71903 4.95683ZM2.59656 10.7457H6.43899H6.4381C7.45741 10.7457 8.43477 10.341 9.15575 9.62098C9.8758 8.90003 10.2805 7.92268 10.2805 6.90422V3.0618H29.4915C30.5109 3.0618 31.4882 3.46648 32.2083 4.18655C32.9292 4.9075 33.3338 5.88485 33.3338 6.90422V40.2033C33.3338 41.2226 32.9292 42.2 32.2083 42.9201C31.4882 43.641 30.5109 44.0456 29.4915 44.0456H3.87685C3.1693 44.0456 2.59666 43.472 2.59666 42.7645L2.59656 10.7457Z" fill="#222222"/>
<path d="M2.59656 10.7457H6.4381C7.45741 10.7457 8.43477 10.341 9.15575 9.62098C9.8758 8.90003 10.2805 7.92268 10.2805 6.90422V3.0618H29.4915C30.5109 3.0618 31.4882 3.46648 32.2083 4.18655C32.9292 4.9075 33.3338 5.88485 33.3338 6.90422V40.2033C33.3338 41.2226 32.9292 42.2 32.2083 42.9201C31.4882 43.641 30.5109 44.0456 29.4915 44.0456H3.87685C3.1693 44.0456 2.59666 43.472 2.59666 42.7645L2.59656 10.7457Z" fill="#FFFDFA"/>
<path d="M7.71903 4.95683V6.90436C7.71903 7.24384 7.58414 7.569 7.34383 7.80933C7.1035 8.04966 6.7783 8.18455 6.43796 8.18455H4.56813L7.71903 4.95683Z" fill="#FFFDFA"/>
<path d="M79.4398 6.90397C79.4398 5.20567 78.7645 3.57611 77.5638 2.37543C76.3632 1.17475 74.7345 0.500257 73.0362 0.500257H53.6331C52.5906 0.497577 51.5927 0.917456 50.8662 1.66522L44.6673 8.06887C43.9705 8.78536 43.5801 9.74572 43.5791 10.7454V40.2022C43.5791 41.9005 44.2537 43.5291 45.4544 44.7307C46.6559 45.9314 48.2846 46.606 49.9829 46.606H73.036C74.7343 46.606 76.363 45.9314 77.5637 44.7307C78.7644 43.5291 79.4398 41.9005 79.4398 40.2022V6.90397ZM51.2638 4.94392V6.90397C51.2638 7.24345 51.1288 7.56862 50.8894 7.80894C50.6491 8.04925 50.323 8.18414 49.9836 8.18414H48.1138L51.2638 4.94392ZM76.8784 40.2029C76.8784 41.2223 76.4738 42.1996 75.7537 42.9197C75.0328 43.6406 74.0554 44.0453 73.0369 44.0453H49.9837C48.9643 44.0453 47.987 43.6406 47.2669 42.9197C46.546 42.1996 46.1414 41.2223 46.1414 40.2029V10.7461H49.9837C51.0023 10.7461 51.9796 10.3414 52.7005 9.62133C53.4206 8.9004 53.8261 7.92304 53.8261 6.90459V3.06215H73.0371C74.0556 3.06215 75.033 3.46685 75.7539 4.18692C76.474 4.90785 76.8786 5.8852 76.8786 6.90459L76.8784 40.2029Z" fill="#222222"/>
<path d="M76.8784 40.2029C76.8784 41.2223 76.4738 42.1996 75.7537 42.9197C75.0328 43.6406 74.0554 44.0453 73.0369 44.0453H49.9837C48.9643 44.0453 47.987 43.6406 47.2669 42.9197C46.546 42.1996 46.1414 41.2223 46.1414 40.2029V10.7461H49.9837C51.0023 10.7461 51.9796 10.3414 52.7005 9.62133C53.4206 8.9004 53.8261 7.92304 53.8261 6.90459V3.06215H73.0371C74.0556 3.06215 75.033 3.46685 75.7539 4.18692C76.474 4.90785 76.8786 5.8852 76.8786 6.90459L76.8784 40.2029Z" fill="#FFFDFA"/>
<path d="M51.2638 4.94392V6.90397C51.2638 7.24345 51.1288 7.56862 50.8894 7.80894C50.6491 8.04925 50.323 8.18414 49.9836 8.18414H48.1138L51.2638 4.94392Z" fill="#FFFDFA"/>
<path d="M0.0343157 93.9933C0.0343157 95.6916 0.709698 97.3211 1.91039 98.5218C3.11107 99.7224 4.73966 100.397 6.438 100.397H29.4911C31.1895 100.397 32.818 99.7224 34.0197 98.5218C35.2204 97.3211 35.8949 95.6916 35.8949 93.9933V60.6943C35.8949 58.9959 35.2204 57.3674 34.0197 56.1657C32.8182 54.965 31.1895 54.2905 29.4911 54.2905H10.0881C9.04642 54.2878 8.04762 54.7085 7.32217 55.4555L1.12319 61.8592C0.425466 62.5765 0.0350716 63.536 0.0341797 64.5365L0.0343157 93.9933ZM7.71917 58.7343V60.6943C7.71917 61.0338 7.58426 61.3598 7.34395 61.6001C7.10364 61.8396 6.77845 61.9744 6.43809 61.9744H4.56827L7.71917 58.7343ZM2.5967 64.5367H6.43912H6.43822C7.45755 64.5367 8.43491 64.131 9.15589 63.411C9.87594 62.69 10.2806 61.7127 10.2806 60.6943V56.8518H29.4916C30.511 56.8518 31.4883 57.2566 32.2084 57.9775C32.9293 58.6976 33.334 59.6749 33.334 60.6943V93.9933C33.334 95.0127 32.9293 95.99 32.2084 96.7109C31.4883 97.431 30.511 97.8356 29.4916 97.8356H6.43846C5.42002 97.8356 4.44267 97.431 3.72171 96.7109C3.00165 95.99 2.59694 95.0127 2.59694 93.9933L2.5967 64.5367Z" fill="#222222"/>
<path d="M2.5967 64.5367H6.43822C7.45755 64.5367 8.43491 64.131 9.15589 63.411C9.87594 62.69 10.2806 61.7127 10.2806 60.6943V56.8518H29.4916C30.511 56.8518 31.4883 57.2566 32.2084 57.9775C32.9293 58.6976 33.334 59.6749 33.334 60.6943V93.9933C33.334 95.0127 32.9293 95.99 32.2084 96.7109C31.4883 97.431 30.511 97.8356 29.4916 97.8356H6.43846C5.42002 97.8356 4.44267 97.431 3.72171 96.7109C3.00165 95.99 2.59694 95.0127 2.59694 93.9933L2.5967 64.5367Z" fill="#FFFDFA"/>
<path d="M7.71917 58.7343V60.6943C7.71917 61.0338 7.58426 61.3598 7.34395 61.6001C7.10364 61.8396 6.77845 61.9744 6.43809 61.9744H4.56827L7.71917 58.7343Z" fill="#FFFDFA"/>
<path d="M73.036 54.2905H49.9829C48.2846 54.2905 46.6559 54.9651 45.4544 56.1658C44.2537 57.3674 43.5791 58.996 43.5791 60.6943V93.9933C43.5791 95.6916 44.2537 97.3212 45.4544 98.5219C46.6559 99.7226 48.2846 100.397 49.9829 100.397H73.036C74.7343 100.397 76.363 99.7226 77.5637 98.5219C78.7644 97.3212 79.4397 95.6917 79.4397 93.9933V60.6943C79.4397 58.996 78.7644 57.3674 77.5637 56.1658C76.363 54.9651 74.7343 54.2905 73.036 54.2905ZM76.8784 93.9933L76.8776 93.9924C76.8776 95.0118 76.4729 95.989 75.7529 96.7101C75.0319 97.4302 74.0546 97.8348 73.036 97.8348H49.9829C48.9635 97.8348 47.9861 97.4302 47.2661 96.7101C46.5451 95.9892 46.1405 95.0118 46.1405 93.9924V60.6933C46.1405 59.6741 46.5451 58.6967 47.2661 57.9766C47.9861 57.2557 48.9635 56.8509 49.9829 56.8509H73.036C74.0546 56.8509 75.0319 57.2557 75.7529 57.9766C76.4729 58.6967 76.8776 59.6741 76.8776 60.6933L76.8784 93.9933Z" fill="#222222"/>
<path d="M76.8784 93.9933L76.8776 93.9924C76.8776 95.0118 76.4729 95.989 75.7529 96.7101C75.0319 97.4302 74.0546 97.8348 73.036 97.8348H49.9829C48.9635 97.8348 47.9861 97.4302 47.2661 96.7101C46.5451 95.9892 46.1405 95.0118 46.1405 93.9924V60.6933C46.1405 59.6741 46.5451 58.6967 47.2661 57.9766C47.9861 57.2557 48.9635 56.8509 49.9829 56.8509H73.036C74.0546 56.8509 75.0319 57.2557 75.7529 57.9766C76.4729 58.6967 76.8776 59.6741 76.8776 60.6933L76.8784 93.9933Z" fill="#FFFDFA"/>
<path d="M66.6327 76.0631H62.7902V72.2205C62.7902 71.513 62.2168 70.9404 61.5092 70.9404C60.8017 70.9404 60.229 71.513 60.229 72.2205V76.0631H56.3866C55.6791 76.0631 55.1055 76.6365 55.1055 77.344C55.1055 78.0507 55.6791 78.6243 56.3866 78.6243H60.229V82.4667C60.229 83.1742 60.8017 83.7478 61.5092 83.7478C62.2168 83.7478 62.7902 83.1742 62.7902 82.4667V78.6243H66.6327C67.3394 78.6243 67.9128 78.0507 67.9128 77.344C67.9128 76.6365 67.3394 76.0631 66.6327 76.0631Z" fill="#222222"/>
</g>
<defs>
<clipPath id="clip0_150_1045">
<rect width="79.5883" height="100" fill="white" transform="translate(0 0.5)"/>
</clipPath>
</defs>
</svg>
