<svg width="89" height="130" viewBox="0 0 89 130" fill="none" xmlns="http://www.w3.org/2000/svg">
<path d="M26.1027 82.7531L24.603 91.9707C24.5004 92.5976 24.6785 93.2391 25.0906 93.7229C25.5018 94.2076 26.1056 94.4862 26.7412 94.4862H27.5172L28.1973 101.075H26.7412C25.5444 101.075 24.574 102.046 24.574 103.242V114.178C24.574 114.753 24.8023 115.304 25.2087 115.711C25.616 116.117 26.1665 116.345 26.7412 116.345H29.7511L30.0346 119.065H30.0355C30.112 122.153 31.5865 125.039 34.0431 126.913C36.6284 128.95 39.8347 130.04 43.1261 129.999C50.308 129.999 56.1625 125.105 56.238 119.067L56.5196 116.345H59.5324C60.1071 116.345 60.6576 116.117 61.0649 115.711C61.4713 115.304 61.6996 114.753 61.6996 114.178V103.233C61.6996 102.659 61.4713 102.107 61.0649 101.701C60.6576 101.295 60.1071 101.066 59.5324 101.066H58.0763L58.7564 94.4773H59.5324C60.168 94.4773 60.7718 94.1987 61.183 93.7139C61.5951 93.2302 61.7732 92.5887 61.6706 91.9618L60.171 82.7529C67.9034 79.3945 74.4911 73.8586 79.1304 66.8199C83.7695 59.7812 86.26 51.5437 86.2979 43.1138C86.3085 34.8686 83.9304 26.7976 79.4507 19.8751L88.1612 11.1868C88.7833 10.5657 88.9691 9.63108 88.6324 8.82028C88.2947 8.00855 87.5014 7.48126 86.6229 7.48512H81.6808V2.52178C81.6837 1.6423 81.1545 0.848946 80.3418 0.513211C79.5291 0.177475 78.5945 0.36518 77.9753 0.990201L69.764 9.20835C63.3106 4.14049 55.5455 1.01943 47.3806 0.210491C39.2157 -0.599311 30.9899 0.938063 23.6678 4.63982C16.3458 8.34245 10.231 14.0568 6.04263 21.1118C1.8543 28.1668 -0.23467 36.2708 0.0209402 44.4714C0.276352 52.6729 2.86633 60.6308 7.48638 67.4111C12.1064 74.1915 18.5645 79.5137 26.1033 82.7529L26.1027 82.7531ZM43.126 4.29923C51.6468 4.29633 59.9326 7.09732 66.7052 12.2677L65.522 13.451V13.452C65.1156 13.8583 64.8873 14.4088 64.8873 14.9835V20.8824L62.5701 23.1996C57.8361 19.1061 51.908 16.6486 45.6656 16.1928V11.9996C45.6656 10.8027 44.6952 9.83232 43.4984 9.83232C42.3016 9.83232 41.3312 10.8027 41.3312 11.9996V16.1928C34.3544 16.7211 27.7975 19.732 22.8497 24.68C17.9018 29.628 14.8919 36.1847 14.3646 43.1624H10.1733C8.97551 43.1624 8.00605 44.1328 8.00605 45.3297C8.00605 46.5265 8.97551 47.4969 10.1733 47.4969H14.3646C14.8928 54.4766 17.9057 61.0353 22.8564 65.9833C27.8081 70.9313 34.3688 73.9391 41.3485 74.4635V78.6595C41.3485 79.8563 42.3189 80.8267 43.5158 80.8267C44.7126 80.8267 45.683 79.8563 45.683 78.6595V74.4635C52.6578 73.9333 59.2117 70.9213 64.1567 65.9746C69.1027 61.0266 72.1116 54.4719 72.6389 47.4969H76.8349C78.0317 47.4969 79.0022 46.5265 79.0022 45.3297C79.0022 44.1328 78.0317 43.1624 76.8349 43.1624H72.6389C72.1842 36.92 69.7267 30.991 65.6322 26.258L67.6369 24.2533H74.1609C74.7356 24.2533 75.2861 24.024 75.6925 23.6176L76.3272 22.9849H76.3281C80.0288 29.0435 81.9793 36.0086 81.9629 43.1082C81.9281 50.9625 79.5258 58.6244 75.0684 65.0921C70.6121 71.5599 64.3088 76.5339 56.9808 79.3639C56.021 79.7306 55.4511 80.7204 55.6156 81.7343L56.9827 90.143H29.2917L30.6588 81.7343C30.8232 80.7214 30.2543 79.7316 29.2955 79.3639C17.9001 75.0208 9.20885 65.5729 5.83044 53.855C2.45203 42.137 4.77778 29.5123 12.1115 19.7687C19.4441 10.0248 30.9315 4.29512 43.1264 4.29909L43.126 4.29923ZM25.4805 47.4978C25.972 51.5343 27.8025 55.2892 30.6789 58.1636C33.5552 61.0379 37.3121 62.8656 41.3486 63.3553V70.1299C35.5174 69.6162 30.052 67.0668 25.9109 62.9298C21.7699 58.7917 19.2168 53.329 18.6991 47.4978H25.4805ZM18.6991 43.1633C19.2167 37.3311 21.7699 31.8684 25.9109 27.7296C30.052 23.5916 35.5164 21.0422 41.3486 20.5285V27.3031C37.3141 27.7975 33.5612 29.6271 30.6875 32.5015C27.8139 35.3759 25.9845 39.1291 25.4911 43.1636L18.6991 43.1633ZM29.6718 45.3306C29.666 41.9123 30.9276 38.6131 33.2139 36.0714C35.5002 33.5297 38.6476 31.9266 42.0473 31.5715C45.4473 31.2164 48.8576 32.1346 51.6191 34.1499L47.6338 38.1438C46.3848 37.4094 44.9645 37.0176 43.5161 37.0079C41.3092 37.0069 39.1913 37.8835 37.6306 39.4441C36.069 41.0047 35.1925 43.1217 35.1915 45.3286C35.1915 47.5365 36.0681 49.6534 37.6287 51.2141C39.1893 52.7756 41.3063 53.6522 43.5131 53.6522C45.72 53.6522 47.8369 52.7756 49.3986 51.215C50.9592 49.6544 51.8358 47.5374 51.8358 45.3306C51.8261 43.8812 51.4342 42.4609 50.7009 41.2128L54.6948 37.2209C57.2945 40.8017 58.0231 45.4118 56.654 49.6197C55.285 53.8284 51.9829 57.1275 47.7733 58.4927C43.5637 59.8589 38.9545 59.1265 35.3755 56.5229C31.7967 53.9192 29.6797 49.7599 29.6827 45.3345L29.6718 45.3306ZM45.6833 27.3029V20.5282C50.7754 20.9684 55.607 22.9722 59.517 26.2646L54.7211 31.0585C52.1117 28.9996 48.9837 27.6994 45.6836 27.3026L45.6833 27.3029ZM47.5013 45.3296V45.3305C47.5013 46.388 47.0814 47.402 46.3335 48.1499C45.5856 48.8978 44.5707 49.3177 43.5131 49.3177C42.4555 49.3177 41.4407 48.8978 40.6937 48.1489C39.9458 47.4011 39.5259 46.3861 39.5259 45.3286C39.5269 44.2711 39.9468 43.2571 40.6957 42.5092C41.4436 41.7613 42.4585 41.3414 43.5161 41.3424C44.5716 41.3462 45.5817 41.7681 46.3268 42.516C47.0718 43.2629 47.4907 44.2749 47.4907 45.3304L47.5013 45.3296ZM45.6833 63.3553C49.7188 62.8647 53.4727 61.0361 56.3473 58.1616C59.2217 55.2872 61.0504 51.5321 61.541 47.4976H68.3157C67.801 53.3268 65.2506 58.7885 61.1125 62.9265C56.9745 67.0646 51.5128 69.615 45.6836 70.1297L45.6833 63.3553ZM61.5408 43.1633C61.1451 39.8612 59.8457 36.7332 57.7849 34.1239L62.5808 29.3299C65.8733 33.2396 67.876 38.0714 68.3152 43.1636L61.5408 43.1633Z" fill="#222222"/>
<path d="M43.126 4.29923C51.6468 4.29633 59.9326 7.09732 66.7052 12.2677L65.522 13.451V13.452C65.1156 13.8583 64.8873 14.4088 64.8873 14.9835V20.8824L62.5701 23.1996C57.8361 19.1061 51.908 16.6486 45.6656 16.1928V11.9996C45.6656 10.8027 44.6952 9.83232 43.4984 9.83232C42.3016 9.83232 41.3312 10.8027 41.3312 11.9996V16.1928C34.3544 16.7211 27.7975 19.732 22.8497 24.68C17.9018 29.628 14.8919 36.1847 14.3646 43.1624H10.1733C8.97551 43.1624 8.00605 44.1328 8.00605 45.3297C8.00605 46.5265 8.97551 47.4969 10.1733 47.4969H14.3646C14.8928 54.4766 17.9057 61.0353 22.8564 65.9833C27.8081 70.9313 34.3688 73.9391 41.3485 74.4635V78.6595C41.3485 79.8563 42.3189 80.8267 43.5158 80.8267C44.7126 80.8267 45.683 79.8563 45.683 78.6595V74.4635C52.6578 73.9333 59.2117 70.9213 64.1567 65.9746C69.1027 61.0266 72.1116 54.4719 72.6389 47.4969H76.8349C78.0317 47.4969 79.0022 46.5265 79.0022 45.3297C79.0022 44.1328 78.0317 43.1624 76.8349 43.1624H72.6389C72.1842 36.92 69.7267 30.991 65.6322 26.258L67.6369 24.2533H74.1609C74.7356 24.2533 75.2861 24.024 75.6925 23.6176L76.3272 22.9849H76.3281C80.0288 29.0435 81.9793 36.0086 81.9629 43.1082C81.9281 50.9625 79.5258 58.6244 75.0684 65.0921C70.6121 71.5599 64.3088 76.5339 56.9808 79.3639C56.021 79.7306 55.4511 80.7204 55.6156 81.7343L56.9827 90.143H29.2917L30.6588 81.7343C30.8232 80.7214 30.2543 79.7316 29.2955 79.3639C17.9001 75.0208 9.20885 65.5729 5.83044 53.855C2.45203 42.137 4.77778 29.5123 12.1115 19.7687C19.4441 10.0248 30.9315 4.29512 43.1264 4.29909L43.126 4.29923Z" fill="#FFFDFA"/>
<path d="M18.6991 43.1633C19.2167 37.3311 21.7699 31.8684 25.9109 27.7296C30.052 23.5916 35.5164 21.0422 41.3486 20.5285V27.3031C37.3141 27.7975 33.5612 29.6271 30.6875 32.5015C27.8139 35.3759 25.9845 39.1291 25.4911 43.1636L18.6991 43.1633Z" fill="#FFFDFA"/>
<path d="M45.6833 27.3029V20.5282C50.7754 20.9684 55.607 22.9722 59.517 26.2646L54.7211 31.0585C52.1117 28.9996 48.9837 27.6994 45.6836 27.3026L45.6833 27.3029Z" fill="#FFFDFA"/>
<path d="M29.6718 45.3306C29.666 41.9123 30.9276 38.6131 33.2139 36.0714C35.5002 33.5297 38.6476 31.9266 42.0473 31.5715C45.4473 31.2164 48.8576 32.1346 51.6191 34.1499L47.6338 38.1438C46.3848 37.4094 44.9645 37.0176 43.5161 37.0079C41.3092 37.0069 39.1913 37.8835 37.6306 39.4441C36.069 41.0047 35.1925 43.1217 35.1915 45.3286C35.1915 47.5365 36.0681 49.6534 37.6287 51.2141C39.1893 52.7756 41.3063 53.6522 43.5131 53.6522C45.72 53.6522 47.8369 52.7756 49.3986 51.215C50.9592 49.6544 51.8358 47.5374 51.8358 45.3306C51.8261 43.8812 51.4342 42.4609 50.7009 41.2128L54.6948 37.2209C57.2945 40.8017 58.0231 45.4118 56.654 49.6197C55.285 53.8284 51.9829 57.1275 47.7733 58.4927C43.5637 59.8589 38.9545 59.1265 35.3755 56.5229C31.7967 53.9192 29.6797 49.7599 29.6827 45.3345L29.6718 45.3306Z" fill="#FFFDFA"/>
<path d="M61.5408 43.1633C61.1451 39.8612 59.8457 36.7332 57.7849 34.1239L62.5808 29.3299C65.8733 33.2396 67.876 38.0714 68.3152 43.1636L61.5408 43.1633Z" fill="#FFFDFA"/>
<path d="M45.6833 63.3553C49.7188 62.8647 53.4727 61.0361 56.3473 58.1616C59.2217 55.2872 61.0504 51.5321 61.541 47.4976H68.3157C67.801 53.3268 65.2506 58.7885 61.1125 62.9265C56.9745 67.0646 51.5128 69.615 45.6836 70.1297L45.6833 63.3553Z" fill="#FFFDFA"/>
<path d="M25.4805 47.4978C25.972 51.5343 27.8025 55.2892 30.6789 58.1636C33.5552 61.0379 37.3121 62.8656 41.3486 63.3553V70.1299C35.5174 69.6162 30.052 67.0668 25.9109 62.9298C21.7699 58.7917 19.2168 53.329 18.6991 47.4978H25.4805Z" fill="#FFFDFA"/>
<path d="M47.5013 45.3296V45.3305C47.5013 46.388 47.0814 47.402 46.3335 48.1499C45.5856 48.8978 44.5707 49.3177 43.5131 49.3177C42.4555 49.3177 41.4407 48.8978 40.6937 48.1489C39.9458 47.4011 39.5259 46.3861 39.5259 45.3286C39.5269 44.2711 39.9468 43.2571 40.6957 42.5092C41.4436 41.7613 42.4585 41.3414 43.5161 41.3424C44.5716 41.3462 45.5817 41.7681 46.3268 42.516C47.0718 43.2629 47.4907 44.2749 47.4907 45.3304L47.5013 45.3296Z" fill="#FFFDFA"/>
</svg>
