<?xml version="1.0" encoding="utf-8"?>
<!-- Generator: Adobe Illustrator 26.0.3, SVG Export Plug-In . SVG Version: 6.00 Build 0)  -->
<svg version="1.1" id="Layer_1" xmlns="http://www.w3.org/2000/svg" xmlns:xlink="http://www.w3.org/1999/xlink" x="0px" y="0px"
	 viewBox="0 0 101 100" style="enable-background:new 0 0 101 100;" xml:space="preserve">
<style type="text/css">
	.st0{fill:#0C1D1D;}
	.st1{fill:#222222;}
	.st2{fill:#C9B1A1;}
	.st3{fill:#91B7B6;}
	.st4{fill:#C4CCE8;}
	.st5{fill:#FFF3EB;}
	.st6{fill:#FF9D5C;}
</style>
<path class="st0" d="M100,24.6c0-4.7-3.8-8.4-8.4-8.4c-2.3,0-4.4,0.9-6,2.5L74.3,30v-5.8c0-4.4-3.6-8.1-8.1-8.1h-8.4
	c-0.7-1.9-2.4-3.2-4.5-3.2h-4.8v-1.6C48.5,5.1,43.4,0,37.2,0C31,0,25.9,5.1,25.9,11.3v1.6h-4.8c-2.1,0-3.9,1.4-4.5,3.2H8.2
	c-4.4,0-8.1,3.6-8.1,8.1v67.7c0,4.4,3.6,8.1,8.1,8.1h58c4.4,0,8.1-3.6,8.1-8.1v-38l16.3-16.3c0.3-0.3,0.8-0.5,1.3-0.5
	c1,0,1.8,0.8,1.8,1.8c0,0.5-0.2,0.9-0.5,1.3L82.2,51c-0.9,0.9-1.5,2.2-1.5,3.6c0,2.8,2.3,5,5,5c1.3,0,2.6-0.5,3.6-1.5l0.6-0.6
	l-2.3-2.3L87,55.9c-0.3,0.3-0.8,0.5-1.3,0.5c-1,0-1.8-0.8-1.8-1.8c0-0.5,0.2-0.9,0.5-1.3l10.9-10.9c0.9-0.9,1.5-2.2,1.5-3.6
	c0-2-1.2-3.8-3-4.6l3.7-3.7C99.2,28.9,100,26.8,100,24.6z"/>
<path class="st1" d="M80.2,38.2l3.7-3.7l2.6,2.6L55.8,67.8c-0.8,0.8-1.7,1.6-2.7,2.3l-2.4-2.3l3.7-3.7l-2.3-2.3l-3.7,3.7l-2.3-2.3
	c0.7-0.9,1.4-1.8,2.3-2.7l30.7-30.7l2.6,2.6L78,35.9L80.2,38.2z"/>
<path class="st1" d="M64.6,77.3H51.7v12.9H9.8V25.8h6.7c0.7,1.9,2.4,3.2,4.5,3.2h32.2c2.1,0,3.9-1.4,4.5-3.2h6.7v13.8l-3.2,3.2V32.2
	H13v19.3h39.6l-6.5,6.5c-4.7,4.7-7.3,11-7.3,17.6v1.6h1.6c6.7,0,12.9-2.6,17.6-7.3l6.5-6.5L64.6,77.3z"/>
<polygon class="st1" points="62.3,80.6 54.9,88 54.9,80.6 "/>
<polygon class="st1" points="55.9,48.3 16.3,48.3 16.3,35.5 58.1,35.5 58.1,46.1 "/>
<path class="st1" d="M50.3,71.8c-2.5,1.3-5.3,2.1-8.2,2.3c0.2-2.9,1-5.6,2.3-8.2L50.3,71.8z"/>
<path class="st1" d="M71,24.2v9l-3.2,3.2V25.8c0-1.8-1.4-3.2-3.2-3.2h-6.4v-3.2h8.1C68.9,19.3,71,21.5,71,24.2z"/>
<path class="st1" d="M19.5,17.7c0-0.9,0.7-1.6,1.6-1.6h8.1v-4.8c0-4.4,3.6-8.1,8.1-8.1c4.4,0,8.1,3.6,8.1,8.1v4.8h8.1
	c0.9,0,1.6,0.7,1.6,1.6v6.4c0,0.9-0.7,1.6-1.6,1.6H21.1c-0.9,0-1.6-0.7-1.6-1.6V17.7z"/>
<path class="st1" d="M71,91.9c0,2.7-2.2,4.8-4.8,4.8h-58c-2.7,0-4.8-2.2-4.8-4.8V24.2c0-2.7,2.2-4.8,4.8-4.8h8.1v3.2H9.8
	c-1.8,0-3.2,1.4-3.2,3.2v64.5c0,1.8,1.4,3.2,3.2,3.2H54l13.8-13.8V60.3l3.2-3.2L71,91.9z"/>
<path class="st1" d="M95.3,28.3l-6.5,6.5l-7.4-7.4l6.5-6.5c1-1,2.3-1.5,3.7-1.5c2.9,0,5.2,2.3,5.2,5.2C96.8,26,96.3,27.3,95.3,28.3z
	"/>
<path class="st2" d="M55.9,48.3H16.3V35.5h41.9v10.6L55.9,48.3z"/>
<path class="st3" d="M19.5,17.7c0-0.9,0.7-1.6,1.6-1.6h8.1v-4.8c0-4.4,3.6-8.1,8.1-8.1c4.4,0,8.1,3.6,8.1,8.1v4.8h8.1
	c0.9,0,1.6,0.7,1.6,1.6v6.4c0,0.9-0.7,1.6-1.6,1.6H21.1c-0.9,0-1.6-0.7-1.6-1.6V17.7z"/>
<path class="st4" d="M71,91.9c0,2.7-2.2,4.8-4.8,4.8h-58c-2.7,0-4.8-2.2-4.8-4.8V24.2c0-2.7,2.2-4.8,4.8-4.8h8.1v3.2H9.8
	c-1.8,0-3.2,1.4-3.2,3.2v64.5c0,1.8,1.4,3.2,3.2,3.2H54l13.8-13.8V60.3l3.2-3.2L71,91.9z"/>
<path class="st5" d="M64.6,77.3H51.7v12.9H9.8V25.8h6.7c0.7,1.9,2.4,3.2,4.5,3.2h32.2c2.1,0,3.9-1.4,4.5-3.2h6.7v13.8l-3.2,3.2V32.2
	H13v19.3h39.6l-6.5,6.5c-4.7,4.7-7.3,11-7.3,17.6v1.6h1.6c6.7,0,12.9-2.6,17.6-7.3l6.5-6.5L64.6,77.3z"/>
<path class="st6" d="M80.2,38.2l3.7-3.7l2.6,2.6L55.8,67.8c-0.8,0.8-1.7,1.6-2.7,2.3l-2.4-2.3l3.7-3.7l-2.3-2.3l-3.7,3.7l-2.3-2.3
	c0.7-0.9,1.4-1.8,2.3-2.7l30.7-30.7l2.6,2.6L78,35.9L80.2,38.2z"/>
<path class="st6" d="M95.3,28.3l-6.5,6.5l-7.4-7.4l6.5-6.5c1-1,2.3-1.5,3.7-1.5c2.9,0,5.2,2.3,5.2,5.2C96.8,26,96.3,27.3,95.3,28.3z
	"/>
<path class="st6" d="M50.3,71.8c-2.5,1.3-5.3,2.1-8.2,2.3c0.2-2.9,1-5.6,2.3-8.2L50.3,71.8z"/>
<path class="st5" d="M62.3,80.6L54.9,88v-7.4H62.3z"/>
<path class="st4" d="M71,24.2v9l-3.2,3.2V25.8c0-1.8-1.4-3.2-3.2-3.2h-6.4v-3.2h8.1C68.9,19.3,71,21.5,71,24.2z"/>
<path class="st0" d="M53.8,60.1l22.6-22.6l2.3,2.3L56.1,62.4L53.8,60.1z"/>
<path class="st0" d="M37.2,16.1c2.7,0,4.8-2.2,4.8-4.8c0-2.7-2.2-4.8-4.8-4.8c-2.7,0-4.8,2.2-4.8,4.8C32.4,13.9,34.5,16.1,37.2,16.1
	z M37.2,9.7c0.9,0,1.6,0.7,1.6,1.6s-0.7,1.6-1.6,1.6s-1.6-0.7-1.6-1.6S36.3,9.7,37.2,9.7z"/>
<path class="st0" d="M25.9,20.9c0,0.9-0.7,1.6-1.6,1.6s-1.6-0.7-1.6-1.6c0-0.9,0.7-1.6,1.6-1.6S25.9,20.1,25.9,20.9z"/>
<path class="st0" d="M51.7,20.9c0,0.9-0.7,1.6-1.6,1.6c-0.9,0-1.6-0.7-1.6-1.6c0-0.9,0.7-1.6,1.6-1.6C51,19.3,51.7,20.1,51.7,20.9z"
	/>
<path class="st0" d="M19.5,58c-3.6,0-6.4,2.9-6.4,6.4c0,3.6,2.9,6.4,6.4,6.4c3.6,0,6.4-2.9,6.4-6.4C25.9,60.9,23,58,19.5,58z
	 M19.5,67.7c-1.8,0-3.2-1.4-3.2-3.2c0-1.8,1.4-3.2,3.2-3.2c1.8,0,3.2,1.4,3.2,3.2C22.7,66.2,21.3,67.7,19.5,67.7z"/>
<path class="st0" d="M19.5,74.1c-3.6,0-6.4,2.9-6.4,6.4c0,3.6,2.9,6.4,6.4,6.4c3.6,0,6.4-2.9,6.4-6.4C25.9,77,23,74.1,19.5,74.1z
	 M19.5,83.8c-1.8,0-3.2-1.4-3.2-3.2c0-1.8,1.4-3.2,3.2-3.2c1.8,0,3.2,1.4,3.2,3.2C22.7,82.3,21.3,83.8,19.5,83.8z"/>
<path class="st0" d="M29.1,61.2h9.7v3.2h-9.7V61.2z"/>
<path class="st0" d="M29.1,67.7h6.4v3.2h-6.4V67.7z"/>
<path class="st0" d="M29.1,77.3h6.4v3.2h-6.4V77.3z"/>
<path class="st0" d="M29.1,83.8h19.3V87H29.1V83.8z"/>
</svg>
