<svg width="725" height="724" viewBox="0 0 725 724" fill="none" xmlns="http://www.w3.org/2000/svg">
<path d="M724.333 177.833C724.333 144.104 696.896 116.667 663.167 116.667C646.833 116.667 631.469 123.026 619.916 134.588L537.665 216.839V175C537.665 142.833 511.499 116.667 479.332 116.667H418.853C414.02 103.12 401.187 93.3333 385.999 93.3333H350.999V81.6667C350.999 36.636 314.363 0 269.332 0C224.301 0 187.665 36.636 187.665 81.6667V93.3333H152.665C137.477 93.3333 124.644 103.12 119.811 116.667H59.332C27.1653 116.667 0.998657 142.833 0.998657 175V665C0.998657 697.167 27.1653 723.333 59.332 723.333H479.332C511.499 723.333 537.665 697.167 537.665 665V389.827L655.337 272.155C657.811 269.696 661.087 268.332 664.587 268.332C671.796 268.332 677.665 274.201 677.665 281.41C677.665 284.91 676.301 288.186 673.837 290.66L594.993 369.504C588.217 376.285 584.332 385.665 584.332 395.253C584.332 415.332 600.665 431.665 620.744 431.665C630.473 431.665 639.619 427.884 646.493 421.004L650.915 416.582L634.42 400.087L629.999 404.509C627.519 406.978 624.243 408.332 620.743 408.332C613.535 408.332 607.665 402.462 607.665 395.254C607.665 391.811 609.066 388.441 611.493 386.004L690.337 307.16C697.207 300.285 700.999 291.139 700.999 281.411C700.999 266.583 692.061 253.853 679.321 248.171L706.425 221.067C717.972 209.52 724.332 194.165 724.332 177.832L724.333 177.833ZM580.92 276.583L607.669 249.828L626.175 268.333L403.921 490.6C397.854 496.668 391.333 502.09 384.509 507.016L367.493 490.005L394.243 463.256L377.748 446.761L350.999 473.511L333.988 456.5C338.91 449.677 344.347 443.151 350.415 437.088L572.668 214.835L591.173 233.34L564.424 260.089L580.92 276.583ZM467.669 559.996H374.336V653.329H71.0027V186.663H119.815C124.643 200.209 137.476 209.996 152.669 209.996H386.003C401.191 209.996 414.024 200.21 418.857 186.663H467.669V286.835L444.336 310.168V233.329H94.336V373.329H381.176L333.916 420.589C299.801 454.704 281.004 500.063 281.004 548.329V559.996H292.671C340.925 559.996 386.285 541.215 420.42 507.089L467.671 459.839L467.669 559.996ZM451.175 583.329L397.669 636.835V583.329H451.175ZM404.508 349.996H117.668V256.663H421.001V333.501L404.508 349.996ZM363.987 519.476C345.669 528.82 325.664 534.621 304.789 536.205C306.378 515.32 312.164 495.325 321.508 477.008L363.987 519.476ZM514.333 174.996V240.168L491 263.501V186.663C491 173.793 480.536 163.329 467.667 163.329H421V139.996H479.333C498.631 139.996 514.333 155.699 514.333 174.996ZM141 128.329C141 121.902 146.24 116.663 152.667 116.663H211V81.6627C211 49.496 237.167 23.3293 269.333 23.3293C301.5 23.3293 327.667 49.496 327.667 81.6627V116.663H386C392.427 116.663 397.667 121.902 397.667 128.329V174.996C397.667 181.423 392.427 186.663 386 186.663H152.667C146.24 186.663 141 181.423 141 174.996V128.329ZM514.333 664.996C514.333 684.293 498.631 699.996 479.333 699.996H59.3333C40.036 699.996 24.3333 684.293 24.3333 664.996V174.996C24.3333 155.699 40.036 139.996 59.3333 139.996H117.667V163.329H71C58.1303 163.329 47.6667 173.793 47.6667 186.663V653.329C47.6667 666.199 58.1303 676.663 71 676.663H390.827L490.999 576.491V436.491L514.332 413.157L514.333 664.996ZM689.92 204.583L642.669 251.833L589.164 198.328L636.415 151.077C643.566 143.937 653.06 139.994 663.164 139.994C684.028 139.994 701.003 156.967 701.003 177.827C701.003 187.931 697.071 197.432 689.92 204.583Z" fill="black"/>
<path d="M389.413 435.087L552.747 271.753L569.247 288.253L405.913 451.587L389.413 435.087Z" fill="black"/>
<path d="M269.333 116.673C288.631 116.673 304.333 100.971 304.333 81.6733C304.333 62.376 288.631 46.6733 269.333 46.6733C250.036 46.6733 234.333 62.376 234.333 81.6733C234.333 100.971 250.036 116.673 269.333 116.673ZM269.333 70.0067C275.76 70.0067 281 75.2463 281 81.6733C281 88.1004 275.76 93.34 269.333 93.34C262.906 93.34 257.667 88.1004 257.667 81.6733C257.667 75.2463 262.906 70.0067 269.333 70.0067Z" fill="black"/>
<path d="M187.667 151.674C187.667 158.116 182.443 163.34 176 163.34C169.557 163.34 164.333 158.116 164.333 151.674C164.333 145.231 169.557 140.007 176 140.007C182.443 140.007 187.667 145.231 187.667 151.674Z" fill="black"/>
<path d="M374.333 151.674C374.333 158.116 369.109 163.34 362.667 163.34C356.224 163.34 351 158.116 351 151.674C351 145.231 356.224 140.007 362.667 140.007C369.109 140.007 374.333 145.231 374.333 151.674Z" fill="black"/>
<path d="M141 420.007C115.265 420.007 94.3333 440.939 94.3333 466.674C94.3333 492.408 115.265 513.34 141 513.34C166.735 513.34 187.667 492.408 187.667 466.674C187.667 440.939 166.735 420.007 141 420.007ZM141 490.007C128.13 490.007 117.667 479.543 117.667 466.674C117.667 453.804 128.13 443.34 141 443.34C153.87 443.34 164.333 453.804 164.333 466.674C164.333 479.543 153.87 490.007 141 490.007Z" fill="black"/>
<path d="M141 536.673C115.265 536.673 94.3333 557.605 94.3333 583.34C94.3333 609.075 115.265 630.007 141 630.007C166.735 630.007 187.667 609.075 187.667 583.34C187.667 557.605 166.735 536.673 141 536.673ZM141 606.673C128.13 606.673 117.667 596.21 117.667 583.34C117.667 570.47 128.13 560.007 141 560.007C153.87 560.007 164.333 570.47 164.333 583.34C164.333 596.21 153.87 606.673 141 606.673Z" fill="black"/>
<path d="M211 443.34H281V466.673H211V443.34Z" fill="black"/>
<path d="M211 490.007H257.667V513.34H211V490.007Z" fill="black"/>
<path d="M211 560.007H257.667V583.34H211V560.007Z" fill="black"/>
<path d="M211 606.673H351V630.007H211V606.673Z" fill="black"/>
</svg>
