<svg width="464" height="583" viewBox="0 0 464 583" fill="none" xmlns="http://www.w3.org/2000/svg">
<path d="M0.199951 59.7326V246.399C0.199951 252.342 2.56449 258.04 6.76249 262.243C10.9656 266.441 16.6636 268.801 22.6012 268.801H171.934C181.836 268.801 191.33 264.868 198.336 257.868C205.336 250.863 209.268 241.368 209.268 231.467V37.3337C209.268 27.4326 205.336 17.9323 198.336 10.9323C191.331 3.93234 181.836 7.43352e-05 171.934 7.43352e-05H58.8145C52.7416 -0.0155497 46.9186 2.43234 42.6892 6.7918L6.54915 44.1251C2.48142 48.3022 0.205436 53.9011 0.200236 59.7291L0.199951 59.7326ZM45.0026 25.9833V37.3374C45.0026 39.3166 44.2162 41.2123 42.8152 42.6134C41.4141 44.0145 39.5182 44.8009 37.534 44.8009H26.6329L45.0026 25.9833ZM15.1386 59.7326H37.54H37.5348C43.4774 59.7326 49.1754 57.3733 53.3787 53.1753C57.5766 48.9722 59.9361 43.2742 59.9361 37.3366V14.9353H171.936C177.879 14.9353 183.577 17.2946 187.775 21.4926C191.978 25.6957 194.337 31.3937 194.337 37.3366V231.47C194.337 237.413 191.978 243.111 187.775 247.309C183.577 251.512 177.879 253.871 171.936 253.871H22.6027C18.4777 253.871 15.1392 250.527 15.1392 246.402L15.1386 59.7326Z" fill="black"/>
<path d="M463.133 37.3353C463.133 27.4342 459.196 17.9339 452.196 10.9339C445.196 3.93393 435.701 0.00166125 425.8 0.00166125H312.68C306.602 -0.0139628 300.784 2.43393 296.549 6.7934L260.409 44.1267C256.347 48.3038 254.071 53.9027 254.065 59.7307V231.464C254.065 241.365 257.998 250.86 264.998 257.865C272.003 264.865 281.498 268.798 291.399 268.798H425.799C435.7 268.798 445.195 264.865 452.195 257.865C459.195 250.86 463.133 241.365 463.133 231.464L463.133 37.3353ZM298.867 25.9082V37.3353C298.867 39.3145 298.08 41.2102 296.684 42.6113C295.283 44.0123 293.382 44.7987 291.403 44.7987H280.502L298.867 25.9082ZM448.2 231.468C448.2 237.411 445.841 243.109 441.643 247.307C437.44 251.51 431.742 253.869 425.804 253.869H291.404C285.461 253.869 279.763 251.51 275.565 247.307C271.362 243.109 269.003 237.411 269.003 231.468V59.7349H291.404C297.342 59.7349 303.04 57.3755 307.243 53.1775C311.441 48.9745 313.805 43.2765 313.805 37.3389V14.9375H425.805C431.743 14.9375 437.441 17.2969 441.644 21.4949C445.842 25.6979 448.201 31.3959 448.201 37.3389L448.2 231.468Z" fill="black"/>
<path d="M0.200012 545.066C0.200012 554.967 4.13749 564.467 11.1375 571.467C18.1375 578.467 27.6322 582.4 37.5335 582.4H171.933C181.835 582.4 191.329 578.467 198.335 571.467C205.335 564.467 209.267 554.967 209.267 545.066V350.933C209.267 341.031 205.335 331.537 198.335 324.531C191.33 317.531 181.835 313.599 171.933 313.599H58.8135C52.7406 313.583 46.9176 316.036 42.6882 320.391L6.54816 357.724C2.48042 361.906 0.204419 367.5 0.199219 373.333L0.200012 545.066ZM45.0027 339.506V350.933C45.0027 352.912 44.2162 354.813 42.8152 356.214C41.4142 357.61 39.5183 358.396 37.534 358.396H26.633L45.0027 339.506ZM15.1387 373.334H37.54H37.5348C43.4775 373.334 49.1755 370.969 53.3788 366.771C57.5767 362.568 59.9361 356.87 59.9361 350.933V328.531H171.936C177.879 328.531 183.577 330.891 187.775 335.094C191.978 339.292 194.337 344.99 194.337 350.933V545.066C194.337 551.009 191.978 556.707 187.775 560.91C183.577 565.108 177.879 567.467 171.936 567.467H37.5362C31.5987 567.467 25.9007 565.108 21.6975 560.91C17.4996 556.707 15.1401 551.009 15.1401 545.066L15.1387 373.334Z" fill="black"/>
<path d="M425.8 313.599H291.4C281.499 313.599 272.004 317.532 264.999 324.532C257.999 331.537 254.066 341.032 254.066 350.933V545.066C254.066 554.967 257.999 564.468 264.999 571.468C272.004 578.468 281.499 582.4 291.4 582.4H425.8C435.701 582.4 445.196 578.468 452.196 571.468C459.196 564.468 463.133 554.968 463.133 545.066V350.933C463.133 341.032 459.196 331.537 452.196 324.532C445.196 317.532 435.701 313.599 425.8 313.599ZM448.201 545.066L448.196 545.061C448.196 551.004 445.837 556.701 441.639 560.905C437.436 565.103 431.738 567.462 425.8 567.462H291.4C285.457 567.462 279.759 565.103 275.561 560.905C271.358 556.702 268.999 551.004 268.999 545.061V350.927C268.999 344.985 271.358 339.287 275.561 335.089C279.759 330.886 285.457 328.526 291.4 328.526H425.8C431.738 328.526 437.436 330.886 441.639 335.089C445.837 339.287 448.196 344.985 448.196 350.927L448.201 545.066Z" fill="black"/>
<path d="M388.467 440.533H366.065V418.131C366.065 414.006 362.722 410.668 358.597 410.668C354.472 410.668 351.133 414.006 351.133 418.131V440.533H328.732C324.607 440.533 321.263 443.876 321.263 448.001C321.263 452.121 324.607 455.465 328.732 455.465H351.133V477.866C351.133 481.991 354.472 485.335 358.597 485.335C362.722 485.335 366.065 481.991 366.065 477.866V455.465H388.467C392.587 455.465 395.93 452.121 395.93 448.001C395.93 443.876 392.587 440.533 388.467 440.533Z" fill="black"/>
</svg>
