<svg width="155" height="130" viewBox="0 0 155 130" fill="none" xmlns="http://www.w3.org/2000/svg">
<path d="M47.4661 0C29.9517 0 13.8435 9.64508 5.57784 25.0824C-2.68896 40.5197 -1.7804 59.3079 8.39479 73.8821C17.8579 87.4346 19.9327 95.4277 19.9327 105.025C19.9327 114.308 16.1047 120.914 10.7976 125.635C9.0867 127.163 10.1637 129.996 12.4572 130H57.5084C58.6233 130 59.6032 129.26 59.9101 128.189L64.3678 112.535H67.4883L72.5317 112.5C74.275 112.5 75.9426 112.187 77.4971 111.636C79.0518 112.187 80.7191 112.5 82.4625 112.5L87.5059 112.535H90.6265L95.0842 128.189C95.3911 129.261 96.371 130 97.4859 130H142.537C144.831 130 145.908 127.163 144.197 125.635C138.889 120.914 135.062 114.308 135.062 105.025C135.062 95.4277 137.136 87.4346 146.599 73.8821C156.775 59.3108 157.683 40.5223 149.416 25.0824C141.15 9.64394 125.043 0 107.528 0H97.4602C90.0685 0 83.2517 2.57587 77.4949 6.9431C71.7384 2.57598 64.9213 0 57.5296 0H47.4661ZM107.531 4.9954C123.211 4.9954 137.611 13.6205 145.011 27.4415C152.411 41.2617 151.604 57.9756 142.501 71.0098C132.686 85.0654 130.065 94.6368 130.065 105.018C130.065 113.183 132.78 119.843 136.808 124.993H99.3772L94.924 109.344C94.6182 108.268 93.635 107.527 92.5167 107.528H87.5513L83.6405 107.504C86.0221 104.846 87.4919 101.347 87.5176 97.5038L87.5421 94.5452C90.5198 93.4939 92.5175 90.6233 92.5175 87.485V82.4896H97.4975C100.224 82.4896 102.497 80.2151 102.497 77.4897C102.497 77.1984 102.445 76.9093 102.345 76.6347L92.7206 50.1506L94.7374 46.1127C94.9103 45.7656 95.0008 45.3827 95.0008 44.9944C95.0008 31.1327 89.7462 18.6005 81.4071 10.3032C86.1671 6.94374 91.6482 5.00061 97.4607 5.00061H107.529L107.531 4.9954ZM77.4974 13.5299C84.9393 20.7119 89.8264 31.8109 89.9581 44.4869L87.7707 48.8762C87.4626 49.4901 87.4202 50.2032 87.6535 50.8494L97.3354 77.4898H90.0063C88.6258 77.4898 87.5063 78.6093 87.5063 79.9898V87.4852C87.5063 88.9138 86.436 89.9852 85.0119 89.9852C83.6314 89.9852 82.5119 91.1046 82.5119 92.4852V97.5051C82.5119 101.257 80.4963 104.443 77.4974 106.152C74.4997 104.442 72.4829 101.257 72.4829 97.5051V92.4852C72.4829 91.1046 71.3634 89.9852 69.9829 89.9852C68.5577 89.9852 67.4885 88.9138 67.4885 87.4852V79.9898C67.4885 78.6093 66.369 77.4898 64.9885 77.4898H57.6594L67.3413 50.8494C67.5735 50.2032 67.5311 49.4901 67.2241 48.8762L65.0367 44.4869C65.1661 31.8129 70.0566 20.7124 77.4974 13.5299Z" fill="#222222"/>
<path d="M107.531 4.9954C123.211 4.9954 137.611 13.6205 145.011 27.4415C152.411 41.2617 151.604 57.9756 142.501 71.0098C132.686 85.0654 130.065 94.6368 130.065 105.018C130.065 113.183 132.78 119.843 136.808 124.993H99.3772L94.924 109.344C94.6182 108.268 93.635 107.527 92.5167 107.528H87.5513L83.6405 107.504C86.0221 104.846 87.4919 101.347 87.5176 97.5038L87.5421 94.5452C90.5198 93.4939 92.5175 90.6233 92.5175 87.485V82.4896H97.4975C100.224 82.4896 102.497 80.2151 102.497 77.4897C102.497 77.1984 102.445 76.9093 102.345 76.6347L92.7206 50.1506L94.7374 46.1127C94.9103 45.7656 95.0008 45.3827 95.0008 44.9944C95.0008 31.1327 89.7462 18.6005 81.4071 10.3032C86.1671 6.94374 91.6482 5.00061 97.4607 5.00061H107.529L107.531 4.9954Z" fill="#FFFDFA"/>
<path d="M77.4974 13.5299C84.9393 20.7119 89.8264 31.8109 89.9581 44.4869L87.7707 48.8762C87.4626 49.4901 87.4202 50.2032 87.6535 50.8494L97.3354 77.4898H90.0063C88.6258 77.4898 87.5063 78.6093 87.5063 79.9898V87.4852C87.5063 88.9138 86.436 89.9852 85.0119 89.9852C83.6314 89.9852 82.5119 91.1046 82.5119 92.4852V97.5051C82.5119 101.257 80.4963 104.443 77.4974 106.152C74.4997 104.442 72.4829 101.257 72.4829 97.5051V92.4852C72.4829 91.1046 71.3634 89.9852 69.9829 89.9852C68.5577 89.9852 67.4885 88.9138 67.4885 87.4852V79.9898C67.4885 78.6093 66.369 77.4898 64.9885 77.4898H57.6594L67.3413 50.8494C67.5735 50.2032 67.5311 49.4901 67.2241 48.8762L65.0367 44.4869C65.1661 31.8129 70.0566 20.7124 77.4974 13.5299Z" fill="#FFFDFA"/>
<path d="M39.8119 4.18895H48.2563C53.1315 4.18895 57.7285 5.81868 61.7211 8.6364C54.7266 15.5962 50.3196 26.1085 50.3196 37.7333C50.3196 38.0591 50.3954 38.3802 50.5405 38.6713L52.232 42.0581L44.16 64.2714C44.0758 64.5008 44.0346 64.7432 44.0318 64.9875C44.0318 67.2735 45.9386 69.1812 48.2255 69.1812H52.4024V73.3711C52.4024 76.0033 54.078 78.4109 56.5754 79.2928L56.596 81.7742C56.6166 84.9981 57.8495 87.9327 59.8479 90.1616L56.5678 90.1822H52.4031C51.4651 90.1813 50.6404 90.8038 50.3839 91.7061L46.6489 104.832H15.2539C18.6323 100.512 20.9098 94.9262 20.9098 88.0778C20.9098 79.3703 18.7109 71.3424 10.4791 59.5536C2.8444 48.6201 2.16742 34.6024 8.37378 23.0111C14.5809 11.4195 26.6575 4.18457 39.8096 4.18457L39.8119 4.18895Z" fill="#222222"/>
</svg>
