<svg width="180" height="180" viewBox="0 0 180 180" fill="none" xmlns="http://www.w3.org/2000/svg">
<path d="M74.0894 112.785H81.7574V116.673H74.0894V112.785Z" fill="#201D1E"/>
<path d="M74.0894 133.558H81.7574V137.445H74.0894V133.558Z" fill="#201D1E"/>
<path d="M74.0894 123.153H81.7574V127.041H74.0894V123.153Z" fill="#201D1E"/>
<path d="M94.4993 41.3259C93.6353 40.4259 91.8714 38.9139 90.0355 38.9139H69.8398C70.4158 39.7779 70.7038 40.6419 70.8478 41.3259H94.4993Z" fill="#201D1E"/>
<path d="M74.0894 102.381H81.7574V106.305H74.0894V102.381Z" fill="#201D1E"/>
<path d="M92.6266 133.558H100.295V137.445H92.6266V133.558Z" fill="#201D1E"/>
<path d="M55.5851 123.153H63.2531V127.041H55.5851V123.153Z" fill="#201D1E"/>
<path d="M55.5851 102.381H63.2531V106.305H55.5851V102.381Z" fill="#201D1E"/>
<path d="M55.5851 112.785H63.2531V116.673H55.5851V112.785Z" fill="#201D1E"/>
<path d="M55.5851 133.558H63.2531V137.445H55.5851V133.558Z" fill="#201D1E"/>
<path d="M92.6266 123.153H100.295V127.041H92.6266V123.153Z" fill="#201D1E"/>
<path d="M90 0C40.2834 0 0 40.2834 0 90C0 139.717 40.2834 180 90 180C139.717 180 180 139.717 180 90C180 40.2834 139.717 0 90 0V0ZM112.212 68.9021C112.86 69.2981 114.372 70.4141 115.668 73.3659C117.072 76.5699 117.432 80.062 117.504 81.4299H112.212L112.212 68.9021ZM62.5313 38.9504C62.5313 38.1224 62.9993 37.2944 63.7193 36.7184C64.5113 36.1064 65.4473 35.8905 66.3473 36.1064H90.0352C93.419 36.1064 96.0831 38.8064 97.0913 39.9584L100.763 44.1345H93.4911V64.8703H90.6472V44.1345H68.1834V42.7305C68.1834 42.5865 68.1474 41.2905 67.2114 40.0665C66.8154 39.5625 66.3114 39.1665 65.6634 38.8425C65.5554 38.8785 65.4474 38.9505 65.4114 39.0225H65.3754V64.9423H62.5314L62.5313 38.9504ZM69.4432 54.4664V51.6224H87.515V54.4664H69.4432ZM84.167 57.5264V60.3703H69.4432V57.5264H84.167ZM109.943 136.293C109.943 140.541 106.487 143.961 102.275 143.961H53.4961C49.2482 143.961 45.8281 140.505 45.8281 136.293V69.4774C45.8281 65.2296 49.2841 61.8095 53.4961 61.8095H60.8399V67.1014H95.0046V61.8095H102.348C106.596 61.8095 110.016 65.2296 109.944 69.4416L109.943 136.293ZM134.17 126.897C134.17 129.381 132.19 131.361 129.706 131.361H112.211V84.2377H129.706C132.154 84.2377 134.206 86.2177 134.17 88.7377V126.897Z" fill="#201D1E"/>
<path d="M117.503 92.448H120.347V117.216H117.503V92.448Z" fill="#201D1E"/>
<path d="M126.36 96.3352H129.204V113.399H126.36V96.3352Z" fill="#201D1E"/>
<path d="M92.6266 102.381H100.295V106.305H92.6266V102.381Z" fill="#201D1E"/>
<path d="M92.6266 112.785H100.295V116.673H92.6266V112.785Z" fill="#201D1E"/>
<path d="M54.4332 70.1257H101.411V96.5856H54.4332V70.1257Z" fill="#201D1E"/>
</svg>
