<svg width="719" height="719" viewBox="0 0 719 719" fill="none" xmlns="http://www.w3.org/2000/svg">
<path d="M606.385 599.68C578.104 591.764 587.15 594.024 580.364 578.186C552.082 603.076 529.452 600.811 504.566 581.581C498.91 596.289 502.306 594.024 479.676 599.68C524.93 642.669 556.608 648.325 606.384 599.68L606.385 599.68Z" fill="#201D1E"/>
<path d="M540.772 572.52C562.266 572.52 602.996 523.875 605.256 482.015C605.256 474.098 604.125 466.176 602.995 458.26C601.865 449.208 580.37 439.025 562.266 439.025C540.771 439.025 493.255 476.359 477.417 491.067C483.073 530.66 520.406 572.52 540.771 572.52H540.772Z" fill="#201D1E"/>
<path d="M619.959 439.027V428.844C617.698 401.694 600.724 377.932 576.969 365.49C544.163 348.52 513.615 365.49 485.333 389.244C484.203 390.375 458.183 411.87 470.625 463.911C486.464 450.332 513.615 429.974 539.636 418.66C561.131 408.478 604.12 417.53 619.959 439.024V439.027Z" fill="#201D1E"/>
<path d="M709.332 640.4C696.884 630.218 669.733 618.906 632.4 607.594C609.775 633.615 578.097 658.506 543.025 658.506C507.952 658.506 477.411 634.751 453.651 607.594C416.317 618.906 388.036 631.348 375.588 640.4C371.062 643.796 367.671 650.583 367.671 657.37V718.458H717.245V657.37C718.375 650.583 714.984 643.791 709.328 640.4H709.332Z" fill="#201D1E"/>
<path d="M237.572 241.054C211.55 233.137 220.602 239.924 211.55 219.559C184.4 243.314 161.774 243.314 135.753 222.955C130.097 238.794 132.357 235.398 110.862 241.054C158.378 290.83 195.712 280.647 237.57 241.054L237.572 241.054Z" fill="#201D1E"/>
<path d="M170.825 212.773C192.32 212.773 233.049 164.128 235.309 121.137C235.309 113.221 234.179 105.299 233.049 97.3826C231.918 88.3305 210.423 78.1479 191.189 78.1479C169.694 78.1479 122.178 115.481 106.339 130.189C114.256 170.913 151.59 212.773 170.823 212.773H170.825Z" fill="#201D1E"/>
<path d="M169.692 60.0402C192.317 49.8579 235.306 58.91 251.145 80.4042C252.275 49.8575 236.437 21.5762 207.025 6.86818C174.218 -10.1012 143.67 6.86818 115.389 30.6228C114.259 31.7531 88.2383 53.2482 100.681 105.29C116.52 91.7162 143.67 71.3522 169.692 60.0389V60.0402Z" fill="#201D1E"/>
<path d="M263.598 247.84C242.104 272.731 209.296 298.752 176.489 298.752C141.416 298.752 108.609 274.998 85.9837 247.84C36.2077 263.679 15.8437 274.991 7.92106 280.647C3.39506 284.043 0.00439453 290.829 0.00439453 297.616V358.71H349.578V297.622C349.578 290.835 346.182 285.179 341.661 280.652C332.604 274.991 312.24 263.679 263.593 247.84H263.598Z" fill="#201D1E"/>
<path d="M299.799 428.853H22.6253C10.1827 428.853 0 439.036 0 451.479V608.732C0 621.175 10.1823 631.357 22.6253 631.357H185.532L231.917 677.743C238.704 684.529 248.887 681.138 251.152 672.086L260.204 631.357H300.933C313.376 631.357 323.559 621.175 323.559 608.732L323.548 451.478C322.418 439.036 312.236 428.853 299.794 428.853L299.799 428.853ZM105.212 541.984H82.5867C75.8003 541.984 71.2741 537.458 71.2741 530.671C71.2741 523.885 75.8001 519.359 82.5867 519.359H105.212C111.998 519.359 116.525 523.885 116.525 530.671C116.53 536.328 110.873 541.984 105.212 541.984ZM173.092 541.984H150.467C143.68 541.984 139.154 537.458 139.154 530.671C139.154 523.885 143.68 519.359 150.467 519.359H173.092C179.878 519.359 184.405 523.885 184.405 530.671C184.405 536.328 178.748 541.984 173.092 541.984ZM240.972 541.984H218.347C211.56 541.984 207.034 537.458 207.034 530.671C207.034 523.885 211.56 519.359 218.347 519.359H240.972C247.758 519.359 252.285 523.885 252.285 530.671C252.285 536.328 246.628 541.984 240.972 541.984Z" fill="#201D1E"/>
<path d="M417.452 238.787H458.181L467.233 279.516C469.494 288.568 479.676 290.829 486.468 285.173L532.853 238.787H695.76C708.202 238.787 718.385 228.605 718.385 216.162L718.375 58.9085C718.375 46.4659 708.192 36.2832 695.749 36.2832H417.443C405 36.2832 394.817 46.4655 394.817 58.9085V216.162C394.817 228.61 405 238.793 417.443 238.793L417.452 238.787ZM612.038 126.787H634.664C641.45 126.787 645.976 131.313 645.976 138.099C645.976 144.886 641.45 149.412 634.664 149.412H612.038C605.252 149.412 600.726 144.886 600.726 138.099C600.721 131.308 606.377 126.787 612.038 126.787ZM544.158 126.787H566.784C573.57 126.787 578.096 131.313 578.096 138.099C578.096 144.886 573.57 149.412 566.784 149.412H544.158C537.372 149.412 532.846 144.886 532.846 138.099C532.846 131.308 538.502 126.787 544.158 126.787ZM476.278 126.787H498.904C505.69 126.787 510.216 131.313 510.216 138.099C510.216 144.886 505.69 149.412 498.904 149.412H476.278C469.492 149.412 464.966 144.886 464.966 138.099C464.966 131.308 470.622 126.787 476.278 126.787Z" fill="#201D1E"/>
</svg>
