<svg width="189" height="186" viewBox="0 0 189 186" fill="none" xmlns="http://www.w3.org/2000/svg">
<g filter="url(#filter0_d_17_403)">
<path d="M28.9595 148.342L37.1543 130.635L16.6671 138.098C16.2282 138.244 15.7893 138.098 15.7893 137.659L14.3254 134.001L11.8378 135.611L31.5943 166.489L46.0823 157.123L29.3984 149.367C28.9594 149.221 28.8135 148.781 28.9594 148.342L28.9595 148.342Z" fill="#201D1E"/>
<path d="M158.91 47.6597L149.398 57.1713L149.837 60.8298L155.838 66.2442C156.131 66.5372 156.131 66.9761 155.838 67.2691L151.154 72.3915L150.422 73.2694L151.447 73.7083L161.106 78.0988L184.667 61.123L150.716 14.1477L136.666 24.2455L159.057 46.6356C159.203 46.7826 159.203 47.3675 158.911 47.6605L158.91 47.6597Z" fill="#201D1E"/>
<path d="M149.983 149.659L128.471 145.269L126.275 144.83L118.519 143.22L110.325 157.268L124.959 177.609L147.496 161.366L150.568 159.171L154.666 156.244L149.983 149.659Z" fill="#201D1E"/>
<path d="M80.4714 25.5619C80.7644 25.416 81.3493 25.5619 81.4963 25.8549L85.7397 34.3427L88.3733 26.7327C88.5192 26.2938 88.9582 26.1478 89.2511 26.2938L103.739 31.562L109.446 25.4157C109.739 25.1227 110.178 25.1227 110.471 25.4157L117.203 31.4159L118.813 32.8798L119.398 33.3187L119.837 33.6117L121.447 35.0755L121.593 35.2215L126.276 39.4648L127.154 40.1967L139.594 51.4652L147.936 50.4403C148.375 50.4403 148.668 50.7333 148.814 51.0253L149.106 54.0989L156.277 46.928L134.763 25.5617L130.373 21.1713L119.251 32.2929V0.390625H61.3003V24.3905L72.4219 29.5129L80.4714 25.5619Z" fill="#201D1E"/>
<path d="M47.8375 50.5865L44.618 44.2944C44.472 44.0014 44.618 43.4165 44.911 43.2695L58.9602 36.2454L61.1549 35.2205L69.7887 30.9772L61.1549 27.0257L58.9602 26.0008L29.253 12.0988L13.887 45.4644L31.5948 53.6592L47.8375 50.5865Z" fill="#201D1E"/>
<path d="M55.7399 49.8546L57.2037 58.1966L60.7162 55.7089C61.0091 55.416 61.4481 55.5629 61.741 55.8549L68.619 65.5136L70.0829 67.5624L72.5705 70.9279L83.9851 39.3184L84.717 37.4156L84.422 36.9767L84.276 36.6837L83.2512 34.635L80.0327 28.1968L74.9103 30.8304L72.4226 32.1472L62.3248 36.9765L59.1053 38.5863L47.252 44.4394L50.0327 50.0006L54.862 49.1227C55.3009 49.1227 55.5939 49.4156 55.7399 49.8546L55.7399 49.8546Z" fill="#201D1E"/>
<path d="M153.349 66.6839L150.275 64.0503L150.861 69.4646L153.349 66.6839Z" fill="#201D1E"/>
<path d="M94.3738 56.7327L94.9588 56.5867L96.5686 56.4397L119.984 53.8061L122.471 53.5132L130.52 52.4893L133.008 52.1963L136.666 51.7574L126.423 42.5377L125.545 41.8057L121.593 38.2941L120.716 37.5622L119.398 36.2454L118.228 35.2205L117.203 34.3426L115.593 32.8788L110.032 27.9034L106.227 32.2939L104.618 34.0497L101.837 36.9762L99.9352 39.172L92.3252 47.8058L90.7154 49.5616L85.593 55.2689L88.0806 57.4646L91.4472 57.0256L94.3738 56.7327Z" fill="#201D1E"/>
<path d="M123.057 98.001H165.642L171.495 85.4157L161.397 80.7323L159.055 79.7074L151.738 76.3418L152.031 78.6835L152.616 83.2198L153.494 90.5368C153.494 90.9758 153.201 91.2687 152.909 91.4147L132.275 93.7564L126.129 94.4883L124.08 94.7813L123.057 98.001Z" fill="#201D1E"/>
<path d="M166.959 100.196H122.618L122.179 102.099L126.422 102.977L128.617 103.415L160.373 109.855L162.567 110.294L165.201 110.879L167.396 111.318L169.444 111.756C169.883 111.902 170.029 112.195 170.029 112.634L167.396 125.805L165.057 136.635V136.928L164.618 139.123L162.13 151.269C161.984 151.708 161.691 151.854 161.252 151.854L153.203 150.244L157.447 156.097C157.74 156.39 157.593 156.829 157.301 157.122L154.52 159.171H165.057V136.928H174.714V100.343H167.251L166.958 100.342L166.959 100.196Z" fill="#201D1E"/>
<path d="M49.0082 64.0499L53.1057 61.1223L54.8615 59.8054L55.3005 59.5125L53.8377 51.6106L51.0569 52.0495L48.8622 52.4885L35.1059 54.9761L31.3014 55.7081L17.6922 58.1957L23.8385 91.7077L34.2292 87.9031L28.229 79.5612C27.936 79.2682 28.083 78.8293 28.375 78.5363L49.0082 64.0499Z" fill="#201D1E"/>
<path d="M129.057 74.4401L128.032 78.5377L124.958 90.5381L124.519 92.2939L126.714 92.0009L131.104 91.562L134.47 91.123L151.153 89.2203L149.837 79.4155L149.398 75.1721V74.4402L149.252 72.5375L148.959 71.6596L147.788 61.8548L147.496 59.074V58.4891L147.203 56.2944L146.764 52.9288L141.789 53.5138L138.862 53.8067L134.472 54.2457L131.983 54.5376L121.592 55.7085L119.106 56.0004L97.5937 58.4881L95.2521 58.781L92.3255 59.074L90.1308 59.367L88.96 59.513L89.2529 61.4157L89.3989 63.1715L89.5449 62.7325C89.5449 62.5866 89.6908 62.5866 89.6908 62.4396C89.8368 62.2936 89.9838 62.1466 90.1298 62.1466H90.2758L94.5191 63.1715L97.8847 64.0494L100.665 64.7813L112.812 67.8549L114.421 68.2939L115.006 68.4399L116.616 68.8788L128.617 71.9525C129.056 72.0985 129.202 72.3914 129.202 72.8304L129.057 74.4401Z" fill="#201D1E"/>
<path d="M16.2282 132.83L17.2521 135.611L38.4712 127.855L44.4714 114.684L44.6184 114.537L45.6423 112.196L46.2272 110.879L47.984 107.074L35.6916 89.8057L24.276 94.0501L22.2273 94.782L4.66669 101.22L15.4962 130.635L16.2282 132.83Z" fill="#201D1E"/>
<path d="M122.178 136.927L119.545 141.317L126.13 142.634L128.325 143.073L148.081 147.024L151.301 147.609L160.227 149.365L162.276 138.974L162.715 136.779L165.057 125.365L167.251 114.535L167.544 113.364H167.251L165.057 113.075L161.398 112.343L159.203 111.904L128.471 105.611L127.446 105.465L126.275 105.172L121.447 104.294L121.301 105.172L121.008 106.342L120.13 109.562L116.618 123.757L115.3 128.732L116.617 129.464L123.349 133.416C123.642 133.562 123.788 134.001 123.642 134.441L122.178 136.927Z" fill="#201D1E"/>
<path d="M64.9594 110.879L59.984 119.513H60.13L49.7393 137.512C49.5933 137.805 49.7393 138.244 50.0323 138.537L63.3495 146.293L65.5442 147.464L70.9586 150.538L64.9583 163.416L50.7633 156.831L48.4216 155.806L31.593 148.05L41.5436 126.831H41.3976L47.2507 114.246L48.1286 112.343L48.4216 111.758L49.5924 109.124L49.8854 108.685L50.7633 106.93L56.0316 95.3691L62.4708 98.2957L64.9585 99.4665L66.2753 100.051L69.056 101.368L72.8606 103.124L72.5677 104.149L70.52 102.83C70.227 102.684 69.788 102.684 69.4951 102.976L68.1782 105.318L66.5684 108.098L66.2765 108.684L64.9594 110.879Z" fill="#201D1E"/>
<path d="M77.9837 82.0496L73.3003 100.781L67.8859 98.2935L65.1052 96.9767L64.3733 96.6837L61.8856 95.5129L55.4464 92.5863C55.0075 92.4404 54.7145 92.5863 54.4215 93.0253L49.0072 104.733L37.7387 89.0738L36.4218 87.1711L31.0075 79.5611L51.3489 64.927L53.3976 63.4632L54.1295 63.0243L55.7393 61.8534L55.8853 61.7074L57.641 60.3906L60.8605 58.1959L67.5927 67.7075L69.0565 69.7563L71.6901 73.4148L73.2999 75.6095L77.9837 82.0496Z" fill="#201D1E"/>
<path d="M102.276 33.3178L98.9106 36.9764L96.8619 39.1711L91.1546 45.6103L89.5448 47.3661L82.8127 54.8292C82.5197 55.1221 82.5197 55.5611 82.8127 55.8541L86.6173 59.2196L86.9102 61.4143L87.0562 63.1701L87.7881 68.7313L82.2269 67.2675C81.788 67.1215 81.349 67.4135 81.349 67.8524L78.4225 79.1209L73.8862 72.8288L86.0324 40.0511L86.3254 39.1732L87.0573 37.1245V36.9785L89.9839 28.7837L102.276 33.3178Z" fill="#201D1E"/>
<path d="M121.008 134.44L119.544 136.781L118.227 138.976L117.349 140.879L116.178 142.928L109.007 155.513L107.837 157.562L102.714 166.342L73.5949 149.513L71.6922 148.342L67.4488 145.854L65.2542 144.683L52.3759 137.22L60.132 123.757L61.1558 121.854L61.3018 121.708L62.9116 118.928L66.424 112.927L67.5949 110.733L69.0587 108.099L70.5225 105.611L70.6685 105.318L71.8394 106.05L66.5711 127.124C66.4251 127.563 66.7171 127.855 67.156 128.001L105.497 137.66C105.936 137.806 106.229 137.514 106.375 137.075L107.839 131.075L113.546 132.539C113.839 132.685 114.278 132.393 114.424 132.1V131.954L114.717 130.783L116.62 131.808L121.008 134.44Z" fill="#201D1E"/>
<path d="M126.861 73.8546L125.983 77.5131L124.959 81.6106L123.056 88.9276L122.471 91.4153L122.178 92.5862L121.593 94.9278L120.861 98.1473L120.276 100.342L119.837 101.806V102.099L119.398 104.002V104.295L118.227 108.245L117.35 111.611L116.618 114.83L114.422 123.318L113.397 127.415L112.812 129.61L112.666 130.049L108.423 129.024L121.301 77.9512C121.447 77.5122 121.155 77.2193 120.716 77.0733L90.131 69.3172L90.8629 66.6836L91.3018 64.7809L92.1797 65.0739L93.6435 65.5128L98.1798 66.6837L99.3507 66.9766L102.131 67.7085L112.082 70.1962L114.277 70.7811L116.033 71.2201L126.861 73.8546Z" fill="#201D1E"/>
<path d="M86.5081 79.1203L86.8664 77.7014L112.123 84.0753L111.764 85.4942L86.5081 79.1203Z" fill="#201D1E"/>
<path d="M84.6605 86.1655L85.0188 84.7466L110.275 91.1205L109.917 92.5394L84.6605 86.1655Z" fill="#201D1E"/>
<path d="M82.9488 93.2448L83.3071 91.8259L108.563 98.1998L108.205 99.6187L82.9488 93.2448Z" fill="#201D1E"/>
<path d="M81.0986 100.287L81.4569 98.8684L106.713 105.242L106.355 106.661L81.0986 100.287Z" fill="#201D1E"/>
<path d="M79.3556 107.508L79.7139 106.089L104.97 112.463L104.612 113.882L79.3556 107.508Z" fill="#201D1E"/>
<path d="M77.5081 114.558L77.8664 113.139L102.981 119.477L102.622 120.896L77.5081 114.558Z" fill="#201D1E"/>
<path d="M75.7964 121.632L76.1547 120.213L101.411 126.587L101.053 128.006L75.7964 121.632Z" fill="#201D1E"/>
</g>
<defs>
<filter id="filter0_d_17_403" x="0.666687" y="0.390625" width="188" height="185.219" filterUnits="userSpaceOnUse" color-interpolation-filters="sRGB">
<feFlood flood-opacity="0" result="BackgroundImageFix"/>
<feColorMatrix in="SourceAlpha" type="matrix" values="0 0 0 0 0 0 0 0 0 0 0 0 0 0 0 0 0 0 127 0" result="hardAlpha"/>
<feOffset dy="4"/>
<feGaussianBlur stdDeviation="2"/>
<feComposite in2="hardAlpha" operator="out"/>
<feColorMatrix type="matrix" values="0 0 0 0 0 0 0 0 0 0 0 0 0 0 0 0 0 0 0.25 0"/>
<feBlend mode="normal" in2="BackgroundImageFix" result="effect1_dropShadow_17_403"/>
<feBlend mode="normal" in="SourceGraphic" in2="effect1_dropShadow_17_403" result="shape"/>
</filter>
</defs>
</svg>
