<svg width="678" height="701" viewBox="0 0 678 701" fill="none" xmlns="http://www.w3.org/2000/svg">
<path d="M170.507 478.667L225.424 533.584H225.419C227.606 535.771 230.575 537.001 233.669 537.001C236.778 537.048 239.773 535.839 241.971 533.636C244.174 531.438 245.382 528.443 245.335 525.334V478.667H292.002C295.096 478.667 298.065 477.438 300.252 475.251C302.44 473.063 303.669 470.094 303.669 467.001V257.001C303.669 253.907 302.44 250.938 300.252 248.751C298.065 246.563 295.096 245.334 292.002 245.334H12.0021C5.55945 245.334 0.335449 250.558 0.335449 257.001V467.001C0.335449 470.094 1.56462 473.063 3.75212 475.251C5.93961 477.438 8.90838 478.667 12.0021 478.667L170.507 478.667ZM99.6787 430.536C95.9704 428.479 93.6683 424.572 93.6683 420.333V303.666C93.6683 299.427 95.9704 295.52 99.6787 293.463C103.387 291.406 107.918 291.526 111.517 293.77L204.851 352.104C208.059 354.38 209.965 358.067 209.965 362C209.965 365.932 208.059 369.625 204.851 371.896L111.517 430.229C107.918 432.474 103.387 432.593 99.6787 430.536V430.536Z" fill="#201D1E"/>
<path d="M537 93.6668V12.0002C537 8.90643 535.771 5.93763 533.583 3.75016C531.396 1.5627 528.427 0.333496 525.333 0.333496H152C145.557 0.333496 140.333 5.5575 140.333 12.0002V93.6668H537ZM292 47.0002H385.333C391.776 47.0002 397 52.2242 397 58.6668C397 65.1095 391.776 70.3335 385.333 70.3335H292C285.557 70.3335 280.333 65.1095 280.333 58.6668C280.333 52.2242 285.557 47.0002 292 47.0002ZM222 47.0002H245.333C251.776 47.0002 257 52.2242 257 58.6668C257 65.1095 251.776 70.3335 245.333 70.3335H222C215.557 70.3335 210.333 65.1095 210.333 58.6668C210.333 52.2242 215.557 47.0002 222 47.0002Z" fill="#201D1E"/>
<path d="M140.333 607V688.667C140.333 691.76 141.562 694.729 143.75 696.917C145.937 699.104 148.906 700.333 152 700.333H525.333C528.427 700.333 531.396 699.104 533.583 696.917C535.771 694.729 537 691.76 537 688.667V607H140.333ZM385.333 653.667H292C285.557 653.667 280.333 648.443 280.333 642C280.333 635.557 285.557 630.333 292 630.333H385.333C391.776 630.333 397 635.557 397 642C397 648.443 391.776 653.667 385.333 653.667Z" fill="#201D1E"/>
<path d="M117 399.28L176.651 361.994L117 324.707V399.28Z" fill="#201D1E"/>
<path d="M665.333 163.667H385.333C378.891 163.667 373.667 168.891 373.667 175.333V385.333C373.667 388.427 374.896 391.396 377.083 393.583C379.271 395.771 382.24 397 385.333 397H432V443.667C431.964 446.771 433.182 449.76 435.375 451.958C437.573 454.151 440.562 455.37 443.667 455.333C446.76 455.333 449.729 454.104 451.917 451.917L506.829 396.999H665.335C668.429 396.999 671.398 395.77 673.585 393.583C675.773 391.395 677.002 388.426 677.002 385.333V175.333C677.002 172.239 675.773 169.27 673.585 167.083C671.398 164.895 668.429 163.666 665.335 163.666L665.333 163.667ZM606.479 275.568C602.265 311.375 559.796 350.699 525.333 350.699C490.871 350.699 448.401 311.376 444.188 275.559C442.131 263.668 444.047 251.433 449.646 240.741C455.24 230.049 464.198 221.496 475.141 216.408C490.985 208.59 509.589 208.71 525.334 216.731C541.08 208.71 559.684 208.59 575.528 216.408C586.471 221.497 595.429 230.053 601.028 240.747C606.622 251.439 608.538 263.673 606.481 275.569L606.479 275.568Z" fill="#201D1E"/>
<path d="M565.64 237.547C560.692 234.859 555.088 233.604 549.468 233.927C543.843 234.25 538.421 236.135 533.812 239.37C529.119 244.042 521.536 244.042 516.843 239.37C507.181 233.557 495.275 232.875 485.015 237.547C478.494 240.542 473.192 245.672 469.979 252.083C466.77 258.5 465.843 265.818 467.354 272.832C470.453 299.16 504.031 327.363 525.327 327.363C546.63 327.363 580.202 299.16 583.3 272.836C584.811 265.821 583.884 258.503 580.675 252.087C577.462 245.67 572.16 240.54 565.639 237.546L565.64 237.547Z" fill="#201D1E"/>
<path d="M385.333 140.333H537V117H140.333V222H292C301.281 222.01 310.177 225.703 316.74 232.26C323.297 238.823 326.99 247.719 327 257V467C326.99 476.282 323.297 485.178 316.74 491.74C310.178 498.298 301.281 501.99 292 502.001H268.667V525.334C268.542 534.579 264.818 543.407 258.281 549.949C251.74 556.485 242.912 560.209 233.667 560.334C224.38 560.36 215.469 556.668 208.921 550.079L160.833 502H140.333V583.667H537V420.334H516.5L468.417 468.412H468.412C461.85 474.98 452.948 478.668 443.667 478.668C434.38 478.668 425.479 474.98 418.917 468.418C412.356 461.855 408.667 452.948 408.667 443.668V420.335H385.334C376.053 420.325 367.157 416.632 360.594 410.075C354.037 403.512 350.344 394.616 350.334 385.335V175.335C350.344 166.053 354.037 157.157 360.594 150.595C367.157 144.037 376.053 140.345 385.334 140.334L385.333 140.333Z" fill="#201D1E"/>
</svg>
