<svg width="181" height="180" viewBox="0 0 181 180" fill="none" xmlns="http://www.w3.org/2000/svg">
<path fill-rule="evenodd" clip-rule="evenodd" d="M90.3334 0C40.6277 0 0.333374 40.2944 0.333374 90C0.333374 139.706 40.6277 180 90.3334 180C140.039 180 180.333 139.706 180.333 90C180.333 40.2944 140.039 0 90.3334 0ZM63.3334 136.781C63.3334 134.8 64.9436 133.188 66.923 133.188H114.17H114.175H114.748C116.725 133.188 118.333 134.799 118.333 136.781C118.333 138.758 116.725 140.365 114.748 140.365H66.923C64.9435 140.365 63.3334 138.758 63.3334 136.781ZM113.316 48.8938H68.3554C68.5069 70.303 74.3568 75.7328 79.0702 80.1043L79.0716 80.1056C81.9274 82.7552 84.394 85.0438 84.5257 90.1605C84.5265 90.2031 84.5249 90.2458 84.5196 90.2884C83.9205 95.0937 81.45 97.4149 78.8341 99.8718C74.2237 104.203 68.5002 109.581 68.3554 131.482H113.316C113.157 110.109 107.049 104.446 102.572 100.295L102.57 100.293C99.7004 97.6334 97.2231 95.3373 97.141 90.1954C97.1403 90.1665 97.1418 90.1383 97.1441 90.1101C97.5628 85.1692 99.9656 82.9234 102.748 80.3235C107.397 75.9795 113.169 70.5848 113.316 48.8927L113.316 48.8938ZM118.333 43.5935C118.333 45.5759 116.725 47.1884 114.748 47.1884L114.171 47.1891H66.923C64.9435 47.1891 63.3334 45.5768 63.3334 43.5943C63.3334 41.6133 64.9436 40.0008 66.923 40.0008L114.748 40C116.725 40 118.333 41.6118 118.333 43.5935Z" fill="#201D1E"/>
</svg>
