<svg width="64" height="64" viewBox="0 0 64 64" fill="none" xmlns="http://www.w3.org/2000/svg">
<path d="M40 52.132L38.555 51.168C38.219 50.943 37.782 50.943 37.446 51.168L35 52.798L32.555 51.168C32.219 50.943 31.782 50.943 31.446 51.168L29 52.798L26.555 51.168C26.219 50.943 25.782 50.943 25.446 51.168L24 52.132V30H22V54C22 54.269 22.11 54.521 22.295 54.705L22.293 54.707L31.293 63.707C31.488 63.902 31.744 64 32 64C32.256 64 32.512 63.902 32.707 63.707L41.707 54.707L41.705 54.705C41.89 54.521 42 54.269 42 54V35H40V52.132ZM26 53.202L28.445 54.832C28.781 55.057 29.218 55.057 29.554 54.832L32 53.202L34.445 54.832C34.781 55.057 35.218 55.057 35.554 54.832L38 53.202L39.43 54.155L35.586 58H28.414L24.57 54.156L26 53.202ZM32 61.586L30.414 60H33.586L32 61.586Z" fill="#25383F"/>
<path d="M19.0939 21.2869C18.9759 20.9249 18.6629 20.6609 18.2859 20.6059L15.3879 20.1839L14.0909 17.5569C13.7549 16.8729 12.6339 16.8729 12.2979 17.5569L11.0009 20.1849L8.10288 20.6069C7.72588 20.6619 7.41388 20.9249 7.29488 21.2879C7.17788 21.6489 7.27488 22.0469 7.54788 22.3119L9.64588 24.3569L9.15087 27.2449C9.08687 27.6199 9.24087 27.9989 9.54787 28.2229C9.85787 28.4489 10.2659 28.4769 10.6019 28.2989L13.1949 26.9359L15.7879 28.2989C15.9339 28.3759 16.0949 28.4139 16.2539 28.4139C16.4609 28.4139 16.6669 28.3499 16.8419 28.2229C17.1499 27.9989 17.3039 27.6199 17.2389 27.2449L16.7439 24.3569L18.8419 22.3119C19.1129 22.0459 19.2109 21.6479 19.0939 21.2869ZM14.9709 23.2909C14.7359 23.5199 14.6279 23.8519 14.6839 24.1759L14.9249 25.5849L13.6599 24.9199C13.5139 24.8429 13.3539 24.8049 13.1939 24.8049C13.0339 24.8049 12.8749 24.8429 12.7279 24.9199L11.4629 25.5849L11.7039 24.1759C11.7599 23.8519 11.6519 23.5209 11.4169 23.2909L10.3939 22.2939L11.8079 22.0879C12.1339 22.0409 12.4149 21.8359 12.5609 21.5409L13.1939 20.2599L13.8269 21.5409C13.9729 21.8359 14.2539 22.0409 14.5799 22.0879L15.9939 22.2939L14.9709 23.2909Z" fill="#25383F"/>
<path d="M14.9709 23.2909C14.7359 23.5199 14.6279 23.8519 14.6839 24.1759L14.9249 25.5849L13.6599 24.9199C13.5139 24.8429 13.3539 24.8049 13.1939 24.8049C13.0339 24.8049 12.8749 24.8429 12.7279 24.9199L11.4629 25.5849L11.7039 24.1759C11.7599 23.8519 11.6519 23.5209 11.4169 23.2909L10.3939 22.2939L11.8079 22.0879C12.1339 22.0409 12.4149 21.8359 12.5609 21.5409L13.1939 20.2599L13.8269 21.5409C13.9729 21.8359 14.2539 22.0409 14.5799 22.0879L15.9939 22.2939L14.9709 23.2909Z" fill="#FBDF8F"/>
<path d="M18.0664 8.63292L17.4474 12.2439C17.3834 12.6189 17.5374 12.9979 17.8444 13.2229C18.1544 13.4469 18.5614 13.4759 18.8984 13.2979L22.1404 11.5929L25.3824 13.2979C25.5284 13.3749 25.6894 13.4129 25.8484 13.4129C26.0554 13.4129 26.2614 13.3489 26.4364 13.2229C26.7444 12.9979 26.8984 12.6189 26.8334 12.2439L26.2144 8.63292L28.8384 6.07492C29.1104 5.80892 29.2084 5.41192 29.0914 5.05092C28.9734 4.68892 28.6604 4.42492 28.2834 4.36992L24.6594 3.84292L23.0374 0.557922C22.7014 -0.126078 21.5804 -0.126078 21.2444 0.557922L19.6234 3.84292L15.9974 4.36992C15.6204 4.42492 15.3084 4.68792 15.1894 5.05092C15.0724 5.41192 15.1694 5.80992 15.4424 6.07492L18.0664 8.63292ZM20.4314 5.74592C20.7574 5.69892 21.0384 5.49392 21.1844 5.19892L22.1414 3.25992L23.0994 5.19892C23.2454 5.49392 23.5264 5.69892 23.8524 5.74592L25.9924 6.05792L24.4434 7.56792C24.2084 7.79692 24.1004 8.12892 24.1564 8.45292L24.5214 10.5859L22.6074 9.57892C22.4614 9.50192 22.3014 9.46392 22.1414 9.46392C21.9814 9.46392 21.8224 9.50192 21.6754 9.57892L19.7614 10.5859L20.1264 8.45292C20.1824 8.12892 20.0744 7.79792 19.8394 7.56792L18.2904 6.05792L20.4314 5.74592Z" fill="#25383F"/>
<path d="M20.4314 5.74592C20.7574 5.69892 21.0384 5.49392 21.1844 5.19892L22.1414 3.25992L23.0994 5.19892C23.2454 5.49392 23.5264 5.69892 23.8524 5.74592L25.9924 6.05792L24.4434 7.56792C24.2084 7.79692 24.1004 8.12892 24.1564 8.45292L24.5214 10.5859L22.6074 9.57892C22.4614 9.50192 22.3014 9.46392 22.1414 9.46392C21.9814 9.46392 21.8224 9.50192 21.6754 9.57892L19.7614 10.5859L20.1264 8.45292C20.1824 8.12892 20.0744 7.79792 19.8394 7.56792L18.2904 6.05792L20.4314 5.74592Z" fill="#ECB23F"/>
<path d="M45.7154 15.063L49.8394 11.043C50.1114 10.777 50.2094 10.38 50.0924 10.019C49.9744 9.65698 49.6614 9.39299 49.2844 9.33799L43.5864 8.50998L41.0374 3.34698C40.7014 2.66298 39.5804 2.66298 39.2444 3.34698L36.6954 8.50998L30.9974 9.33898C30.6204 9.39398 30.3084 9.65699 30.1894 10.02C30.0724 10.381 30.1694 10.779 30.4424 11.044L34.5664 15.064L33.5924 20.74C33.5284 21.115 33.6824 21.494 33.9894 21.718C34.2994 21.943 34.7074 21.972 35.0434 21.794L40.1404 19.114L45.2374 21.794C45.3834 21.871 45.5444 21.909 45.7034 21.909C45.9104 21.909 46.1164 21.845 46.2914 21.718C46.5994 21.494 46.7534 21.115 46.6884 20.74L45.7154 15.063ZM43.9424 13.998C43.7074 14.227 43.5994 14.559 43.6554 14.883L44.3754 19.08L40.6064 17.099C40.4604 17.022 40.3004 16.984 40.1404 16.984C39.9804 16.984 39.8214 17.022 39.6744 17.099L35.9054 19.08L36.6254 14.883C36.6814 14.559 36.5734 14.228 36.3384 13.998L33.2894 11.026L37.5024 10.413C37.8284 10.366 38.1094 10.161 38.2554 9.86598L40.1404 6.04898L42.0254 9.86598C42.1714 10.161 42.4524 10.366 42.7784 10.413L46.9914 11.026L43.9424 13.998Z" fill="#25383F"/>
<path d="M43.9424 13.998C43.7074 14.227 43.5994 14.559 43.6554 14.883L44.3754 19.08L40.6064 17.099C40.4604 17.022 40.3004 16.984 40.1404 16.984C39.9804 16.984 39.8214 17.022 39.6744 17.099L35.9054 19.08L36.6254 14.883C36.6814 14.559 36.5734 14.228 36.3384 13.998L33.2894 11.026L37.5024 10.413C37.8284 10.366 38.1094 10.161 38.2554 9.86598L40.1404 6.04898L42.0254 9.86598C42.1714 10.161 42.4524 10.366 42.7784 10.413L46.9914 11.026L43.9424 13.998Z" fill="#ECB23F"/>
<path d="M57.1304 26.2239L54.5954 25.8559L53.4604 23.5579C53.1244 22.8739 52.0034 22.8739 51.6674 23.5579L50.5334 25.8559L47.9974 26.2239C47.6204 26.2789 47.3084 26.5419 47.1894 26.9039C47.0724 27.2659 47.1694 27.6639 47.4424 27.9289L49.2784 29.7179L48.8444 32.2439C48.7804 32.6189 48.9344 32.9979 49.2414 33.2219C49.4164 33.3489 49.6224 33.4129 49.8294 33.4129C49.9884 33.4129 50.1484 33.3749 50.2954 33.2979L52.5634 32.1059L54.8314 33.2979C55.1684 33.4759 55.5764 33.4459 55.8854 33.2229C56.1934 32.9979 56.3474 32.6189 56.2824 32.2439L55.8494 29.7179L57.6844 27.9289C57.9564 27.6629 58.0544 27.2659 57.9374 26.9039C57.8194 26.5419 57.5074 26.2779 57.1304 26.2239ZM54.0774 28.6529C53.8424 28.8819 53.7344 29.2139 53.7904 29.5379L53.9694 30.5849L53.0304 30.0909C52.8844 30.0139 52.7244 29.9759 52.5644 29.9759C52.4044 29.9759 52.2454 30.0139 52.0984 30.0909L51.1594 30.5849L51.3394 29.5379C51.3954 29.2139 51.2874 28.8829 51.0524 28.6529L50.2914 27.9109L51.3424 27.7589C51.6684 27.7119 51.9494 27.5069 52.0954 27.2119L52.5654 26.2599L53.0364 27.2119C53.1824 27.5079 53.4634 27.7119 53.7894 27.7589L54.8404 27.9109L54.0774 28.6529Z" fill="#25383F"/>
<path d="M54.0774 28.6529C53.8424 28.8819 53.7344 29.2139 53.7904 29.5379L53.9694 30.5849L53.0304 30.0909C52.8844 30.0139 52.7244 29.9759 52.5644 29.9759C52.4044 29.9759 52.2454 30.0139 52.0984 30.0909L51.1594 30.5849L51.3394 29.5379C51.3954 29.2139 51.2874 28.8829 51.0524 28.6529L50.2914 27.9109L51.3424 27.7589C51.6684 27.7119 51.9494 27.5069 52.0954 27.2119L52.5654 26.2599L53.0364 27.2119C53.1824 27.5079 53.4634 27.7119 53.7894 27.7589L54.8404 27.9109L54.0774 28.6529Z" fill="#FBDF8F"/>
<path d="M29 37H31C31 29.832 25.617 24 19 24V26C24.514 26 29 30.935 29 37Z" fill="#25383F"/>
<path d="M35 42H37C37 34.953 40.206 29 44 29V27C38.953 27 35 33.589 35 42Z" fill="#25383F"/>
<path d="M27 25H29C29 22.794 30.346 21 32 21V19C29.243 19 27 21.691 27 25Z" fill="#25383F"/>
<path d="M20 16C21.654 16 23 17.794 23 20H25C25 16.691 22.757 14 20 14V16Z" fill="#25383F"/>
<path d="M41 24V22C36.037 22 32 26.486 32 32H34C34 27.589 37.141 24 41 24Z" fill="#25383F"/>
<path d="M37 44H35V46H37V44Z" fill="#25383F"/>
<path d="M34 34H32V36H34V34Z" fill="#25383F"/>
<path d="M31 39H29V41H31V39Z" fill="#25383F"/>
<path d="M31 43H29V45H31V43Z" fill="#25383F"/>
<path d="M31 47H29V49H31V47Z" fill="#25383F"/>
<path d="M14 30H12V32H14V30Z" fill="#25383F"/>
<path d="M2 16H0V18H2V16Z" fill="#25383F"/>
<path d="M10 12H8V14H10V12Z" fill="#25383F"/>
<path d="M51 17H49V19H51V17Z" fill="#25383F"/>
<path d="M62 10H60V12H62V10Z" fill="#25383F"/>
<path d="M6 5H4V7H6V5Z" fill="#25383F"/>
<path d="M13 4H11V6H13V4Z" fill="#25383F"/>
<path d="M50 3H48V5H50V3Z" fill="#25383F"/>
<path d="M56 11H54V13H56V11Z" fill="#25383F"/>
<path d="M4 24H2V26H0V28H2V30H4V28H6V26H4V24Z" fill="#25383F"/>
<path d="M61 16H59V18H57V20H59V22H61V20H63V18H61V16Z" fill="#25383F"/>
<path d="M61 0C59.346 0 58 1.346 58 3C58 4.654 59.346 6 61 6C62.654 6 64 4.654 64 3C64 1.346 62.654 0 61 0ZM61 4C60.448 4 60 3.552 60 3C60 2.448 60.448 2 61 2C61.552 2 62 2.448 62 3C62 3.552 61.552 4 61 4Z" fill="#25383F"/>
</svg>
